<mxfile host="app.diagrams.net" agent="Mozilla/5.0 (Windows NT 10.0; Win64; x64) AppleWebKit/537.36 (KHTML, like Gecko) Chrome/134.0.0.0 Safari/537.36" version="26.1.3">
  <diagram name="第 1 页" id="VDRu0KwhqUrrCid178xM">
    <mxGraphModel dx="1235" dy="614" grid="1" gridSize="10" guides="1" tooltips="1" connect="1" arrows="1" fold="1" page="1" pageScale="1" pageWidth="827" pageHeight="1169" math="0" shadow="0">
      <root>
        <mxCell id="0" />
        <mxCell id="1" parent="0" />
        <mxCell id="T5b1u3j-7DbVB4yrpI8X-2" value="" style="shape=image;verticalLabelPosition=bottom;labelBackgroundColor=default;verticalAlign=top;aspect=fixed;imageAspect=0;image=data:image/png,iVBORw0KGgoAAAANSUhEUgAAA6gAAAHMCAYAAADYu4VNAAAABWZkRUNSJJPjAOWrYpkAAfMSSURBVHgB5cRjtCVn2oDh+3mravPY57RtxLYzM0kGydi2bdu2EYxi22bbPH2szap6n2/Vj7PWXr06mWimZ773x3Whquoyl7nMZS5zmctc5jKXucxlLnPZ/0cGwGUuc5nLXOYyl7nMZS5zmctc5rL/jwyAy1zmMpe5zGUuc5nLXOYyl7nMZf8fGQCXucxlLnOZy1zmMpe5zGUuc5nL/j8yAC5zmctc5jKXucxlLnOZy1zmMpf9f2QAXOYyl7nMZS5zmctc5jKXucxlLvv/yAC4zGUuc5nLXOYyl7nMZS5zmctc9v+RAXCZy1zmMpe5zGUuc5nLXOYyl7ns/yMD4DKXucxlLnOZy1zmMpe5zGUuc9n/RwbAZS5zmctc5jKXucxlLnOZy1zmsv+PDIDLXOYyl7nMZS5zmctc5jKXucxl/x8ZAJe5zGUuc5nLXOYyl7nMZS5zmcv+PzIALnuyKIVUAACXPZugwLVffC2nv/i1TDr709cyAAA8FQM3/oZP//la7tpcoBIDwN7ovYK3vfi1nP7i13L6i3/GXQCAy1zmMpe5zGUuc5nLXOay/y8MgMuIQ8aHRti59j6uvfFmrr36Ir7x9R/y6c99hLNf/FpOf9F5LDvu+Sw7/X38dhsAuOzZtOnPn+K9V4+ws3eExM7eArNPOII2AODJgpC7r/0nf/vJD3nDa17BwV+5E4C9ERcY6B1hZ+8IO3sLVAEAl7nMZS5zmctc5jKXucxl/18YAJfR+09e//zXcvqbvsB7P/1t3vvFP/LbS6/lb9etZVPvCDv7QwBgB6vXh+z856c4/cWv5V85/cWf4s+9AOCyx7Pp0k/x+p9sAmAShFz7uU/xs80hAE8W8X3cdDsAJE4+/CAAXOYyl7nMZS5zmctc5jKXucYAPBmwg9++/vksO+757MvBZ72TN/zwWlaPAsDedv75nSw77vnsy7LnvJbTX/MRPvyrf3LXthCAfYEd/Pb1z2fZcc9nX4580fv58J/vZGcVAJ4MpkxlFgDwRPACNu3YBMVhdvaO8K/s7B2mGgPAU8XQFbzhuOez7Ljnkzj9V5sAeDIgZGDttXz/E+/n9LPOY9lxzyex7JRXcPpbv8pv79pBJQaAfdn553ey7Ljn80SWHfdtbgEAnioI2fTPT/H6rz/CAACABwAJ4k18//Uf4furCgA8Gax6mFtiAIAFHHNAAIDLXOYyl7nMZS5zmctc5jLXGIBnQ2V0B3dd8EPOe/5b+NIDBQCeLCZG2Ll5LZf/9je84ZXnceSbfsYtowDwVIz3b+Lyn3yV01/8Kf62DQD+FZjKyoObmNI1m5OfezIvOLgTgASzzuYPf/8D917/dx65/gL++eoFAPy7DdxyE3cBAImdf72WhwCAJ8LofXzjNS/nhDf9kJ/dsomdoyEACaoFdq66k2986J0c/OJP8efNIQD/ScQj3PLdd3L2tx5hAACAPGd+4dfc/oVjaQMAiDfxs3e8gw9fsYcKAPBEHrr+ZsYBAJYdAX9+Lae/+LXs7fR3X8BqAADu4MMvfi2nv/i17O30F/+MuwAAl7nMZS5zmctc5jKXucxl/0sMwFMFC3j1Z9/Ltz/7XhLfft8ZHNYOAMR7+PP7v821JQDYlxUvfS/f/ux7SXz1LWfwgucexIrGAIDE+NoreNuL3s9vtwHAvsACXv3Z9/Ltz76XxFffcjizUwDA0CN8+rMXsRMAeCIwlZd+89dcef43+fYH385nX7gAgAReHW0tedIeAOyNutmc/NyTecFzTybxgucuYwoA8HTBCNdcsxaASUzczGUPAMDjYds/ecWLvsBvN4cAQED94oN4wXNPJnHy4jxpAID+R/jS6z/Cb7cBwONZ8dL38u3Pvpe9ffuzZ7IIAHiy6L+TT7/mtbztb3sASOA18YIv/5SvHtlE/THv5ZcfXEYbAEA8wuVfeQunf/SfbKoCwL7AJm6+vQBAYsUpx9E+MsLO3hH2trM/BCABIeO9I+zsHWFvO3sLVAEAl7nMZS5zmctc5jKXucxl/0sMwFMFnRx2/LGcfPyxJE4++0384jcf5swWACC+j79cNwLAvkxZfiwnH38siTNf+iY++8FP8IeLL+D2H7ycY9oBgOomvvHun/FQDAB7g04OO/5YTj7+WBJnvvTD/POXL2IRAMCGO7i2FwD+Xeg6gg988O189oNvJ/HZD57JCgDg6WLDZfz2EQCYfdgypgBQ4NIbHgFgX4g38f2P/IaHqgDA9GP59p/+yO0//gSf/eDbSXz7x3/g3os/x5uWBQAQb+Ib7/42t5QAYF+mLD+Wk48/lr2dfPwC2gCAf4V4hIf+/ClOePFX+ds2AEiQms2bfvADPntkHoDE7Od+jgs/dThtHgAkBm7/DWc/55186cY9VACAWqy9mct6AQAW8JwjmwBwmctc5jKXucxlLnOZy1zmIgPwbKDucN78wqkAJO5avRGAp6J+2Yv40W8+zJktAMDQFXz90hEAngymH8dz5gIAVCEGgCey85+f4vQXv5ZJp3/lDgASbL6AV7z4tZz+4teSOP2H9wHw77T65lvYCUATJ7/mXI6tA4DxS6/llhgA9jZw6c/42U4AoOVYfvTj93LylACAWjQu453f/QpvmgIADN3MF/+8CYB/h/FHLuJtL34tr/jJIwzEAJBg+hn86KJv8s7FeQBqtZ30YS7+wYtYkQKABNUd/PnTb+HgF32K79+1hwoAkHjoymvZCQBAJ1Pb4dB3/5ob/v5rJt3wqcNJAwB7Y/rZ/OLvv+aGv/+aSTf8/U0cCgC4zGUuc5nLXOYyl7nMZS77X2IAni1pDwCeCeoO5xPvOAiAxEMXX8tOAODJqMQAAHnqswDwRCgOs7N3hEk7R0MAEsQhA70j7OwdIbFzJATg3wU2ce1VewCg6zhOXryM55yaB4D4Zv52SwhALdjEn89fC0Di5He/g2PqAGBf8GbzpnccSz0AsPOqm1kNADxbYBO/fet5HPmOP3JLPwDUYtsVvO2s57PsuOezL0e+9SIeqgJALfof4WcfegsHv/KPrAaIH+GyqwsA1ErXNdHW0sSkjQ89QgWgLk89ADCJbXdy91ATbS1NTGpryZMGAFzmMpe5zGUuc5nLXOYyl/0vMQDPlh27hwFIHLZoDgBPR/2Rh3MyAMCGNTxUAoB/hW03ce1mAOCA4zi2BQD+V/DAFfy5FwCmnHYsi4AVp5/MFADg2mtvogIATKL3EW7ZCQDUncxLjgkAeCLpw47gGA8A6H2Eu3sB4NkCs3nByw6iHgBI0JKnDQB4KiAgnQKABOR5wTvOYxFQueWf/HkCAB4PE9fyl0sLAEw5eCFTAQBYwIplAHv42e9vpgIAuMxlLnOZy1zmMpe5zGUu+19mAJ4NbLuIb15aAADvIF5wfBMATwfZhSyaBQCwh/4hAHg8xCEDD1zE2959EasBUrP5wPvOoA0AeCJtR72Gb3/2vSS+/dkXcUwWABJ0Hc7HPvtevv3Z95L49osWAvDvctcNdzAOQCfPOXY2ACw4ludMAQBuuZbLhgBgEps2sRoA4IAFrPQA4IngzWLxXACATazaBADPpvpj3sFXT80DAbPPfi9Xnv8ODgUAngo4gm9f9hO+ffZU6j1Y9Jav8NnDAmAHf/n9fQA8kdV/vohrY4AmnnPsQgAS0MlzTlkAADf+iZ+tBQCXucxlLnOZy1zmMpe5zGX/ywzAUwV7uOvGm7n2xptJXP7nr3L26//I6hggz5lfeC9n1gHA05X2AAB2sGorANSCm3nbcc9n2XHPZ9mJ53HCe/7ILUPQduTL+cNF3+TV0wHgX0lPP4iTjz+WxDGpPh4sAUCCujkce/yxnHz8sSROXtAEwL8D8Z387dICAEw5hpPnAgDM5uSTOwGAtfztlhEAJg0M7QEgQbaONADwRKCT2TMA4Ilc/tHns+y457O38/68A4AnAnmOed9XuOBPf+Sf7zuWKanD+epNf+eRm/7OU/HITe/lmFQnJ7/v+9x+2QX8/qVTAWDV5fxmAwA8Hiau5Wd/3gMAU07m5IUAMGnqkUewAoA9/Oyb/2QnAOAyl7nMZS5zmctc5jKXuex/lQF4qmAtv/30t3nvp79N4sM/uZNNVUhPOYgP/PinfPXIPADPBmhiaisAPBkDt/+Rt37wh1y7MwTgySLexM9+cDPjAEACKqy+9Gf8eXMIwL9T5ZZruTwGgEXPO45FAEBi0bHHMAUAeOiamxgAABKV8QIA/43ITmXRlACAZwPZgDQAQEsn7QDAvkDILd/9DdfGADDl5CNYBABMov1MXnM8ALD2N7z3zzsAcJnLXOYyl7nMZS5zmctc9r/KADwbSE3lJe9+B69enAfgmYBhdvYCALTQ0AgAtWABr/7se/n2Z99L4tsffzkvOKAJgPG11/LeV36E324DgCdj519/yM92AsAkNl/Ee79+BV96/Zv48HV7APh3gJDrrr0PAFjA80+eCsAk5h7HS+cCAI9cwZ83AEBiyozZACQoTVABAJ4I7GHTVgCAPI31ALC3FS99L9/+7HvZ2/uP6gTgyYA7+fBxz2fZcc/nmVh23Le5BQBI0DWblXWABwB7G7/9B3zq6gIAeAt40/NmA1ALAk4+52TqAYDVP/kqP9sGAC5zmctc5jKXucxlLnOZy/4XGYCnCo7lRzf9nUduuoDbf/N2Tm4Bqjv47YfewYdvLwDwTLBzLQ9OAAB1C1jZBQC1oJPDjj+Wk48/lsTJp76Iz37n1/zzjVMBIN7EN772TwYAgCfCtot47082AVCLGACIR7j8c+/kFb9aywAA8Gxi6Fr+dgsAwFq+9KLns+y45zNp2XHv5BsbAAD2cNnNmwBI0NrMFACABzaxBgB4IsSbWbUBAGAqC6cAwN6mLD+Wk48/lr0dNj0AYH+CaSycB4ve8nLOBAAmMXEnX/j6zQwAAG1nv5wXtAPA3jjg5bxzGQDADr7/7m9z7SgAuMxlLnOZy1zmMpe5zGUu+19jAJ4uCKifdTLf/tmbOMwDKHD5Jz7Fb3cCwNO1+vJrWQ0A1J90BCsAgCdj9plnchgAwCObWA0APB7iHfzss39kdQwAU6Z0ApCgawHHTAcACHnokst5cAIAnk0Dt9zEXQDAk7HzqptZDQCw4CCOrQMAJm7mT7eHADyRyl13cEsMAMw9mMNaAOB/CTTRfuTL+coLpwIwiXgHv33fV7l8CADwFvDOly0DYF+giZe++QzaAACGbua9r/k2t0wAgMtc5jKXucxlLnOZy1zmsv8lBuCZov0MvvK+BQAQb+Ibn/0nOwGAp6qy+Y98+g97AMBbwAdeuQyAfwcIufaL7+T7GwAA7yA+8PoFACSoO5iP//hzvHQ64M3mA999LyfXAcCzBXZw2cVrAYBOXvC+9/Ltz76XvX37s2/iBVMAgN5r+fsjAADLeP4LOwGAApd//QfcMgEA+0L8CN/8+s2MAwCHPf9kpgAA/24wlTf94Nfc8Pdf82Tc8IOzmQ0A7Msx572I2R4AJGCYS7/yEb6xFgASi173Dl7QDgCPh2Uv54PHAECCoZt52zsuYhMA4DKXucxlLnOZy1zmMpe57H+FAXg2tD33HXxgAQCw9jd8+tIRAJ4sCNl547c57/UXsRoAWPTGd/CCdgB4sjZdfjl3AQDMncZsAGBfIGDligUAJA573zs4OQsAk6hbxsd+/Dm+/c3P8erpADCJiY3cfOPNXHvjzSSuvXENOwGAJ4sNN/HnDQDAlGN4ydnHcvLxx7K3k48/gzc9byoAUODSax4BILHopW/kBS0AwNDNvO2tP+OWUQCoxegjfP+tn+LPQwDA3BfxsTOaAPhPaWhpoq2liSejraWONADwZMAm7r63AECCujxj//gkp7/4tSROf/cFrAYA4A4+/OLXcvqLX8vpL34H33s4AA8AIM8L3no2swEAl7nMZS5zmctc5jKXucxl/ysMwLMBpvLq95/NFADgrm99hb/1A8Dedj58M9feeDOJa//5Rz79uY9w9nPO4/RP38ymGCBgxau/wi9fOhWAfYE93HXjzVx7480krr3xn3zjPa/l7J/vAADynPn6M5gCADyetmOO4zCABS/nY2c0AbA36pZx8gF5AGrReydf+vS3ee+nv03ivZ/+Jw8BAE/W6huuZScAMOXkI1gEAOzLlJNPZgUAMH7ptdwSAwDZg/jsd1/OIg8A2HYFbzvrPE5//1f59Nd/SOK9b30FB5/1KX62FgBoWcZnP/1yZnsA8P8BHMQ7P3gsbQDebD7wkTNo6B9hZ+8IiZ39IQAJCBnvHWFn7wiJnaNH8NkvHEsbUH/SO/jAYQEALnOZy1zmMpe5zGUuc5nL/pcYgGcLC17DV1+QB4B4LZ/+7rWMAwC1Hvrzt3nvp79N4r3fuoi/XbeWTRMAQPsyPvCDn/GH1y2gHgDYF1jLbz/9bd776W+TeO+nf8NvHxgBAPIc88Gv8NUj8wA8EVqO4MzDZvOBT7yI2R4A/KfAI/z9HyMAQCfPOXY2AI+H9uN4zjIAIL6Zv90SApBg+ov4/S9fwzHtAAAhO++9k79dei2Ja1cVqAAA6Vln8KPffI4XTAeA/0/aj3wTHz8pz8kf/xyvnp0G4MlqP/K9/PLtZ/CBtx5OPQDgMpe5zGUuc5nLXOYyl7nsf4kBeDateNM7OLMOALjlN3zhlgIAT6S+vYkVx7yIj33n+9x7/ud49bImAJ6q+vapHHbe27ng77/mR8+dCsC/Ak085wtf4dXTAeCpwAto62piSlcTiSldedIAwJPBAzdz6QQAMOUYTp4LAI8HmjjllAUAJK694Q4qAEAiPetsfnT+Bfzzay/nBQdPpa0OABLpxiZWHPMiPvuzX3Pbb97EMY0A8J8EO/jpu1/L6S9+LU/G6e++gNUAwJMFeU7++B/49kl56DqbX/7919zw91+TuOEHZzMbAICD+Orff80Nf/81iRv+/iYOBWaf9yZe0A4ALnOZy1zmMpe5zGUuc5nL/tcYgCcDpvLqX/6dR276O4/c9F6OAQD2RvZwvnrZ33nkpr/zyE1/4KvH5AGY8tLv88hNf2dfbr/o1/zhCy/npQdMJe0BwL7AVF79y7/zyE1/Z19uv+j7/OLtJ7OoJQDgyUqnAgCeKmadxx/O/zVXnv9rElee/w5OAgCeDA54O7ff9HceuenvPPKnl7MIAHgibWd/hUdu+juJRz57LGkAYBJewOzDXsRnv/l9brjs7zxy099J3Hvxr/nDF17OCxY0kQYA9mXKS7/PIzf9ncRXjwSAZ9N4/wg7e0d4Mnb2hwA8VXgAgBdQ39JEW0sTibaWOtIAAOSpb2miraWJRFtLnjQA4DKXucxlLnOZy1zmMpe57H+VAXCZy1zmMpe5zGUuc5nLXOYyl7ns/yMD4LKnaso5X+GGv/+axA3fOpspAEACDuerN/2dR276O4/c9H1ePQUAXFYLpvKmH/yaG/7+a56MG35wNrMBAJe5zGUuc5nLXOYyl7nMZS57sgyAy/bGwW/ihr//msQN3zqbKQDAJLJ52lqaSLQ1BgC47F+Bhbzms+/l2599L9/+7Gt4ztwm2lqaeDLa5p7Mxz77Xr792ffy7c+eySIAoBYcxCf+/mtu+PuvueHvb+JQAGBf6DqbX/7919zw919zw9/fxKEAgMtc5jKXucxlLnOZy1zmsv8vDIDL9kYqT1tLE4m2xgAAlz1T0MSi44/l5OOP5eTjD2J2FgCeDLJTOez4Yzn5+GM5+fgFtAEAtSCgvqWJtpYm2lrypAGAfcELqG9poq2libaWPGkAwGUuc5nLXOYyl7nMZS5z2f8XBsBlLnOZy1zmMpe5zGUuc5nLXOay/48MgMtc5jKXucxlLnOZy1zmMpe5zGX/HxkAl7nMZS5zmctc5jKXucxlLnOZy/4/MgAuc5nLXOYyl7nMZS5zmctc5jKX/X9kAFzmMpe5zGUuc5nLXOYyl7nMZS77/8gAuMxlLnOZy1zmMpe5zGUuc5nLXPb/kQH4V/oHR3CZy1zmMpe5zGUuc5nLXOYyl7nsfwVAwgD8K+2tTbjMZS5zmctc5jKXucxlLnOZy1z2vwIgYQBc5jKXucxlLnOZy1zmMpe5zGUu+//IALjMZS5zmctc5jKXucxlLnOZy1z2/5EBcJnLXOYyl7nMZS5zmctc5jKXuez/IwPgMpe5zGUuc5nLXOYyl7nMZS5z2f9HBsBlLnOZy1zmMpe5zGUuc5nLXOay/48MgMtc5jKXucxlLnOZy1zmMpe5zGX/HxkAl7nMZS5zmctc5jKXucxlLnOZy/4/MgAuc5nLXOYyl7nMZS5zmctc5jKX/X9kAFzmMpe5zGUuc5nLXOYyl7nMZS77/8gAuMxlLnOZy1zmMpe5zGUuc5nLXPb/kQFwmctc5jKXucxlLnOZy1zmMpe57P8jA+Ayl7nMZS5zmctc5jKXucxlLnPZ/0cGwGUuc5nLXOYyl7nMZS5zmctc5rL/jwyAy1zmMpe5zGUuc5nLXOYyl7nMZf8fGQCXucxlLnOZy1zmMpe5zGUuc5nL/j8yAC5zmctc5jKXucxlLnOZy1zmMpf9f2QAXOYyl7nMZS5zmctc5jKXucxlLvv/yAC4zGUuc5nLXOYyl7nMZS5zmctc9v+RAXCZy1zmMpe5zGUuc5nLXOYyl7ns/yMD4DKXucxlLnOZy1zmMpe5zGUuc9n/RwbAZS5zmctc5jKXucxlLnOZy1zmsv+PDIDLXOYyl7nMZS5zmctc5jKXucxl/x8ZAJe5zGUuc5nLXOYyl7nMZS5zmcv+PzIALnOZy1zmMpe5zGUuc5nLXOYyl/1/ZABc5jKXucxlLnOZy1zmMpe5zGUu+//IALjMZS5zmctc5jKXucxlLnOZy1z2/5EBcJnLXOYyl7nMZS5zmctc5jKXuez/IwOwP93yxeez7Ljn8+HbAWBfbvni81l23Le5BQBw1S1ffD7Ljvs2twAALnumuP3bLDvunfx2JwDsbeef38my477NLQDAf8rOP7+TZcd9m1sAgEnc/m2WHfdOfrsTAFzmMpf9L9v553ey7Lh38tudAOAyl7nMZS5zmcueDQZgf2HnRXz/alj0lu/z1SMBYG/svIjvXw2L3nIuxwAA/x/BnXz4uOez7It3AuCyvd3yxeez7Lh38tudALC3W774fJYd905+uxMA9gXu5MPHfZtbAIC9cfu3WfbFOwGAHVx77Q449QiOAQAez84/v5Nlx32bWwCA/0ZwJx8+7vkse/1F7AQAnirYwW9f/05+uxMAnsgtX3w+y15/ETsBgKfrli8+n2XHfZtbAIAnY+ef38my477NLQDA3th5Eecd93w+fDsA7C+3fPH5LHv9RewEAP5b7PzzO1l23Le5BQDYGzsv4rzjns+HbweA/eGWLz6fZce9k9/uBIC93fLF57PsuHfy250A8GTs/PM7WXbct7kFAHi2cexxnMkOvvGpi9gJAOwPO//8TpYd921uAQCeqVu++HyWvf4idgIAzwTs4Levfz7LXn8ROwEAl7nMZS5zmcsejwF4suBOPnzc81l23PN5qs778w4Aat3ymz+yGlj9k3ey7Ljns7dlr7+I3/7mj6wGVv/knSw77vnsbdkX7wTAZf+fcfu3edvVcOaXv8+rpwBALbiTS6+GRW/5MK+eAgD7ws6pLD71Zt72+ovYCQBM4vZvs+yjN3Pm7KnsBGAHqzbAotlTAXgquP3bLDvu+TxZH74dAP6ddv75j1zOVD7wuRcxBQB4qth5J5dt2ME3PnUROwGAfyfYwewTXs4ibuZtr7+InQDA/wdwJ5deDcyeyhR28NvXP59lxz2ff2XZF+8EoBbcyYePez7Ljns+T9ay497Jb3cCwL8L3MmHj3s+y457Pns77887YOdFnHfc81l23PN5Ih++HQAmcfu3edvVcOaXv8+rpwBALbiTS6+GRW/5MK+eAgBPB7d/m2XHPZ8n48O37+C3r38+y457Po/n9Jf9kcsBNvyR0497PsuOez77suz1F7GTHfz29c9n2XHP55ladty3uQUASGzatAPmTmM2AJBg50Wcd9zzWXbc8/lXzvvzDgAeD7d/m2XHPZ8nY9kX7wTg8cAOfvv657PsuOfzZC374p0AuMxlLnOZy/4/MwBP1aK3fJ9Hbvo7T8YjN32YMwGAWtz+bd52NSx6y/d55E8vZxHH8qOb/s4jN/2dSY98Di67eiof+NPfeeTLxwLH8qOb/s4jN/2dSY98/HAA9gV28NvXP59lxz2fWsue81pe8cV/8tAEAEyCHfz29c9n2XHPp9ayU17B6a/5CJ/+853srAJALdjBb1//fJYd93xqHfmi9/OlG/dQAQD+neBOPnzct7kFAHgyIOTyTzyfZcc9nw/fDgBPpLLzTn779Y9w9lnnsey455M4+Kx38oYf3symEgDUgh389vXPZ9lxz2dfPnw7AOwLt3+bZcc9n2UfvRmAyz/6fJYd93wSy477NrcAANx+B5cDq3/yTpYd93z2dt6fdwDAlKm8+uMf5swNN3HtTgBIwA5++8ubOfPLf+erL53KFIDb7+BypvKcY6cC8FTBVD7wp7/zyE1/5/E88uVjAXgicCcfPu75LDvu+Sz76M3ADr7xsuez7Ljn83iWHfdtbgEAEuy8iPf+ZAewg2+87PksO+75PBXLjvs2twBMeREX/OnlLNrwR9775x0A7PzzO1l23PPZ29uuBjb8kdOPez7Ljns+tZYd921uAQDYeRHnHfd8lh33fPa27Lh3cvpH/8hqgA1/5PTjns+y457P3pYd921uAQD+V+z88x+5nKl84DWHA5Dg1A/zyE1/Z18euen7fGAuADyeRW/5Po/c9Hf+lUe+fCwA/ymL3vJ9Hrnp7yQeuenDnAkAMOVFXHDT33nkpu/zgbnAqR/mkZv+zqRHvnwsMJXFMwCA27/NsuOez7KP3gzA5R99PsuOez6JZcd9m1sAAG6/g8uB1T95J8uOez57O+/POwCAHfz29c9n2RfvBGBvHPleHrnp70x65MvHAnDml//OIzf9nVpfPXIqr/7l33nkpr/zeH50KsBUPvCnv/PITX/n8Tzyyxcxham8+pd/55Gb/s4TufItUwFY9Jbv88hNf2dfHrnpvRwDAMAONm0CZk9lCgCQYMqLuOCmv/PITX9nXx758rEAwLG886VTAXgiMJUP/OnvPHLT30n86FRg7su58qa/88hNf+eRm77PB+YCwJPB3Jdz5U1/55Gb/s7jeeSm7/OBuQDgMpe5zGUu+//OAPynwZ18+KM3w9yX8+2XTmXnVpg192be9vqL2Amw8yLOO+75LHvZH1l96st59RTYOWMaZ3Izb3v9RewEAJ4sug7nY599L9/+7Hv56lvO4MyFadZc/Rte8cpvc0sJAGrRdTgf++x7+fZn38tX33IGLzh1IW0Tm/jbT77K6ae/hS/dNQLA3ug6nI999r18+7Nv5wPnHc7i1Hb+/Om38MoLdgDw7wI7+O3rv8rl3Mz3/7wDgCeD/sv50y2zWbEMLr/qZioAwL5suvRTnP6yr/KNKzaRXn4cb3rfe/nYq0/mpHkhD17wbc4+6/18f1UBgL3RdTgf++x7+fZn30ut18wDgMcDU/nAn/7OIzf9nUlXvmUqAAnYwW9/eTNnfvnvPHLT36n1yJePBWDWjKkAJOBwvnrT93n1FABIwFRe/cu/89UjASBxyw03Azv4xsuez7Ljnk+tZcd9m1sAgH8XuJm3Hfd8Pnz74Xz1pr/zyE1/50enAnNfzpU3/Z1Hbvo7j+eRm97LMQAA7OC3n/ojq+e+nCtv+juP3PR3nqpHbnovxwAATHkR337LVFb/5Kv8didMeen3eeSmv7O3H50KzH05V970dx656e/UeuSm93IMADDpzC//nUdu+jtPxyM3vZdjAIBJcDNvO+6d/HYncPu3WXbc85m07GV/ZDVw+Uefz7Ljns+kZcd9m1sAgH8n2MG11+6AU1/Oq6cAwH8buJm3HfdOfrsTuP3bLDvu+Uxa9rI/shq4/KPPZ9lxz2fSsuO+zS0AwFMBO1i1ARbNngrAE4GpfOBPf+eRm/7OpCvfMhWABOzgt7+8mTO//Hceuenv1Hrky8cCMGvGVAD2BW7mbcc9n2XHPZ9lX7wTgEk7t24CjuW5RwLA3uBOPvz6i9gJANTa+ed38rarYdFbXs7JAMDe2HkR533xTgCeDLiT7/1kB8x9Od9+6VQA/hXYwaoNsGj2VACejJ1/fifLPnozcCw/uum9HAMAPJvgTj583PNZdtw7+cYGYMMfOf2457Psi3cC4DKXucxlLnPZvhiA/7Sdf/4jl899OVf+8kVMAaYc+SK++ssPc+aGm7h2JzDlcJ4zF5j7cq78+OEATJnyIr765WOB7WzaCQBPFnVzOPb4Yzn5+GM586Vv4qvf/Ak3fOFw6odu5vuX7AGgFnVzOPb4Yzn5+GM586Vv4rMf/AR/uOgC7v392zm5cQ9//tBH+P5aAKhF3RyOPf5YTj7+ZF799g/zi99/i3fOhdW/vZyHAIBnG+zgt69/J9/YMJUP/OnvXPDSqQA8GasvuYKH5h7B5152LNx4OX/rB4C9jd/+bV7/9UfgsNfwzysv4IIvvJ13nn0sL33d2/nqN3/CvRd/mBc0buJn7/gUv90JALWom8Oxxx/LyccfS61F7QDwdO3881f5Bi/nXUcCwOOBHfz29c9n2XHPZ9Kyj94M7OAbL3s+y457Pollx32bW7iTS6+GM7/8dx656e9M+tGpwNyXc+VN7+UY7uTDxz2fZcc9n9N/sgO4mbcd93yWHfdtbgEAnqqdf34ny15/EZsAOJYf/enlbP7o8znvzzuAHWzaBMyeyhQAgNu/zbLj3slvdwLAvuz881f5xgZgwx85/bjns+y45/NkLTvu29wCANSa8tKXcyYA8O/A7d9m2XHv5Lc7AaAWt3+bZcc9nw/fDgC1dv75nSx7/UVsAuBYzjx1B9942be55cj38shNf2fSI396OYuYygf+9HceuenvJK58y1QA/hO4/UK+sWEqH3jN4QA8W1b/5J0sO+75/CvLPnozAHvb+ed3suz1F7EJgGM589QdfONl3+aWI9/LIzf9nUmP/OnlLGIqH/jT33nkpr+TuPItUwF4Om754le5nGN550unAjBp59ZNwGxmTwGAJ2Pnn7/KN3g57zoSAJ4qOJYf3fR3Hrnp7zzy8cMBSMAOrr12B8ydxmwAYG/s3MHmDX/k9NdfxE4AIMHt3+b0n+xg0Vu+zwUvPZwpU+CWLz6fZV+8E4AEOy/ivJf9kdVX/5Hf7gSAf+WWL36Vy5nKBz73IqYAAI+H27/NsuOez7LjvsrlwOqfvJNlxz2fxLLj3slvdwLA3m754vM5/Sc7YO7LufKm93IMAAB38uHjns+y457P264GNvyR0497PsuO+za3AABPBRzOV2/6O4/c9H0+MBeY+3KuvOnvPPLxwwFgwx85/bjns+y45/N4lh33Tr6xAQBc5jKXucxl/98ZgP+0KS/9Po/88kVMAQAScDhfven7vHoKwFRe/fpjYcMf+d7tAJDgyPfyyC/fyzFTAOCZqD/mOI4BVq/fDMCTkZ5+Mt/+2Zs4zNvDz77/TwYAgMeDN5VFs4GJAmMAwLMJdvDb17+Tb2w4lh/d9H1ePQUAngzYxLXX7mHRyYcz+7AjONNby2W3jwBQi/gRvv/FmxmY+yJ++eWzmZ0CgFo0Hs5nf/wmDmMT3/jZzVQAgH8nuJPv/WQHi04+nCkAwOOBqbz6l3/nkZv+TuKRLx8LAEzlA3/6O4/c9HcSj9z0Xmb/+Y9cDmzeugOABOxg0yZg9lSmAHA4X73p7zxy09+58i1TgWP50U1/55Gb3ssxAOzgGy97PsuOez6PZ9lHbwZg0qZNO2D2VGYDAEx5Ed9+y7E859ipsPNOLtsAZ55wOABPxs4/v5PTfzKbH335WADO/PLfeeSmv/NkXPmWqQDsCxzOV2/6Pq+eAgA7//xOlh33fGq97Wpgwx85/bjns+y45zNp2esvYicAUIsbvs2y455PYtlHbwZ28I2XPZ9lxz2fWss+ejMAl3/0+Sw77vkklr3+InYCALWe+/EPcyY387bXX8ROACDB1u2sBgD+02AHv/3lzTD3OE6eAgDPlkVv+T6P3PR3/pVHvnwsAP/Kcz/+Yc7kZt72+ovYCQAk2Lqd1QDAM3XLF5/P266eygf+9F6OYQe/ff3zWXbc80mc/pMdnPnl93IMAPCvwJ187yc7WHTy4UwBAJ6pnX9+J8uOez7Ljnsn39gAbPgjpx/3fJYd93wmffh2AGDKi7jgpg9z5oY/cvrrL2InwO3fZtlHb2bRW77PBS+dCsDOP7+Tt10NZ86eyk6A27/Nspf9kdUcy49u+j6vngIAT2Tnn9/J266GRW/5MK+eAgBPhCPfyyM3/Z1HvnwscCw/uunvPHLT33nky8cCsC/c/m3edjVw6od55JcvYgoAkIDD+epNf+eRm/7Oj04F5r6cK2/6O4/c9F6OAQCeTcx9OVfe9HceuenvPJ5Hbvo+H5gLAHu75YvPZ9lxz2fZF+8EwGUuc5nLXPa/zgA8Vat/8k6WHfd8noxlx32VywGASbCD377++Sw77vk8nmUfvRmAyz/6fJYd93z2ZdnrL2InAPBUEQPAlI4OAJ4s2s/gjc/NwyN3cPMQADweGGHHbuCAhSwCAP4Vrv4qy457PrWWHfdOfrsTACbBDn77+nfyDV7OlTe9l2MAgCeLB67gzzsX8PyTp4J3OC94bp6Hzr+M1QDApMot/+TPE3DyK89jtgcA+0L7GbzxuXm48WauKwHAvxO338HlHMs7Z1zIeX/eAcCTsfPP72TZR29m0dypwA6+8bLns+yLdwIAd/K9n+wAYPWmHQAkYAerNsCi2VMB+FdgKh/409955Ka/M+nKt0wFjuVHN/2dR276O498+VgAErCDTZtg0eypAEya8tL38uopwNbtrGYqi2cAwL8Cd/K9n8AH/vRejgEALv/o81l23PN5Mk7/yQ4Aniw4lh/d9HceuenvJH50KjD35Vx509955Ka/k/jRqQCwL5zwXh656e8kHvnyscBUPvCnv/PITX+n1iNfPhaAM7/8dx656e8kHvnli5gCbNq0A2ZPZTYAAIfz1S8fy5mvfxFTAID9beefv8o3NgDA3rj6qyw77vnsy7Lj3sk3NgDAv8umTTtg9lRmAwBwOF/98rGc+foXMQUAeDpW/+SdLDvu+SSWHfdVLgdgB799/fN529XH8qObvs+rpwBM5dW//DuP3PR3Jn31SAB4Mrj9Di7nWN4540LO+/MOAJ4NcCw/uunvPHLT36n1yJ9eziIAYBIczldv+jBnbriJa3fu4Le/vBmA1T95J8uOez6J038CH/jT3/nqS6cyBbhl6yYWzX05V970Xo4BAJ4IOy/ivT/ZAcDqn7yTD98OAE/GLTfcDHOnMRsA2Ll1EzCb2VMAYG8wlQ+85nAA/tvBVF79y7/zyMcPB8BlLnOZy1z2/5kBeKoWveX7PHLT39nbIzd9nw/MBU79MI/c9HcSj9z0Yc4EAPbGqR/mkZv+ztPxo1MB4OnadMGFXE4nzzlhNgBPxWGHHwSs5a41ALAvlHZwyw8/z5dWzeYD7zuDNgDgX+HUD/PITX+n1iM3fZ9XTwGABNzJh497J5ed/H0e+eWLmAIAPBW3XH4t48uO4JR2ADjshCOo33kFf38EACateWgNcDjPOSYA4Ikcdsgy4D7uehgA/p048r08ctN74YabWf2Tr/LbnQDweOBOPnzc8zn9J/CBP/2dC14/G5jKB/70Yc68+qsse/1F7Lz9Di7nWD7wlqmwaQc7AQB27mAzMGvGVACeDRz5Xh656e989Uhg551ctmEqzzl2KgB7u+WGm2EuXPayb3MLALBz6yZgNrOnAEBi55/fyYdvBzicr970fV49BQASZ3757zxy0995Mq58y1QAJsGdfPi457PsuOeTWPb6i9gJAPw3gB1s2gSLZk8FYBJHvpevHgkA+xs7L+K9P9kBwL5w6od55Ka/sy+P3PR9PjAXAB7P6p+8k2XHPZ9/ZdlHbwagFuxg0yZYNHsqAJM48r189UgAeLoWveX7PHLT30k8ctOHOROAqbz6l3/nyrds4m3HPZ9lxz2fx/Ph2wHgX+HI9/LITe+FG25m9U++ym93AsC+sPMizjvunXxjA3D1V1l23PM5/Sc7gJt523HPZ9lxz2fZ6y9iEwCQgB389vXPZ9kX7wTg8cDhfPWm7/PqKVN59S//ziM3/Z3ElW+ZCkzlA396Oate9m1uAQBmA5x8OFMAgCcCd/Lhl/2R1XNfzo/eMhWABLd/m2XHfZtbAIB9gR1s2gTMnsoUAODfBXbwjZc9n2XHPZ/E264GNvyR0497PsuOez7Ljnsn39gAAE8Gs+Ha1z+fZcc9n39l2RfvBKDWMR//O4/c9Hce+fjhALjMZS5zmcv+1xmAJ4udO9gMzJoxFYC9wVRe/fpj4eqv8uHbAQAO56s3/Z0LXjoVgARM5dW//DuPfPxwbvni81l23PN5sj58OwAc8/G/88gvX8QUAOCJMLGRm2+8mWtvvJnL//wz3vum8zj750Oc+anP8s65APBUMLWD2QBALTb8kdOPez7Ljns+y05/J2+7IeAD3/0cr54OAM8GuJm3HfdHFv/p71zw0qkAPFWUbuZv18GKU46jDQBg+bE8t67Apdc8AsCksYkCzJrKbA8AnggdnUwByjEATGLDHzn9uOez7LjnM2nZ6y9iJwDwTBzz8e/zgbk7+ManLmInADAJprJ4BrDzIs477qtsfsv3eeSm7/PqKQCQgMP56k3f5wP8kfduPZdHbnovr54xGzZsZxMAwNbtrGYqi2cAwL5s+vM7Wfb6i9gJwA6+8bLns+y45zPp9J/sAG7mbcc9n2XHPZ9aH976Ii646fu8egoA1II7ufRqOPP13+edp97M2754JwAJ2MSmnQDA7d/m9J/s4PIb7gTg2QSH89Wb/s4jN32fD8wFgH8n2ME3XvZ8lh33fGot++jNAOwNdrBqA8yaMRWA/zawg99+6o+sPvXD/OhUAHi2LXrL93nkpr/zrzzy5WMBqAU7WLUBZs2YCsB/EhzLj276O4/c9HdqPfLlYwF4qo75+Pf5wNwdfONTF7ETAJgEU1k8A5jyIi646e88ctPfeTyP/PJFzAYAniq4kw8f921uAQBu+eLzOf0ns/nRTd/n1VMO57mn3szbvngnsINrr93B6p+8k2Wvv4idAMC+wA5++/qvcjnH8qNfvojZAEBi54xzufItm3jbcc/nw7cDwN5gB6s2wJknHA5AYtOmHTAXLn3981l23POpteyjNwM7+MbLns+y455PrQ/fDgCTYDvfe/3zWXbct7kFgKl84E9/55Gb/s6+PHLT9/nAXADYFzb8kdOPez7n/XkHADCVV//y7zxy09955KYPcybAqR/mkZv+ziM3fZgzOZYf3fR3Hrnp7zzy8cMBcJnLXOYyl/1/ZgCeLLZuZzVTWTwDAPaFI9/LlW+ZyuUf/Ta3AAD/CnNfzpU3/Z1Hbvo7j+eRP72cRQDAU0XvnXzp09/mvZ/+Nh/+yRXcUjqZH138a756UicATxWjBfoBgFp0Hc7HPvtevv3Z9/LVt5zBmTNG+P47XsEJn7uZAQDgmYJj+dFN3+fVUwDg6Ri47nKujRfwnCObAEjgLeM5p+YZv/SfXFsCgGcLXYfzsc++l29/9r1M+vZbD6cNAHg8sINvvOz5LDvu+Uw6/Sc7AJgEU3n164+FDX/ke7cDwN6Y8iIuuOnvXPDSqQDc8sXns+yj8KObvs+rpwBM5dW//DsXvHQqAMyYxiI2sWknAOzcugnmHsfJUwBg0s4/v5PTf7IDuJnL+DCP/PJFTAHgWH5009955Ka/M+nKt0wFjuVHN/2dR276O7W+eiQA7Au338Hlc1/Ou46EY17zchZd/VU+fDts2rQD2MGqrcDOizjvozez6C3f55GPHw7A3i7/6PNZdtzzeTJO/8kOAJ4suJm3Hfd8lh33fBJvuxrY8EdOP+75LDvu+STedjUAPBkwlQ/86e88ctPfqfXIl48FYG/s3MFmprJ4BgD8t2HnnVzGy7ny44cD8GyCw/nqTX/ngpdOBeBf4cj38shN3+fVUwAgwc4dbGYqi2cAwH8r2ME3XvZ8lh33fCad/pMdAEyCqbz69cfChj/yvdsB4Mm45YvPZ9nrL2InAPB0wA5++/rns+y4r3L53E1s+vNFnHfc83kbH+aRm97LMQDAMSccC1d/lQ/fPpVX//LvXPmWqbDhj5x+3Le5BQCoBTv47evfyTc2HMuPbnovxwAAk6ZMmcqUl36fR/70cjZ/9Pkse/1F7AQAJnH7HVzOVBbPAAC4k0uvhkUnn8tXf/l3Hrnp79R65MvHAlP5wJ/+ziM3/Z1aXz0SYAe/ff3zedvVwIZNLP7c33nkpvdyDADwRGAqr/7l33nk44cDkIAd/Pb17+QbGwCm8oE//Z0LXjoVgEk7//xOlh13B8+96e888vHDAWDnVJ77lk287bh38tudAOAyl7nMZS77/84APFk7t24CZjN7CgCw8yLOO+75nPfnHQBMmvLS7/OjU2/mbcd9m1sAgP2JuS/nypv+ziM3XcANXz6DKTuv4L2fu5YBAOCpqvT1MU4TU1sBYBJ1czj2+GM5+fhjOfOlb+Kr3/wJN3zhcCrXfZtPXTECwP4GI1xz5VpYdgSntAPApBUnHkt9fB+X3R4CkCAFbN7BphgAngh9e9hJnsZ6AJhE3RyOPf5YTj7+WCadfPBU0gDA44GpfOBPf+eRm/7OpCvfMhWAWhz5Xn50Klz+0W9zCwDweNh5Ed+/Gha95VyOAQD2xpTDec7cHVx28w5gB9deuwNmT2UKAMDOizjvuOfzXj7MlW+ZChzLO186FYCdWzcB8GyAHfz2lzez6OTDmQIw5UW889Rjee6RO9i0CQAuv+FObvnNH+Et3+eCl04FYF/O/PLfeeSmv/NkXPmWqQA8WXAsP7rp7zxy09/50akAwNyXc+VNf+eRm/5O4kenAsDeYCqLZwBAgiPfyyM3fZ9XTwGAWhz5Xh656e989UgAmMSUF3HBTd/n1VMAYNLOP7+TZcc9n1rLPnozsINvvOz5LDvu+SRO/8kO4GbedtzzWXbct7kFAHi2MOVFXPDLFzEFAHimYAe/ff3zWXbc83mmlh33bW6Z8iIuuOn7vHoKAEza+ed3suy451Nr2UdvBnbwjZc9n2XHPZ/E6T/ZAdzM2457PsuO+za3AADPNpjKB/70dx656e9MuvItUwGoxZHv5UenwuUf/Ta3AAB7gx389vXPZ9nrL2InAPBM3PLF57PsuHfyjQ1w5pf/ziOfO47LfvJHVgNc/VWWHfd8Ji376M0AXP7Rb3MLMOWl3+eRLx8L3Mzbjvs2twAACdjBb1//Tr6x4Vh+dNN7OQYA2BemvIgLbvo+H+CPnH7cO/ntTgBI3HLDzTD3OE6eAgDcfgeXA7NmTAXgqWDnRZx33Ffhc3/nR6cCc4/j5CkA8HSw8yLOO+6dfGP2y/nAXGDucZw8BQAmcfu3Of0nO4Cbedtxz2fZcc8nsexl7+RtP9kB7OAbL3snv90JAC5zmctc5rL/zwzAkwE7uPbaHXDqERwDAMDhfPum7/Oca9/JsuOez7Iv3glA4piP/50fnXozbzvunfx2JwA8Hjb8kdOPez7Ljns+j2fZy/7IagDg6YKAtiPfxC/ft4DKXT/kI5eOAPBUQMgtN98HdQdz6FwAeCL1xxzHMcAt968BYH9jw2X89hHgkd9wwnHPZ9lxz2fSsndcwThw7d8vZwAAWLRoAfAIdz8MAE/krnseAe8gjlkMAP9Jx7zm5SziZr7/5x0A1II7+fBxz2fZcc9n2cv+yGpg9U/eybLjns+kZce9k9/uBACYysknT2X1Ty7kltsv5Bsb4MwTDgcgwZQXccFNf+eCl04FYG/MncZsAOCZ4PYL+caGY3nnS6cCkDjm4+/lmJ13ctmGqXzgyy9n0dV3wMf/zgUvnQrA3jjyvTxy09/56oyLOO+457Ps9RexEwB4PFNe+n0euem9HAMAPJEpL/0+j9z0Xo4Bbvni83nb1cdy5qnAhj9y+nHPZ9kX7wTgmI//nUd++SKmAAAJtm5nNQA7+O3rn8+y457Pk7Xsi3cC8ESmvPT7PHLT35n0yE3f5wNzAYC5L+fKm/7OIzf9nVqP3PRejgEA/pO4+qssO+757Muy497JNzYAQAKm8upf/p1Hbvo7j+eRmz7MmcCit3yfR276O4/nkZveyzEAwN6mvPT7PHLT35n0yE3f5wNzAYC5L+fKm/7OIzf9nVqP3PRejgEAEqt/8k6WHfd8EsuO+yqXAwCT4GbedtzzWXbc86m17KM3A/B0HfOal7OIm/n+n3cAsDfYwaoNsOjkw5kCAEzi9m+z7It3AjAJdrBqAyyaPRWAWrADmAqnfphHbvo7Xz0SmPIiLrjp7zxy099JPHLThzkTWPSW7/PITX/nkZu+zwfm3syltwMAR76XR758LIveci7HAABwJx8+7p18Y8Ox/Oim93IMAPBEYCqv/uXfufIt8I2XPZ/z/rwDgGM+/neuPPkmTj/unfx2J9xyw83AsTz3SAB4KpjyIi646fu8egoAPFNMeREX3PR3Hvn44QBMgh2s2gCLZk+FI9/LIzf9nUlXvmUqcCw/uunvPHLT30lc+Ra47OYdALjMZS5zmcv+PzMATwY77+SyDXDmCYcDkGDKVKYwlVf/8u88ctPf+RFfZdlxz2fZF+8E4JiP/51H/nQcl73s+Sx7/UXsBAD2xtyXc+VNf+eRm/7O43nkTy9nEQDwTLU99x18YAHc9eOfcu0EADxZ47f/gC/eCItecTaHeQDw3+KWLz6fZa+/iJ0AwL6svuFadjKVl378vXz7s+9lbx87oxMeuYI/bwCAtpPO5GSvwJ9/8Ec2xQCwL/Rfwc8vLVD/3JM5xgOA/ySmvIh3njqVWTMAYOfWTcBsZk8BOJyv3vR3HvnysQCc+eW/88hNf2fSlW+ZCsxm9hQASEw59jgWcTNv++jNMPflvOtIAPhXNm3aAbOnwp/fybLjns+k03+yA7iZtx33fJYd93wSy457J7/dCQB7gzv58EdvZtFbzuUYAGDSLb/5I6tPfTmvPvJwnjP3Zi69HQAeDzsv4ryX/ZHVABv+yOnHPZ9lxz2fJ7LsuHfy250A8K/AnXz4uOfztk0v58qb3stzAea+nCtv+jBnXv1Vlh33Tn67EwBq7dy6CZjN7ClTefUv/84jN32fD8wF5r6cK2/6O4/c9HdqPXLThzkTgGP50ccPB+CpYOedXLYBznzLy1m04Sau3QkA/w049cM8ctPf2ZdHbvo+H5gLAPvCzos477jnc96fdwDw78LOO7lsA5z5lpezaMNNXLsTAJ7Iord8n0du+juJR276MGcCAJPgWH5009955Ka/U+uRLx8LwNPFlBfxzlOnMmsGAOzcugmYzewpAMDtd3A5U3nOsVMBmAQ7+O0vb4ar7+BaAOBfgakc8/Hv88jHDwfgyYCpvPqXf+erRwJAgiPfywUvnQoAt3+bZcd9lcvnvpwrb3ovxwAAT9aUl36fR/70cvjJO/nw7QAw5aXf55Evz+YbL3s+b7saFr3lXI4BAPaHnX9+J8uO+za3AAB7Y+cONgOzZkwF4F+Z8tLvc8FLpwLgMpe5zGUu+//MADwZt/zmj6ye+3LedSQA7MsxH/87j9z0dx45AW4BAJjyIi646e9cefJNnH7c81n2xTsBeKqY8iIuuOnvfPVIAHgmYCqvfv/ZTJm4ky/++D4qAMATgZCdN36bV3ziZgYWvJyvnDcVgH9l/IpruRw45sCFADxV7LyI8477NrcAAI8HdrBpEwA8HuJH+Ps/RuCAM3nTqcdy8vHHsreXvugYprCHy27eBADZY/nAW2bDhot4/eeuZWcVAGpVdl7Lh9/6M+5qPJavvmkZAPvDMR//Pl89cioAe4M7+fBHb4a5L+ddRwJAAu7kez/ZAacewTEAQIIpL+KdpwLAma9/EVMAgCcCd3Lp1bBo9lQA4Fh+dNPfeeSmv7O3R758LACP59IvfpXLOZZ3vnQqAJO4/du87eqpfOA1hwNTefXrj+XyX17ETgBgb9z+bZa97I+sBgA49cM8ctPf2ZdHbvowZwIAi97yYV49BQCeyC1ffD7Ljvsqm9/yfR755YuYAgAk4HC+etPfeeTLs/nGy57PstdfxE4AILFp0w6YO43ZAABM5dW//Ds/mv1HTj/unfx2JwAkdv75nSw77qtcfuqHeeSm93IMAPBU7Lz5JlZzLM996eE8Z+4OvvGbOwH4X3fLb/7Iao7lnS+dCkCt1T95J8uOez77ct6fdwDwZO28+SZWcyzPfenhPGfuDr7xmzsB2Bc4nK/e9HcueOlUABJwOF+96e9c8NKpAEx56fd55Kb3cgwAUIsj38sjN/2drx4JAE/HMR//Pl89cioAe7vlhpth7nGcPAUAJm3681f5xoZj+dFN7+VkACDB7XdwOVN5zrFTAagFd/Lh457PsuOez+NZdtxXuRxY/ZN3suy45/N4lh33Tn57/0Wc99GbWfSW7/PIL1/EFADgqWLKi7jgpr/z1SMBIMGR5/KBuQCw+to72QkA7C+wiU07AWBvbN3OaqayeAbc8sXns+y45zPp9J/sAG7mbcc9n2XHPZ/EsuPeyW93AoDLXOYyl7ns/zMD8K9w+7d529Vw5utfxBQA7uTDxz2fZcd9m1sAgFoceTjHAACTprz0+zxy09955OOHA1CLDX/k9OOez7Ljns+Tsey4b3MLAPB0seDlfPy5eQYu/TbffAQAJjGxkZtvvJlrb7yZy//8Mz79uY9w9nPO4/RP38zYYa/hnz94EbM9AKjFxEZuvvFmrr3xZi7/88/48Htey5FfuY/0stfwgVObAHiybvni81l23PNZ9in49k3v5RgA4PHADlZtAGZPZQoAsLfKLf/kzxNw8vNOpg0A2Btzj+Olc2HnX6/grhgAppz3Of7w6tmM3/hDTn/OW3jD537Gb6++mcv//DM+/P63cNTLfsjl8TI++933ckwdAPy3YedU3vWnl7Nowx85/bjn8+HbAeCWL36VyzmWH338cAAmwZ1cejUAXP7Li9gJADwRbr+Dy5nKc46dCsDTBTezedNUzvzyezkGAEjAnXz4ozez6C0f5tVTAIAjz+UD/JH3/nkHAJNgB799/fNZ9tGbWfSW7/PITX8n8SO+yrLjns+y11/ETgCAnRdx3nHPZ9lxX+XyUz/MIzf9nQteOhWAxwM7+O3rn8/brj6WH930dy546VQA9oUj38sjN/2dH83+I6e//iJ2AnAnl14Ni04+nCkAwKRjPv53HvnybL7xsuez7Ljnkzj9J7P50U1/55GPHw7AU8XOi3jvT3aw6C3ncgxTefXnXs6iq7/Kh28HgCey88/vZNlxz+fDtwPAswmm8upf/p1HPn44APsCU3n1L//OIx8/HIBa3P5t3nY1wM1cejsA1Fr0lu/zyE1/Z18ueOlUAJ4Mdl7Ee3+yg0VvOZdjmMqrP/dyFl39VT58OwDsC9zJh497Psu+eCcA3P5tlh33Tn67EwAS3P5tlh33Tn67EwAS3P5tlr3+InYCAM82uJNLr4YzX/8ipgAACTb8kbf9BD7wp/dyDAAw6ZYbbgZ28I1PXcROAGASHM5Xb/o7j9z0dx7PIzd9mDOBRW/5Po/c9HcezyM3fZ9XH/giLrjp71zw0qkAPJt2/vmrfGPDVD7wpw9z5oY/cvpx3+YWAOA/bdOmHTD3OE6eAgB7u+WGm2HucZw8BY75+N955Ka/M+nKt0wFjuVHN/2dR276O4lHbvo+r54CALVu+eLzWXbc81n2xTsBcJnLXOYyl/2vMwD/yi033AynfpivHgkA7JzKu276O4/cdASXHvd8lh33fJYd905+uxMAnirmvpwrb/o7j9z0d/6VK98yFYBnCgKOeetrONkr8Ocv/4bVMQAk6L2TL33627z309/mwz+5gsvu3UP9AS/is7/8NTd8+WxmpwBgb/TeyZc+/W3e++lv8+GfXMF1m1o4832f44bvns1sDwD+Fa7+KsuOez6XnvB3Hrnp7zzyyxcxBQCYPXsqsIlNOwGgFjt3sBlYNHsqAHuDkFtuuA84iFOODADYF5jKc85aABPX8re7AADyrHjdN7ntT+/lTYfl2XjXFXzji9/mwz+5llt25DnpLR/myvM/xwumA8B/g02bdsDcacwGAJgylSlTXsQFN/2dR/70cjZ/9PksO+75vO1qOPPL7+UYACABd/Lh477K5XNfzpV/ejmLNvyR0794JwBP5JYbboa5x3HyFAB4uuBY3vnL7/PVIwEgAXfy4eO+yuWnfpgLXjoVgARM5dWvP5bVP3knH74dAOBOPnzcO/kGL+fKm/7OBS+dCkDimI//nUdu+j4f4I+cftzzWXbc81n2sj/CW77PIzf9nUc+fjgA+3LLF9/JNzYAG27i2p1TefUv/84jN72XYwCAf+WYj/+dR375IqYA3H4HlzOV5xw7FYBacCcf/ujNADB3KosAuJnv/3kHAE8V3MmHX/ZHVs99Od9+6VQAmPIivv2WqVz+0Xfy250A8Hg2bdoBHMtzjwSA/xZwJx/+6M0w9+V84FS4/KPPZ9lx7+S3OwHg2QJ38uGX/ZHVc1/Ot186FQCmvIhvv2Uql3/0nfx2JwDs7ZYvfpXLmcoHXnM4ABx5BGeyg2/85k4AEhx5BGeyg2/85k4AEjuBRRv+yOlfvBOAZ8OmTTtg7jRmA+zcwWaO5blHAkDimBOOBabygT99n1dPAYApL/0+j9z0Xmb/+Z287Wo488sf5swNf+T0497Jb3kRF9z0d756JAD8L+D2b3P6T3Zw5pe/z6unHM5Xb/o+H5h7M297/UXsBACeKWZMYxE7uOzmHQA8HnZexPevhkUnH84UAGASs6cyhTu59GpYdPLhTAEAXOYyl7nMZS6rZQD+lWM+/nce+fjhACSYMpUpABzOV2/6O4/c9Hce+dNxXPay57PsuOez7Lh38tudALA/wVRe/cu/88gvX8QUAKAWdSfz7ev/ziN/eg2LPICpvPqXf+eRm/5OrXsv/jV/+MLLecHcJgD2BlN59S//ziM3/Z1a9178Tb569jLqPQB4Ijv//EcuB8788t955Ka/89UjAaDWlJe+nDPZwTde9nyWHfd8ai172R9ZPfflfPulUwHYGwSc/Nm/88hNn+DMLAA8nrazv8IjN/2drx4JAJPSU47lnV/4Jjdc9nceuenvPHLTBdx+/jf56ksPZ0oKAGrBVF79y7/zyC9fxBQA4KmAHXzjZc9n2XHPZ9LpP9kBwBNh50V8/2pg9lSmAAC1bvnNH1kNACQu/+i3uQUAgDv58HFf5XKO5Ue/fBFTpryIb79lKlz9VT58OwDU2rRpBwDc/m3edjWc+foXMQUAgJt523HPZ9lxz2dvyz56MwBPBjsv4rzjvsrlp36YRz5+OAC1OPK9XPmWqVz+0efz4dsBDuerN/2dR375IqYAAHAnHz7u+Sw77vksO+6dfGMDcOqHeeRPL2cRsPon72TZcc8nseyLdwJQ65YvPp+3XX0sP7rp71z5FvjGy57PeX/eAcDejvn433nkly9iCgCwN9jBb395M5z6cl49BQASO//8TpYd93yWHfdVNr/l+zxy09955Jff54Kb/s4jf3o5/OSdLDvu+Sx7/UXsBAD+FbiTDx/3VS7nWH70yxcxBQBITHnp9/nRqTv4xsveyW93AsDeYAebNgGnHsExAMCz5ZYvPp9lxz2fp+rDtwM7L+K8477K5XNfzpW/fBGv/vjfeeSmv/OjU3fwjZc9n2XHfZXLgdU/eSfLjns+j2fZce/ktzsBYF/gTj583Fe5nGP50S9fxBQAIDHlpd/nR6fu4Bsveye/3QkAk7j927ztalj0lg/z6ikAAIfzrrdMhau/yodvBwA4nHe9ZSpc/VU+fDsATDnyvVzw5WPh6q9y3p93AJCAHXzjZc9n2XHPZ9LpP9kBwBNh50V8/2pg9lSmAEx5ERfc9F6OAQBu+eLzWfZR+NFN3+fVUwBg0s4/v5PTf7KDRW/5Pl898nC+etPf+dGpO/jGy57Ph28HgP8FO//8TpZ99GbO/PLf+eqRAABTefUv/84jv3wRUwCASTu3bgJmM3sKANSCHfz29c9n2XHP521Xw5mvfxFTAACmvIh3ngqrf/JOlh33fB7Pspf9kdWnfpgLXjoV2MFvX/98lh33Tr6xAc484XB2/vmPXM6xvPOlO/jwcc9n2XHPp9bpP9kB3Mzbjns+y457PpOWHfdOfrsTACYd8/G/88hNf+eRjx8OgMtc5jKXuex/nQF4NjDlRVxw09955Ka/c+Vb4Bsvez7n/XkHAP8KG/7I6cc9n2XHPZ9/5fSf7ADg/5spL/0+j9z0d756JADsCxzOV2/6O4/c9Hf25ZFfvogpAMD/BzCVD/zp7zxy09+ZdOVbpgIwCe7kw8c9n2XHPZ9Jy172R1bPfTlXfvxwABKwg9++/vksO+75vO3qqXzgT3/nkZv+TuLKt2zibcd9m1t2XsR5x32VyzmWH930Xo4BAKa89Ptc+ZapXP7R5/Ph2wF28NvXP59lxz2ft10Ni95yLtxwM5z6Yb56JAAk4Fh+dNPfeeSmv7O3R758LAD/Cjsv4ryX/RHe8n0e+fjhAOzLlJd+nyvfMpXLP/pOfrsTYAe/ff3zWXbc80ksO+4OnnvT33nkpr8z6ZGPHw5TXsQFN/2dR276O4lHbvowZ179VZYd93wSy457J7+9/yK+f/Wx/Oim93IMMOWl3+eRmz7MrJ+8k2XHPZ+nYtlx7+S399/JZRum8oHXHA47L+K8457PsuOez3v5MI/c9HcSF7x0KgCTmPIiLrjp7zxy09955HPw3uOez7Ljns+y477NLQDA3th5Eecd91Uu51h+dNN7OQYAqHXMx//OlW+Bb7zs+Sz74p0A1GLnnVy2Ac484XAAnk3HfPzvPHLT33mqvjrjIs572R/hLd/nkV++iCkAQOKYj/+dR276O0/WIzd9n1dPAYC9sfMizjvuq1zOsfzopvdyDABQ65iP/50r3wLfeNnzWfbFOwGAHfz2lzfD3Jfz7ZdOBWDSlJe+nDOBzVt3AJCY8tKXcyaweesOABIc+V5+dCqsvvZOdgIAMJUP/OnvPHLT35l05VumAjAJ7uTDxz2fZcc9n0nLXvZHVs99OVd+/HAAJu388ztZdtzz+f7s7/PITe/lGAAgwc6LOO+453P6T+ADf/o7F7x0KgCJYz7+dx758rFc/tHns+yLdwLw34ydF/Hen8AH/vR3vnokAOwN7uTDxz2fZcc9n8TpP9nBorecyzEAQC2Yyqt/+XceuenvJL56JABMOubjf+eRm/7Ov/LIxw8HAKby6l/+nUdu+juJrx65g2uv3cGit5zLMRzOV2/6O4/c9HeejEdu+j6vngIALnOZy1zmsv+vDMCzbcpLv88jN/2dC146FYB/hbkv58qb/s4jN/2df+XKt0wFwGUu4Mj38shN3+fVUwBg0pSXfp9HbnovxwAAcDhfvenvPHLT36n1yC9fxBQAgJ0Xcd5x7+QbG47lRzf9nUdu+j6vngIAiSkv/T6P3HQEl77sj6w+9cM8ctN7OQYAmDTlpd/nkS8fy+UffSe/3TmVV//y7zxy099JXPDSqRzz8b/zyMcPByAx5aXf55Gb3ssxAMDeOPK9PHLT93n1FACYNOWl3+eRm97LMQAAU17EBTf9nQteOhWAJzLlpd/nkZu+z6unAEzl1b/8O4/c9HcSj9z0Xo4BAJ4IHM5Xb/o7j9z0dxKP3PR9Xn3gi7jgpvdyDACQgMP56k1/55Gb/s5T8chN3+fVB76IC276Pq+eAkx5ERfc9HceuenvXPDSqQD8K0x5ERfc9HceuenvPHLTezkGAKjFzos472V/ZPWpH+aRm97LMQDAvkx56fd55E8vZ9HVX2XZ6y9iJwCQYOt2VnMszz0SAJ6pYz7+dx755YuYAgA8HUx5ERfc9HcueOlUAP4d2HkR573sj6w+9cM8ctN7OQYA2JcpL/0+j/zp5Sy6+qsse/1F7GQqr/7l33nkly9iCgAwCQ7nqzf9nQteOhWABBzOV2/6Oxe8dCoAk475+N955JcvYgrAke/lkZu+z6unAMCkKS/9Po/c9F6OAQDgcL5609955Ka/U+uRX76IKQAAOy/ivOOez+nXHseVN/2dC146FYBJt3zx+Sx72R+Z9eW/88hN3+fVUwCgFke+l0du+jBnXv1VPnw7ADwROJyv3vR3LnjpVACeqSkv/T6P3PR3vnokADwRpryIC276Pq+eAgD7Aofz1Zv+ziM3/Z1JF7x0KgD/aTCVV//y71zw0qkAuMxlLnOZy1y2LwZgfzrm43/nkV++iCkAwL8y5aXf55Gb3ssxAIDLXPZUMOVFXHDT33nkpvdyDACwNzicr970dx75+OEA7AtHvpdHbvo+r54CAC77bzXlpd/nkZveyzFTXsQFN/2dRz5+OAD/ClNexAU3/Z1HfvkipgAACY58L4/c9F6OAQD+v5vy0u/zyE3v5ZgpL+KCm/7OIx8/HIB/hSkv4oKb/s4jv3wRUwCA/1ZMeREX3PR3Hvnli5gCANQ65uN/55Gb/s5XjwSAxwOH89Wb/s5XjwQAl7nMZS5zmctc9p9mAFzmMpe5zGUuc5nLXOYyl7nMZS77/8gAuMxlLnOZy1zmMpe5zGUuc5nLXPb/kQFwmctc5jKXucxlLnOZy1zmMpe57P8jA+Ayl7nMZS5zmctc5jKXucxlLnPZ/0cGwGUuc5nLXOYyl7nMZS5zmctc5rL/jwyAy1zmMpe5zGUuc5nLXOYyl7nMZf8fGQCXucxlLnOZy1zmMpe5zGUuc5nL/j8yAC5zmctc5jKXucxlLnOZy1zmMpf9f2QAXOYyl7nMZS5zmctc5jKXucxlLvv/yAC4zGUuc5nLXOYyl7nMZS5zmctc9v+RAXCZy1zmMpe5zGUuc5nLXOYyl7ns/yMD4DKXucxlLnOZy1zmMpe5zGUuc9n/RwbAZS5zmctc5jKXucxlLnOZy1zmsv+PDIDLXOYyl7nMZS5zmctc5jKXucxl/x8ZAJe5zGUuc5nLXOYyl7nMZS5zmcv+PzIALnOZy1zmMpe5zGUuc5nLXOYyl/1/ZABc5jKXucxlLnOZy1zmMpe5zGUu+//IALjMZS5zmctc5jKXucxlLnOZy1z2/5EBcJnLXOYyl7nMZS5zmctc5jKXuez/IwPgMpe5zGUuc5nLXOYyl7nMZS5z2f9HBsBlLnOZy1zmMpe5zGUuc5nLXOay/48MgMtc5jKXucxlLnOZy1zmMpe5zGX/HxkAl7nMZS5zmctc5jKXucxlLnOZy/4/MgAuc5nLXOYyl7nMZS5zmctc5jKX/X9kAFzmMpe5zGUuc5nLXOYyl7nMZS77/8gAuMxlLnOZy1zmMpe5zGUuc5nLXPb/kQFwmctc5jKXucxlLnOZy1zmMpe57P8jA+Ayl7nMZS5zmctc5jKXucxlLnPZ/0cGwGUuc5nLXOYyl7nMZS5zmctc5rL/jwyAy1zmMpe5zGUuc5nLXOYyl7nMZf8fGQCXucxlLnOZy1zmMpe5zGUuc5nL/j8yAC5zmctc5jKXucxlLnOZy1zmMpf9f2QAXOYyl7nMZS5zmctc5jKXucxlLvv/yAC47L8R3MmHj3s+y754JwAuc5nLXPa/aOef38my457Ph28HAJf9L4M7+fBxz2fZF+8EYG+3fPH5LHv9RewEAJ4O2MFvX/98lh33fJZ98U4Anim4kw8f93yWffFOAJ4sdl7Eecc9nw/fDgD7cssXn895f94BwP8HsIPfvv75LPvinQDsDe7kw8c9n/P+vAMAl7nMZS77b2IA/pvs/PM7WXbcO/ntTgD4bwR38uHjns95f94BwLONnVN57lumwtVf5cO3A8AzATv47eufz7LXX8ROAOCp4PZvs+y45/Ph2wHANbCD377++Sx7/UXsBACeDLiTDx/3fM778w4A9uWWLz6fZa+/iJ0AwH8St3+bZcd9m1sAAJc9Uzv//E6WHfdtbgEA/lux8yLOO+75nPfnHQAk4E4+fNzzOe/POwD4V3b++Z0sO+6d/HYnADzb4E4+fNy3uQUAeCp2/vmdLDvu29wCAPw32vnnd7LsuG9zCwBQC3bw29c/n2VfvBOA/7RbvvhVLmcqH3jN4QA8WTv//E6Wvf4idgIAT+SWL76Tb2wAAK7+I7/dCQBPhNu/zbLjns+HbweAZ8vOm29iNcfy3CMBYG+wA5jK6p+8kw/fDgBP1S1ffD7Ljns+y754JwBPBTsv4rzjns+yL94JwN7YeRHnHfd8ln3xTgAez84/v5Pz/rwDgL3BDn77+nfy250AwO13cDlTec6xUwF4PHAnHz7u+Zz35x0A/Cew8yLOO+75LDvu+dRadty3uQUAeDJ2/vmdLDvunfx2JwC4zGUu+19gAP6bbNq0A5jN7CkA8Exw+7dZdtzzeTrO+/MOAJ4M2MFvX/98lh33fP6VZa+/iJ23f5tlxz2fx7PsZe/kbT/ZAcDlH30+y457Po/nw7cDwL/TLTfcDHNfzruOBIAncssXn8+y455PYtlx7+S3OwHg2bTzz+9k2XHP59lw3p93AHDLF5/Ph28HgL2x804u2wCLTj6cKQDAf9rOP7+TZcc9n70tO+7b3ALc8sXns+y45/NElr3+InYCAImdM47gA3Nv5m3HPZ9lX7wTgJ1/fifLjns+T8ay11/ETgDg3wF28NvXP59lxz2fp2LZ6y9iJwAwidu/zbLjns/ePnw7sPMizjvu+Sw77vk8kfP+vAOAvXH7tzn9Jzvg1GnM3gkATxXcyYePez7Ljns+e1t23Le5BYA7+fBxz2fZcc9nb8uO+za3AACTuP3bLDvu+Xz4dgBIsHU7q4FZM6YCkGDnVN715WNZ/ZN3suy45/Ph2wFgX2AH1167A+Yex8lTAODZxs4dbOZm3vb6i9gJADwTcCcfPu75LDvu+ext2XHv5Lc7AeA/hWOP40xu5m3HfZtbAIB9gTv58HHP58O3A8CkW774fJYd93yeDcu+eCcACW7/Nm+7Gs788vd59RRg50Wcd9y3uQUA2Be4kw8f93xOv/Y4rvzli5gCADyeW774fN52NZz55b/zyE3f5wNzd/CNl72T3+4EgP8k2MG11+6AU4/gGABgbzCVYz7+YT4wFy7/5UXsBACerFu++HzedjWc+eW/88jHDwfgyYId/PZTf2T13Jdz5ccPB2BvO2++idUcy48+fjgAj4cZs+En7+TDtwPAJNjBb1//Tr7BbGYDADu3bgJmM3sKADxZsIPfvv75LDvu+TwZy15/ETsBALiTDx/3fJYd93yeyLJPwbdv+juP3PR3aj1y03s5BgDY2y1ffD7Ljvs2twAALnOZy/5XGYD/FrCDTZuAudOYDQDU4vZvs+y45/N4zvvzDgBqwVQ+8Ke/88hNf6fWj04F5r6cK2/6O4/c9HcmPXLThzkTAKjF7d9m2XHv5Lc7AaAWTOXVv/w7j9z0dxKP3PR9PjAXmPtyrrzp7zxy09+Z9MgvX8SUI9/LIzf9ncfzyJ9eziKAUz/MIzf9nSfy1SMB4N+FnRfx/ath0cmHM4Ud/Pb1z2fZcc/n8bzt6mP50U1/55Gb/s4jN32fV08BgGfTlJd+n0du+jt7e+TLxwJT+cCf/s4jN/2dxCM3fZ8PzAVO/TCP3PR39nbBS6cCO9i0CS7/6PP58O0AUGvnzTexmmN550unArC/wLH86Ka/88hNfydx5VumApA45uN/55Gb/s4jXz4WmMoH/vR3Hrnp7yQeuen7fGAuMHsqUwCAxJQph/PqX/6dK98yFa6+g1uAKS/9Po/c9HeeyCM3fZ8PzAWA/wRO/TCP3PR3nowfnQoA+wJT+cCf/s4jN/2dR/70chYBAJPO/PLfeeSmv7O3R276MGcCAHvj9m+z7KM3A8DVf+T0lz2fZcc9nyey7LhvcwsAsLdFb/k+j9z0dyZd+ZapANRa9Jbv88hNf2fSlW+ZCkAt2MFvf3kzzH057zoSABI7t24CprJ4BgAkmDKVKUe+l0du+js/OhUu/+i3uQUA2Bu3X8g3NsCZr38RUwCAZxtTXsS33zIVNtzEtTsB4Nmw6C3f55Gb/s6kR758LAD/bjv//E6WHfd8Jp3+sj9yOQA387bjns+y455PYtkX7wRgEjun8q4vH8vlH30+y754JwCJYz7+dx656e88VY/86eUsAha95fs8ctPfSTzy8cMB4PZvs+yjN7PoLd/nq0cCQAJu5m2vv4idAMAk2MFvX/98lh33Rxb/6e888ssXMQUAeDy3fPH5vO1qOPPLf+erRwJM5dW//D4fmLuDb7zsnfx2JwD8O3D7t1n2xTsB2Pnnd7LsuOez7Lh38o0NwNVfZdlxzyex7Lhvc8vt32bZcc9n0rLj3sk3NgAb/sjpxz2fZcc9n0nn/XkHAPtyyxefz9uuBoDLP/p8lh33fB7PstdfxE4AAHbw29c/n2XHvZNvbAA2/JHTj3s+y457Ponz/rwDANjBtdfuAG7mbcc9n2XHPZ9ay477NrcAAFOOfC/ffstULr/hTgAmcfuFfIOXc+Uv38sxUwB2cO21O+DUIzgGAHiqOPXDPHLT33k8j9z0fT4wFwAmweF89aa/88hNf2dvj9z0fT4wF5j7cq785YuYAgA8Gey8iO9fDYveci7HAAAuc5nL/lcZgP8WsINVG2DRyYczBQDYG0zlA3/6O4/c9HcmPXLThzkTAPhPWv2Td7LsuOez7Lh38tudAJCAHazaAItOPpwpAMDedv75nXz4dgCoBXfy4Zf9kdUcy49eM5WdAMDebvniO/ntTgD4d9p5802s5lje+dKpACQ49cM8ctPfmfTIl48FjuVHN/2dR256L8cAAP8rYCqv/uXf+dGpcPlH38lvdwJAAnZw7bU7gJt523HPZ9lxz+fxLHv9RewEAGqt/sk7WfbFO4Ed/Pb1z2fZcc9n0tuuBjb8kdOPez7Ljns+k8778w4AnqqdWzcBs5k9BQAezy1ffD7LXn8RO4EpL/0+j9z0Xo4BAFy2L+zcwWZg1oypAEza+ed3suyjNwOQWPSW7/PITX/n8fzoVABY9JZzOQYA+Hfh9gv5xgY48/UvYgoAkNi0aQcwm9lTAGBvx3z87zxy03s5BgCoBTv47S9vBuDyjz6fZcc9n0mn/2QHAJd/9PksO+757MuyL94JQGLnn9/JsuOez+M5/Sc7gB1842XPZ9lxz2dflr3+InYCO//8TpYd93wSp/9kB3Azbzvu+Sw77vks++KdAOxPU176fR656e/8K498/HAAJjFlKlOOfC+P3PRhzrz6q3z4dgB4tt3yxeez7KM3w6kf5oKXTgUgwZQXccGfXs6iDX/kvX/eAUCCDX/k9OPeyarX/51Hbvo+r54CAI8H7uTDxz2ft119LD+66e989UgASMBUXv3Lv/OjU3fwjZc9nw/fDgDPJnZexHkfvRmu/iO/3QlTXvp9Hrnp71z5lqnAsfzopr/zyE1/J/HITe/lmCPfyyM3/Z0n44KXTgWgFuzgt69/Ppee8HceuenvPJ5H/vRyFgEwlQ987kVMAQAmceqHeeSmvzPpkZs+zJkAQILbL+QbvJwrb/o7j9z0dyY9ctP3+cBcYO40ZgMAiSkv/T6PfPxwACZx5Ht55JcvYgoAwM47uWwDcPVXWXbc89nbeX/eAcD/ip0338RqpvKcY6cC4DKXuex/mQHYn2AHv33981l23PNZdtxXuRxY/ZN3suy45zNp2esvYicA8FTBDr7xsuez7LjnU+ttVwMb/sjpxz2fZcc9n0nLjvsqlwMA/8qit3yfR276O4/c9H1ePQUAEtx+B5cDs2ZMBWBfNm3aweUffT4fvh0AErCD377+q1zOsfzopvdyzJSpTNl5Eecd905+uxMAErd88fm87eodfOM3dwLwr8AOVm0AgKcC7uR7P9nBorecyzEAwOOBTWzaCQD/q475+Pf5wNwdfONl7+S3OwGA2y/kGxuO5Uc3/Z1Hbvo7+/LIn17OImDRyYczBYA7+fBxz+fDtwPAolOPZdHVX+W8P8Orf/l3Hrnp70z60anAqR/mkZv+TuKRmz7MmQDAU8XOi3jvT3aw6C3ncgwAkIAdrNoAi2ZPBcBlT8fOm29iNVNZPAMAErd88fmc/pMdcOqHeeSmv/PIn14OP3kny15/ETsBgEnc/m2WHfd83nb1VD7wp79zwUunAvDvdMsNNwNw+Uefz7Ljns+kt10NcDNvO+75LDvu+fwr5/15BwCJnX/+Kt/YcCw/uunvPHLT36l15VumAnDml//OIzf9nX155OOHAzAJjuVHN/2dR276O0/FIzd9nw/MBYDElJd+n0du+juJH50KcCw/uunvPHLT33nk44cD8L8CdrBqAyyaPRWABBzOV2/6O189EgCebce85uUsArj6qyw77vnUWvYp+PaXj2X1T97Jh28HAOa+nCtv+jtfPRIAEnAnHz7u+Xz4dgCYtPPP72TZcV/l8lM/zCM3vZdjAIC9HfPxv/PIl4/l8o8+n2Wvv4idAMAzxc6LOO9lf2T13Jdz5U3f59VTAAB2cO21O+DUI5j953ey7LhvcwsAMAl28NvXv5Pf7gQA2MFvX/9OfrsTAPaFnRdx3nHvZNXr/85XjwSAfdn553ey7GV/ZPXcl3PlTd/n1VMA4MmCO/nwR2/mzNe/iCkAwOPh9m+z7LjnM2nZce/kGxuAq7/KsuOez6Tz/ryDnTffxOq5L+fKm/7OIzf9ncQjf3o5i4Azv/x3LnjpVHb++Z0sO+75LDvuq1wOrP7JO1l23PM57887APhvwc6LeO9PdgA7+MbLns+y457PpNN/sgPYwTde9nyWHfd89uW8P+8AwGUuc9l/CwOwP8FUXv3Lv/PITX/nyrdMBY7lRzf9nUdu+juJH50KAE8XTOUDf/o7j9z0d2r96FRg7su58qa/88hNf2fSIzd9mDMBgKcC7uTDxz2fZcc9n2UfvRmAyz/6fJYd93wmLXv9RewEAI75+N+58i1Tufyjz+fDtwPs4Levfyff2HAsP7rpvRwDwJ18+GV/ZPXc2cwGYAe/ff3zedvVsOgt3+eRjx8OALd/m2XHPZ/Hs+y4r3I5wIY/cvpxz2fZcc/n8Xz4dgBI3PLFr3I5U3nOsVMB+G/C7d9m2XHPp9ayj94M7OAbL3s+y457Pollx72Tb2wArv4qy457PrU+fDsATIKpvPqXH+bMucdx8hSAHfz2lzfDqUdwDABwyxefz7Ljvs0tAEBi5803sZqpPOfYqQDsjdnn8u23TGX1T97Jh28HgATsYNMmAHim2HkR573sj6w+9cNc8NKpcPu3WXbc80ksO+6rXD735Xz7pVMB2Bd2XsR5xz2fZcc9n31Zdtw7+e1OAPj/jtu/zbLjns+k03+ygzO//H1ePQUA2HkR378azvzy33nk44cDwJQXccFN3+cD/JHTj3s+y754Jzv//E6WHfd8ln30Zha95fs8ctP3efUUAHg8q3/yTpYd93wmnf6THQDUWv2Td7LsuOcz6fSf7ACg1jEf/zuP3PR3aj3y5WMBOPPLf+eRm/7Ok3HBS6cCwM6LeO9PdrDoLedyDADw3wbu5NKrAeC/Dbd/m2XHPZ/Hs+yLF/Hb1z+fZcd9lcuB1T95J8uOez57+/DtAJDY+ed3suy45/N4lh33Tn67EwCeCFNexAU3/Z1Hbvo7e3vkly9iypHv5UenTmXz1jsB2Bd27mAzAJBg50Wcd9zzOf0n8IE//Z1HPn44AE+EI9/LIzd9nw/wR04/7vks++KdADxd7LyI8172R1af+mEe+eWLmAIAJNh5J5dtgDNPOByAfbnli+/kGxsAIMHOHaxiB9942Tv57U4AqHXLF5/PspfdxHP+9He+eiTc8sXnc96fdwAwCe7kw8c9n9N/soMzv/x3Hvnli5gCADwVO//8Ry7nWJ57JAA8EY58L4/c9HcSj9z0fT4wFwA49cM8ctPfmXTBS3fwvZ/sgA3b2QQAJNi6ndVMZfEMAJjy0u/zyE1/55GbPsyZwKK3fJ9Hbvo7F7x0KgBc/VWWHfd8Hs+y497JNzYAwCR2XsR5xz2fZcc9n70tO+6dfGMDsOGPnH7c81l23PPZ27Lj3slvdwLApFt+80dWz305V970dx656e/U+tGpAMfyo5v+ziM3/Z19ueClUwGoxc6LOO+457PsuHfy250A4DKXuew/xQA8VX+99FrOftU7WXbc8zn7Ve/kr5deC8AzATu49todMHcaswEA2MGmTcDsqUwBAP7bLXrL93nkpr+ztx+dCgC1prz0+1z5lqlcfsOdcPuFfGMDwM287bjns+y457PsuK9y+akf5pFfvpdjpgA7d7AKOPPLf+eCl04FIMGR7+WRm/7O43nkTy9nEQDH8qOb/s4jN/2dx/PVIwGAnRfx/asB4F9hxjQWAQD/STCVD/zp7zxy099JXPmWqcCx/Oimv/PITX8n8chNH+ZMYNFbvs8jN/2dxCN/ejmLAIC9weF89ZcvYgqw889f5RsbpvKB1xwOwCTmTmM2AAB38r2f7IBTX86rpwAAO3ewmaksngEAiSkv/TAfOPXlvOtIAHg64GbedtzzWXbc80mc/pMdAHD7t1n2sj/CW77PIx8/HACOfC+P3PR3Jj3yyxcxBQB4Imd++e88ctPfqfXIl48FYH/h6q+y7Ljn82S87WoA2BfYwTde9nyWHfd8lr3sj6wGAPbGke/lkZv+Tq2vHgkACaa8iAtu+jtfPRIAJsFUTj55KgBc/VVO/8kOADj1w1zw0qkA/CuL3vJ9Hrnp70y68i1TAai16C3f55EvH8uZX/47j9z0d658y1QAngjs4Le/vBnmvpx3HQkATxbcyYdf9kdWn/phLnjpVACeqSkv/T6P3PRejgEAngqYyqt/+Xce+eWLmAIAJLj9Di4HAP5bnfnlv/PITX9n0iM3fZ8PzAWYyqt/+XceuenDnAksesuH+cBcYO7LufKmv/PITX8n8dUjAWASHMuPbvo7j9z0d2o98uVjAXi2HPPx73PBSw9n9uypsGE7mwCASWzdzmqmsngGcPu3WfayP8Jbvs8jN32fV3MR5x33fJYd93z+lWWvv5OTf/l3Hrnp+3xg01dZdtw7+e1OAEhc/tHns+y451Nr2esvYicAMImdF3Hey/4Ib/k+j3z8cABqsXU7qzmW5x4JAHvb+ed38rarp/KBP32fV08BAKYczld/+Xd+dOoOvvGyd/LbnQCQuOWLz+dtVx/Lj276Pq+eArCD2bOPZfVP3smyL94J7OC3r38+y477Kpef+mEeuenvfPVIAHiqYAfXXruDRW85gk2v/za3AAD/CtzJh497J9/YMJVFc4Grv8qy497Jb3cCwM4//5HLAdjEpp0AkNi5dRMwm9lTAOBf4dQP88hNf2fSIzd9mDOBRW/5Po/c9Hceuen7fGAuAExiyou44Ka/88hNf2dvj9z0fT4wF5j7cq686e88ctPf2dsjN32fV08BgMTOP7+Tt109lQ987kVMAQBc5jKX/a8zAE/FXy+9ls98/Yds2roDgE1bd/CZr/+Qv156LQBPFzvv5LINsOjkw5kCAMAOVm2ARbOnArC/3PLF57PsozcDO/jGy57PsuO+yuXA6p+8k2XHPZ/Eh28HgEnc/m2WHfdOfrsTAB7PlJd+n0c+fjgc+V4euenvJB656cOcCXDqh7ly9h857887AGAKsOFYnnskADxZbN3OagBu5tLbAeCJwA5++6k/shoA2BtXf5Vlxz2fScte9kdWs4NvvOz5LDvu+dRa9sU7AdjfZs2YCsBTxakv59VTAAB2sGkTsGE7mwAAbr+Dy4EzTzgcgARbt7Oa2cyeAgAJmMqrP/4ipgAATwccy49u+juP3PR3Ele+ZSoAHPleHrnpw8z6yTtZdtzzeTzLXn8ROwGA/yWc+mEeuenvPBk/OhUA9gWm8oE//Z1Hbvo7j/zp5SwCAJ4JuJMPH/d8lh33fBKn/2Q2P7rp7zxy099JPHLThznz6q+y7Ljnk1h23Dv57U4AqAWH89Wb/s4FL50KwKQpL/0+j9x0Lpte/3yWfRG+etPfueCl8NsbNrH5o89n2XHfZtNLv88jN72XYwCAfWHnnVy2AdjwR04/7vksO+75PJEP3w4AiZ1//iOXz305V378cACeKW7/NsuOez7Phg/fDgCJW264GYDEpV98Ph++HQBc9mTt/PM7WXbc83k8H74dAKa89OWcyc287bjns+y45zNp2UdvhlNfzqunAEe+l0du+jsXvHQqAEx5ERfc9Hceuenv/CuP/PJFTAFgKq/+5d955Kbv8+opAJA488t/55Gb/k6tR375IqYAAAlu/zbLXnYTz/nT37ngpVMB2NstN9wMpx7BMQBALW7/Nqf/ZAdnfvn7vHoKANQ65uN/50en7uAbL3snv90JAMd8/O88ctN7OQYAgKlMeel7eeTLx8LVX2XZce/kG7ycK2/6O498/HAAni6Yyqt/+XcuOHYHl224mbd98U4AnsjOP7+TZcd9lctP/TCP3PRhngNw6oe58i3wjZc9nw/fvoNrr93Bore8nDPZwaqtAJDYtGkHzJ3GbADgmYKpvPqXf+eRX76IKQDAswl2cO21O1j0lg/z6ikA8Gxhyou44Ka/88hN3+fVUwDAZS5z2X+KAXgqfnfBPwHY2+8u+CcATxdbt7OaqTzn2KkAJLj9Di5nKs85dioATwfs4Bsvez7Ljns+td52NbDhj5x+3PNZdtzzmbTsuK9yOQAw6ZiP/51Hbvo7T+SrRwLA07Hzz+/kvD/vAICdF3HecV9l81u+zyMfP5wpxx4HP/kqv90J3H4Hl3Mzbzvu+Xz4dgB4Mm654WaY+3I+cCpcfsOdADyRnX/+Kt/g5Vz55WMB2BunfphHbvo7kx656cOcCZz55b/zyE1/p9YjHz8cgH832MG11+6AudOYDQAk2LmDzUxl8QwA+FdgB799/be5BZjy0u/zyMcPByABO1i1AWATm3YCAEe+l0du+jtfPRIAEju3boK505gNAPwnLXrL93nkpr9T65Gbvs8H5gLAv8MtX3w+y457Ps+GZV+8E4D94fKPPp9lxz2fx7Psi3cCcMsXn8+y455PYtlxd/Dcm/7OIzf9ncQjN72XYwCABBzOV2/6O4/c9HcSj3x5Nt942fNZdtzzSSz74p3AnXz4uOez7Ljnsy/Ljnsn39gAXP1Vlh33fJYd906+cfUOVgNwM2877vksO+75JM778w4A9nbLb/7I6rkv5wOnwqK3fJ9Hbvo7+/KjUwGmsngGACSmvPT7PPLLFzEFAHimOPK9PHLT39nblW+ZCsCit3yfR276O0/GV48EALiTS6+GRXOnAjezedNULv/o8/nw7QDwv4KdO9gMzJoxFYD/JDiWH930dx656e9MeuRPL2cRAJCAw/nqTX/nkZv+zt4e+fjhAOxPXP1Vlv1yGlfe9H1ePQUA9gZ3cunVcOYJhwNQC3bw21/ezKK3fJ+vHgkA+3LMx7/PB+YCwL6w8yLOO+75LPvozXDqh3nkpr/zyC+n8r3jns+y457PeX/eAcAzwZQXccGXj4Wrv8qHbweAWsyeyhTgli8+n9N/Mpsf3fR3Hvn44QBMmvLS7/PIl4/l8o9eyOxf/p0LXno4i+fC5q07AIAdbNoEzJ7KFABgb3AnHz7u+Xz4dgDg6q+y7LjnM2nZcV/lcmD1T97JsuOeT61lr7+InQDAswWm8upf/p0LXjoVAJe5zGX/XxiAp2LT1h0A7G3T1h0APF233HAzzD2Ok6cAQOKWG24GZjN7CgA8HTCVD/zp7zxy09+p9aNTgbkv58qb/s4jN/2dSY/c9GHOBAAeDzsv4rzjns+HbweAp4vbv82y457P6T/ZAZt28NsvPp9lL7uJ5/zp71zw0qkAMOVwnjN3B9/41EXsPPK9PHLThzkTuPyjz+e8P+8A4InAnVx6NSw6+XBefcKxcPUd3AIAPJ5Nm+ADn3sRUwCAJ2vz1h0A7A/svJPLNgAb/sh7/7wDgMTOm29iNTu47OYdAPwr3H4h39hwM9//8w4AarFzB5sB2MFlN+8AYF82bdoBs6cyBQD4X3L5R5/PsuOeT61lH70ZgMdzzMf/ziM3/Z1nwyMfPxyA/eHML3+fD8wFTv0wj9z0dyY9ctOHORNYNHsqAMd8/O88ctPfSTxy03s5BgBIcPu3WXbcO/ntTgDYG0e+l0du+juTHvn44cDhfPWmv/PITX9nb1e+ZSoAi97yfX50KsBUPvCnv/PITX9nXy546VQAarHzIr5/NSw6+XBefcKxrL72TnYCALXYeRHfvxo49eW8egoA1OL2b7PsuOezL6f/ZAcAl3/0+Sw77vnsbdlx3+YWAGBfdv75nZz+kx1w6oe54KVTAXgqdv75j1zOsTznZIBjeecvv8+Vb5nK5b+8iJ0AwH+Dyz/6fJYd93wmLTvunXxjAwAk2Lqd1Uxl8QwA+G8CO/jt65/PstdfxE4AYBI7L+K8497Jb3cCwP7CqR/mkV++iCkAwL5w+x1cDlz+0eez7Ljnc/pPdgA387bjns+y474Kn/s7F7x0Kjv//E6Wvf4idgIACW7/NsuOez4fvn0qr/7l93n1FABIwJ18+Ljns+y457PsZTfxnD/9nUdu+juPfPxwdv75nSw77qtcDgCs/sk7WXbc86m17PUXsRMASHD1V1l23POZtOy4r3I5ADCJI8/lA3Ph8l9exE4AYG/HfPzvPHLTezkGYOdFnHfcO7ns5O/zyMcPB4Aj38sjN72XYwCYyuzZsHrTDgBgB6s2wJknHA7AJLiTDx/3VS4HVv9kO8+96e989UgAWPSW7/PITX9n0iM3fZgzgUVv+T6P3PR3aj3yyxcxBQB4tuz88ztZdtzzeSJvuxrgZt523PNZdtzzeTzn/XkHAC5zmcv+GxiAp2L2jKkA7G32jKkAPB2wA5gKG/7I6V+8EwC4k0uvBk49gmMAgKeKI9/LIzd9n1dPAYAnAw7nqzf9nQteOhWASdz+bZYd93w+fDsAPBPsvIjzjns+yz56M8x9OVfe9HfeyVf5xtUAO/jGy57PsuOeT2LZce/kGxuADX/kvX/eARzOV2/6Ph+YC6t/8k7O+/MOAB7Pzj//kcs5lne+dCoceS4fmHsz3//zDgAezzEf/z6vngIATwZMZfFcWL1pBwD7wy2/+SOrmcoHvvxy+Mk7Oe/PO4AdXHvtDgBW/+SdLPvinQA8HtjBb395M8x9Od9+6VQAau28+SZWcywfeMtUVl97JzsBgL0d8/G/88jHDwdgEtzJh497PsuOez6Tlh33Tr6xAbj6qyw77vkklh33VS4HVv/knSw77vmc9+cdAPynnPnlv/PITX+n1iNfPhaA/+9gKrNnA5t2sBMASHD7HVzOVJ5z7FQAEuy8iPOOez7Ljns+tZZ99GZgB9942fNZdtzz2Zdlr7+InQDAvnD7t1l23PNJnP6T2fzopr9zwUuncszH/84jfzqOy172fJYd93yWffFOAP6VW37zR1bPfTnffulUOPJcPsAfee+fdwBQ65bf/JHVTOUDrzkcgL1x5Ht55Ka/sy9XvmUqAGd++e88ctPf2dsjN72XYwCAve388zs5/Sc74NQP88jHDwfgqYA7+d5PdrDoLedyMgCQmPLS7/PIL1/EFABg1oypAOwPHPleHrnp7yQeuenDnAksesv3eeSmv5N45OOHA7Bz6yZgNrOnAMB/EtzM2457PsuOez6Tlr3sj6wGAPYFdvDb1z+fZS+7ief86cOcDADc8sXns+y45/NMffh2AHg2ceR7eeSmvzPpyrdMBY7lRzf9nUdu+j6vngIAmzbtgA03ce1OAEjccsPNwLE890gASLDzIs477vksO+6PLP7T33nkpr/zyE3f59VTgJ0Xcd5xz+e9fJhHbvo7+/KjUwFg0cmHMwUASHDqh3nkpr8z6ZGbPsyZAMAkmMqrP/dyFm34I+/98w4Ansgtv/kjqzmWd750KgD7cswJx8LVd3ALwO13cDlTWTwDABK3fPH5LDvuDp5704c5E1j0lnM5BoAdrNoAAE/Fzj+/k2XHPZ/Hs+y4d/KNDcCGP3L6cc9n2XHP5/Gc9+cdTHnp93nkpr/zeB7508tZBMCx/Oimv/PITX/n8Vzw0qkAuMxlLvtvYACeileddzYAe3vVeWcD8HTAVI75+Pd55KYPc+bVX2XZcd/mt3/+I5czlQ+85nAA9redWzcBx/LcIwFgEuzgt69/J7/dCQCTdm7dBMxm9hQA2BtM5QN/+juP/PJFTAGO+fjfeeSmvzPpyrdMBY7lRzf9nUdu+juPfPlYVl97JzsBmMqrf/l9PjD3WN750qkA7As7L+K9P9nBorecyzEATOXVrz+W1T+5kFsAgGcDTOXkk6fCph3sBAD+k7j927ztalj0lg/z6iNfxAV/ejlceye3/PmrfGMDnPnlv/PIn17Ooqu/yrLXX8ROAGBv3H4h39gAZ77+RUwBACbBnXzvJztY9JZzefVLX86ZG/7I924HgCcDDuerN/2dR276O5Me+fKxACTO/PLfeeSmv7O3C146FYAE3Mzbjns+y457PonTf7IDgFqrf/JOlh33fGotO+6dfGMDAPwv4uqvsuy45/NkvO1qANgX2ME3XvZ8lh33fJa97I+sBgBqHXPCsbDhJq7dCQCJW264GeYex8lTACDBlBdxwU1/55Gb/s6kR276Ph+YC8x9OVfe9Hceuenv7O1HpwJArVu++HyWHfd8Ji37KPzopr/zyE1/55Gb3ssxAECCKS/igpv+ziM3/Z1HTriDZcc9n1rLvngnAJO4/du87eqpfOBzL2IKAFN59edeDj95Jx++HQASO//8Tt52NSx6y4d59RQA+HeDHfz29c/n9J/sAICrv8qy457Pk7Hsi3cCkNj55z9yOcfyzpdOBWBv7NzBZgBgf4Ed/Pb1z2fZF+8EIAE7+O3rn8+HbwcA2MG11+6AU4/gGADgPwmO5Uc3/Z1Hbvo7kx7508tZBADs7ZYvPp9lx72TVa//O4/c9H1ePWUqU6YAwDEf/zuP3PR39nblW6YCcOaX/84jN/2df+WrRwLA/nDMxz/MmezgG7+5EwB2XsT3r4ZFbzmXYwCABFNexAU3/Z1Hbvo+r54CAHAnHz7u+Sz7FHz7pr9zwUunArC3W774fN52NSx6y/e54KVTAXiqmPIi3nkqrP7JhdwCANTa+ed3suy455N429UAN/O2457PsuOez6RlX7wTgARHHsGZ3Mz3/3wnv/3lzTD3OE6eAgCJYz7+dx656b0cAwDsbdaMqQA8WVNe+n0euenv7MuPTgWAM7/8dx656e/8Kxe8dCoAT+SW3/yR1RzLB96yie//eQcALnOZy/4XGICn4oXPPZnPfPDtzJ4xFYDZM6bymQ++nRc+92QAngk4nK/e9Hd+dOrNfOMnO+DUl/PqKQDwVHD7t1l23PN5Im+7GtjwR04/7vksO+75PJ7z/rwD2MG11+6AU4/gGABgErdfyDc27OCym3cA8GQw5UVccNP3efUUAHgyOPK9PPLLFzEFAICpvPqX7+UYAGBvsIPffuqPrJ77cr790qkAJDjyXD4w92be9vqL2AkAPBumzJgNG27i2p0AkNj553ey7LhvcwsA8O/Azd9m2UdvhlM/zAUvnQoAU17EBZ+D7/9kB5z6Yb56JDDlRVxw04c5c8Mfee9vtgNQC3bw21/eDHNfzruOBIBaO//8Ry7nWN750qnA4bzrLVO5/KPf5hYA4Om45YabYe7L+cCpcPkNdwLwROBYfnTT33nkpr+TuPItUwGotegt3+eRm/5OrUdu+j4fmAsA/4s49cM8ctPfeTJ+dCoA7AtM5QN/+juP3PR3HvnTy1kEANTiyCM4kx184zd3AsDOi/j+1bDo5MOZAgA8HnbeyWUb4MzXv4gpAMC+MHsqUwCAxDEf/zuP3PRhzgQA4GbedtzzWXbc80ksO+7b3ALAnXz4uOez7Ljnk1j20ZsBSMCx/Oimv/PIxw8HIAF38uGP3syit3yYV08BgARTXsS33zKVyz/6Tn67E7j925z+kx1w6oe54KVTAfh34/Zvs+y4d/KNDQCw6C3f55Gb/s6/8shN3+cDcwGg1plffi/HAAB7Y+t2VnMszz0SAB7PLV98Psu+eCcAzzZuv5BvbJjKB15zOAAJmMqrX38sl3/0nfx2J7DzTi7bAItmTwVgb7d88fks++KdAEyCm3nbcc9n2XHPp9ayj94MwL8DG/7I6cc9n0tP+DuP3PR3vnokAPwr7LyI9/5kB5z6Yb56JAAkdv75nZz35x0A/LvAnXz4uOdz3p93ALA3uJm3Hfd8lh33fM778w4A4HDe9ZapcPVX+fDtcMtv/shqjuWdL50KwL6w8yLOO+75LDvuDp5709955Jcvgj+/k/P+vAOAWrd88fm87Wo488t/54KXTgXg6TrmNS9n0anTmL0TYAerNsCi2VMBmPLS7/PITd/nA3OBuS/nypv+ziM3/Z3EIzd9mDOBRbOnApCAw3nuqbD6J1/lGxvgzNe/iCkAwBNh5w42M5XFM+7kw8c9n2XHPZ/EsuO+yuXA6p+8k2XHPZ9Jy754JwCPZ+ef38nbroZFb/k+Xz0SABI7//xOln3xTgCeKm7/Nm+7Gs788nt59UtfzqyffJXf7gQAl7nMZf/tDMBT9cLnnsw/f/d9Hrnp7/zzd9/nhc89GYBnAzsv4vtXAwBXf5Xz/rwDgKeCI9/LIzf9nX350akAx3LmqcDcqSwCzvzy33nkpr+zLxe8dCrsvJPLNsCZJxwOwCS4kw9/9GYWveX7XPDSqQAkYAfXXrsDTj2CYwCAWjv//E6WHfd8nsjpP9kB3Mzbjns+y457Po9n2RfvBGBvt3zxnXxjw1Q+8LnDufb1z+fDtwMATOXVv/wwZ274I+/98w4Ani7YwW9f/3w+fDtw5Ll8YO4OLrt5BwCJTZt2wNxpzAYAnm2wg29cu4lFp36YRz5+OAAJdl7EeS/7I6vnvpwrP344AAk4nK/e9HcueM00AGpx+4V8Y8NUPvC5FzEFAJjE7d/m9J/s4Mwvv5djAIApL/0wH5h7M2/74p0APFVwJ5deDYtOPpxXn3AsXP1HfrsTAPZlyku/zyM3vZdjAIDElJd+n0duei/HAHA4X73p71zw0qkA1IKpvPqXf+eRX76IKQDA47n8o89n2XHPp9ayj94MwH8aTOXVv/w7j3z8cACejGM+/nce+eWLmAIAPFVwOF/98rFw9R/57U645Td/ZDXH8s6XTgXg8cAOfvupP7J67st515EAsDfYwaZNAPB4Fr3l+zxy09+ZdOVbpgJQa9Fbvs8jN/2dSVe+ZSoAtWAHv339V7l87sv59kunAlBryku/z49O3cE3XvZ8ln30Zpj7cq78+OEA/Lvt/PM7WfbRm1n0lu/zyE0f5kwA4Oma8tLv89UjAWBfbrnhZpg7jdkAwBNh0w52AgDPFriTD3/0Zha95cO8egoATOLI93LlW+Abv7mTnTffxGqO5Z0vnQpALdjBpk0AUAuO5Uc3/Z1Hbvo7e3vkpu/z6ikA8GTAzbztuOez7LjnM2nZy/7IagBgEnNfzpU3/Z2vHgkACbiTDx/3fD58OwDsDe7kwy/7I6vnvpwrP344ALVW/+SdnPfnHQA8FTv//E6WffFOAJ4IO3ewGQC45YvPZ9lxz2fS6T/ZARzLj276O4/c9HcueOlUABJTXvphPjAXLv/o83nb1bDoLedyDABQC+7kw8c9n2Uv2847b/o7j9z0Xo4BADZt2sHqn3yV3+4EANjBb1//fN529VQ+8Ke/89UjAeCZYMqLuODjL2LKFADY284/f5VvbIAzX/8ipgAAiZ1//iOXM5XnHDsVgEnHvOblLAKY+3LedSQA/Cs7b76J1cxm9hQAWPSW7/PITX9nb4/c9H0+MBcAHg+3f5vTf7KDRW/5Phe8dCoACdjBpk3A1V9l2esvYicA8GSw8yLO++jNcOqH+eqRAIfz1S/P5hsv+za3AAAuc5nL/psZgP8WcCcfftkfWc2x/Oimv/PIl49l9U/eybLXX8ROAODpgjv58HHP522bXs6VN72X5wJwHN++6cPw0edz3p93ALAvO2++idVzX867jgSASZd/9KtcfuqHueClUwGYxM47uWwDcPVX+fDtAFBryku/zyM3/Z0ncuVbpgLH8qOb/s4jN/2dx/PIxw8HoNYtX3w+b7t6Kh/40/d5NTtYBVz+0efz4dsBAA7nq396OfzknZz35x0APBWwg9++/vksO+6dXHby9/nqkQBTefXrj2X1T77Kb3cCQILZU5kCACTgTj583PNZ9vqL2AkAPF0wlQ987vtc8PHDAZi0c+t2mPtyrvzli5gCADwR2MFvf3kznPpyXj0FACax8yLO++jNLHrL9/nqkQCQgKm8+nMvZ9HVX+XDtwPAU3HLF7/K5RzLO186FY58Lz86dQff+NRF7AQA9mXnn9/JsuPeyW93Auzgt69/Psu+eCcACdjBb1//fJZ98U4AErCD377++Xz4dgD4V8788t955Ka/s7dHbvo+r54CAP+Ldm7dBMxm9hQAeCIceS4fmLuDb7zs+bztajjzy+/lGADg8dzyxXfyjQ1T+cDnXsQUAODxLJo9FYB/F9jBb1//Tr7By7nyly9iCgBQi50X8f2rASDBhu1sAgD+3aa89Ps8ctPfueClUwH4d4I7ufRqWHTy4UwBAPYFdrBpEzB7KlMAgATcyYePez7LXn8ROwGAp2rnn//I5XNfzrdfOhWAvU156fd55DU7eO9PdrDoLedyDACwL4tmTwUgMeWl3+eRm97LMQDAMwXH8qOb/s4jN/2dSY/86eUsAgCeCDt3sBkA2Bvs4Lev/yqXcyw/+uWLmAIATJry0u/zyJePZfVP3smyL94JwBOBO/nwcc9n2XHP5718mEc+fjgAT4St21kNzJoxlWM+/nceuenvTLryLVMB+FdgKs85dioAe4PD+epNf+eRm97LMQDApGM+/n0+MHcH3/jURey8/dssO+6dfIOXc+VN3+fVUwDg341jP8yPToXLP/p8lr3+InYC7LyI9/5kB4ve8mFePQUAJu28+SZWA2z4I9+7HQCeCOzg2mt3wKlHcAwA8HRx+7dZ9tGbWfSW73PBS6cCMAmmcszHv88jXz4WNvyR019/ETsBgCfC7d9m2cv+yOpTP8wjHz8cgARHvpdHvgxvO+6d/HYnADwRuJMPH/d8lr3+InYCAC5zmcv+UwzAfwPYwW9f/1Uu51h+dNN7OQbgyPfyyE0f5swNf+T0L94JAOzgGy97PsuOez6Tlh33VS4HAPblli8+n2XHfRW+/Hce+eWLmAIAJOBwvnrT33nnpney7Lh38tudAFBr06YdLDr5cKYAAEw5nOfMBU79MI98/HAA4HC+etPfueClO/jwy/7I6rkv50dvmcrlH30+y754J8d8/O888ssXMQUA+HeAO/nwcc/nbVdP5QN/+j6vngJMOZyv/vL7fGAuXP7R5/Ph2wGAKS/igj+9HH7yTpZ98U4A/hXYwaoNwNV/5Bu8nCtv+jvv3PROlh33bW4BOPK9/OjUHXzjZd/mFnawaRMsmj0VgEns3MFmYNHJhzMFAHi2TTnyvVzwyxcxBQDYG1u3sxoASOz881f5xoapfOA1hwMwidu/zbKX/RHe8n0ueOlUAGox5UVc8OVjufyjz+fDtwPAk7Hzz+/kbVfDmV9+L8cAAMd8/MOcueGPnP7FOwHYGzsv4r0/2QGnvpxXTwGYysknT4Wr/8hvdwIATOXkk6fC1X/ktzsBYNLlH30nv90JAPvClBdxwU1/56tHAsD/R8ydxmwA4InAVGbPBgBO/TBfPRIA9gV28NvXP5+3XT2VD/zp+7x6CgDsC7dfyDc2wKwZUwH4d7nli+/kG7ycK3/5IqYAAJPgTj583PNZ9rI/snruy7nypr/zyE3f5wNzb+Ztxz2fD98OAP9f7PzzH7mcY3nnS6cC8HhgB6s2wKLZUwGYxM4dbAYWnXw4UwCAp2rKS7/PI798EVMAAHbuYDMAMOmW3/yR1RzLO186FQCYyuzZAJBg551ctgFmzZgKwP8K2MFvX/9OvrFhKh/403s5BgBg50Wcd9zzWXbc80ks++jNAHD1VznvzzsA2JfLP/p8lh13B8+96e88ctPfueClUwGAqSyeC2zawU4AoNbOrZuAqSyeAQBPBjsv4rzj3sk3NsCZX/4wZ7KDb7zs+Zz35x0APFkwlVe//ljY8EdO/+gmPvCnv/PIL1/EFADg2cbOHWwGZs2YCkBiypSpHPPxv/PITX/nR7P/yOnHPZ9lL/sjq+e+nG+/dCoAk3b++Z2c/pMdnPnlv/OjU+Hyj76T3+4EgMfDzju5bAOcecLhADxdt3zx+Sz76M0sesv3ueClUwHYF458L1e+ZSps+COnH/dtbgEA9gY7+O3rn8+yj97MmV/+O498/HAAanHke3nkT8dx2cuez3l/3gHA42HnDjYDi04+nCkAgMtc5rL/FAOwv8GdfPi4d/KNDcfyo5veyzEAQAIO56s3/Z1HPn44ADCVD/zp7zxy09+Z9MhNH+ZMAGAS7OC3r38+y457Pm/jwzxy09/56pEAsC/HfPzvPHLTy1n1suez7Ljn8+HbASBxzMf/zgUvnQoAOy/ivOPeyWUnf59HPn44AJPgTj583Fe5nGP50S9fxDEv/T6P/OnlLLr6qyx7/UXsBAD+HXb++Z0sO+6rXD735Vx50/d59RQASMBUXv3LD3MmxwJ3ApBgyou44KYPc+bVX2XZcc/nw7cDwOPh9ju4nKl84E9/55Ffvogp7GD2a/7OlW/ZxNuOeye/3QnHfPzv/OjUm3nbce/kGxum8pxjpwIwia3bWc1UnnPsVAD+E9h5Eecd93yWHfd8Ess+ejPMfTnvOhIAmDGbRae+nFdPAQDYwW9f/3yWffRmzvzy37ngpVMB2BeOfC+PfPlYLv/o81n2xTsBeCI7//xOTv/JDha95ft89UgASMDhfPVPL2fR1V9l2RfvBGAS7OC3n/ojqzmWH338cAASU176cs5kB9/41EXsBACmvPTlnMkOvvGpi9gJwFRe/cvv84G5O/jGy77NLQDAMwE7WLUBmD2VKQDAs4nbv82y457Ps+HDtwPs4Nprd8DsqUwBAJ7ILV98Pm+7eiof+NOHOfPqr7Ls9RexEwCotfPP72TZce/kG7ycK2/6Pq+eAgAJdl7Eecc9n2XHPZ9Jyz56M4ve8n2+eiQA7Mvqn7yTZcc9n0mn/2QHALVW/+SdLDvu+Uw6/Sc7AJh0zMf/ziO/fBFTAIAEt3+bZcc9n2XHfZXL576cK2/6O4/88kVMAWAqr/7l33nkpg/DR5/PsuOez3l/3gFAYuef38my457PEzn9JzsAuPyjz2fZcc/n8Sz74p0A7G31T97JsuOez7+y7Lh38o0NAPCvcPu3Of0nOzjzy+/lGACgFkeeywfm7uAbL3s+y477KpdzLO986VQAJrF1O6uZynOOnQrA0wU7+O3rn8+y457Pspf9kdUcyztfOhWAnX9+J2+7Gs788ns5BgBIHHPCsbDhj5x+3PNZ9rI/snruy3nXkQDwdOy8+SZWA7NmTAXgqYKpzJ4NbNjOJgBg0s6bb2I1U1k8AwASsIPfvv6dfGMDwA6+8bLns+y455NY9rI/svrUD/PITX+n1iNfPpbVP3kn5/15BwAJ2MFvf3kzcCw/uunvPHLTezkGAJgEU3n164+FDX/k9OOez7Ljnk+t03+yg0Vv+TCvngIAT4Tbv82y457Pspf9kdVzX86VN/2drx55OF+96e9c+ZaprP7JO1l23PP58O0A8ER2/vmdLDvu+Sz76M2c+eW/88hN3+fVUwDgX+Hqr7LsuOczadlxX+VyAOCJ3PKbP7KaqSyeAQC12HkR378aABJs+CPv/fMOABI7//xOTv/JDha95ft89Ug45uMf5kx28I1PXcROAGASO3ewGYAd/PZTf2T13JfzriMBILH6J+9k2XHPZ2/Ljnsn39gAAJNgB799/fN529UAsPon72TZcc/nibyXD/PIn17OIm7mbcd9m1sAgATs4Levfz7Ljnsn35j9YR656e989UgA2BemvIgLbvo779z0TpYd93yWffFOAPbG1u2sZirPOXYqAC5zmcv+kwzA/gQ7+O3rv8rlp36YR256L8cAAPvCke/lkZu+z6unAMAkOJyv3vR3LnjpVABu+eLzWXbcO/nG7A/zyE1/55GPHw7AvwKH89Wb/s4jN32fxb98PsuOez7LvngnAHAnHz7u+Sx72XbeedPfueClUwGYdMsXn8+y477K5ad+mEduei/HAABMeREX3PR9PsAfOf24d/LbnQDwbLrli8/n9J/s4Mwv/51HfvkipgAAteBwvnrTe/nqkYcDMAkO56s3/Z0r3zKVyz/6fJZ98U4AEhz5Xh656fu8egoAcOR7eeSm7/PqKQAAU5kyBaa89Ps8ctP3efUUADjm43/nkZv+ziM3fZ9XTwGASbfccDPMPY6TpwDA08WR7+WRm77Pq6cAwBNhyou44Ka/88hNf2fSI798EVMAgClHvpcLPn44AHAnHz7unXyDl3PlTX/nq0cCwBPhyPfyyJ9ezqKrv8qyL94JwL7c8sXnc/pPdrDoLd/ngpdOBaAWU17EBTd9mDOv/irLjnsnv90JANx+Id/YAGd++b0cAwAk4HDe9ZapsGE7mwAAOJx3vWUqbNjOJgAApvLqz72cRdzMpbcDwFPBzos477jns+y455NYdtxXuZxj+dHHDwfg2caR7+WRm/7Os+GrRwI77+SyDXDmCYcD8ERu+eLzedvVU/nAn77Pq6cczldv+j4f4I+cftzz+fDtAMDOizjvuOdz+k9m86Ob/s4jv3wRUwCASUx5ERfc9Hceuenv1LrgpVMBeDyL3vJ9Hrnp70y68i1TAai16C3f55Gb/s6kK98yFYB9YedFnHfc81n20Zs588t/55Gb/s4jv3wRUwCAWnA4X73p7zxy04eZ9ZN3suy453Pen3cw5aXf55Gb/s6z4ZGPHw7A3ha95fs8ctPf+Vceuen7fGAuADwR2MFvf3kznPphvnokAOwNpvLqX/6dR276O4lHbnovxwAAk2654WaYexwnTwGApwum8upf/p1Hbvo7iUduei/HAHAn3/vJDha95ft89UgAmMSR7+WRm/7OpEd++SKmAAD/Cuzgt69/PsuOez6TTv/JDjj1w3z1SAB4PLCD377++Sw77vkse9kfWT335bzrSAA45jUvZxE387bjns+y457PpNN/soNFb/kwr54CAAmYyqt/+Xceuenv7MsjHz8cgFoc+V6ufMtUACbBVF79y7/zyE3v5RgAYF848r08ctPfeTwXvHQqAE9k55/fybKP3gynfphHbvo7j/zyRUwBABJTXvp9Hrnp7/zoVLj8o89n2RfvBKAWt3+bZcc9n8TpP5nNj276O4/c9He+eiQAPFmc+mEeuenvTHrkpg9zJgAwaeef38my455PrbddDWd++fu8egoAJLj92yw77vkse9kfWX3qh3nkpr+TeOSmDzPrJ+/kvD/v4JYvPp/Tf7KDRW/5Phe8dCoAcDhfvenDnLnhj5z++ovYCXD7t1l23PNZ9rI/sppjeeexO7hsw1Q+8LkXMQUASCx6y/d55Ka/s7dHbvo+H5gLAJNgKq/+5d955Ka/82Rd8NKpMOVFXPCnl7No7iY23Q4AO//8TpYd906+MfvDPHLT33nk44cD8GQc8/G/88hNf+dHfJVlxz2fZV+8E4BJt9xwM8w9jpOnAIDLXOay/yQDsD/BVF79y7/zyMcPB+DZcMzH/84jN/2dRz5+OABPFUzl1b/8O4/c9Hce+fjh3PLF57PsuK/Cl//OIze9l2MAgAQ7L+K8457P2za9nCtv+juPfPxwAGrBVF79y79z5VvgG5+6iJ0AwBOZ8tLv88hN7+UYAOCJHPPxv/PITX/nq0cCwNMx5aXf55Gb/s4jHz8cgH8H2MGmTbDo5MOZAgD8t4HD+epNf+eRX76IKQDAk8GUF3HBTX/nkY8fDsDebvni83nb1VP5wJ/+zgUvnQrAvsDhfPWmv/OjU3fwjZc9nw/fDhz5Xh656e989UgAqDXlpd/nkZveyzEAQGLKS7/PIze9l2MAgARTXsQFN/2drx4JAMd8/O888ssXMQUAeCJMeREX3PR3Hrnp70x65Kb3cgwA8N9u5803sXruy3nXkbDzz+9k2XHPZ9nL/sjquS/nXUcCQOLyjz6ft216OVfe9H1ePQUAYCqv/uXfeeRPL2fzR5/PstdfxM4pL+KCm/7OIze9l2MAgGcKDuerN/2dC146FYBJU176fR656b0cA8DhfPWmv3PBS6cCMGnKS7/PIze9l2MAgFpMeREX3PR3Hrnp73z1SAD4V+BwvnrT33nkpr9zwUunAvDvAofz1Zv+zgUvnQrAvwJTefUv/84jHz8cgL1Neen3eeSm93IMU3n1L//OIx8/HICnA3awaRMsOvlwpgAAzzY4nK/e9HcueOlUAJ4tMJVX//LvPHLT36n1yMcPB2BvU176fR656b0cA8BUXv3Lv/PITX8n8cgvX8QUAIApL+KCm/7OIzf9nb1d8NKpADxTU176fS546VQA/hOmvPT7PHLTezkGmPLS7/PITX/nkY8fDsDjOebjf+eRm/7OIx8/HIBbvvh8lh33fBLLbjiCR276O4lHbnovxwAATxZM5dW//DuPfPxwACbB4Xz1pr9zwUunApCY8tLv88hNf2dvXz0SABK3fPH5LPvozSx6y/d55Ka/88jHDwcgAYfz1Zv+zrf5Km+7eiof+NPfueClUwGYBIfz1Zu+zwf4I6d/8U448r08ctPfSTxy03s5ZsqLuOCm7/PqKQAAh/PVm/7OBS+dCsDeYCqv/uXfeeTjhwPwTDHlRVzwy+/z6iMBYMpLv88jN/2dRz5+OABPxzEf/zuP3PR3Hvn44QAkYAebNsGikw9nCgDgMpe57D/JALjomI//nUd++SKmAABP5JiP/51Hbvo7Xz0SAGox5UVccNPfeeSXL2IKAPB4prz0+zzyyxcxBQBwDUzl1b/8Oxe8dCoA/9/B4Xz1pr9zwUuncszH/84jN32fV08BgH/lmI//nUdu+jtfPRIAXPZMTXnp93nkly9iCjDlpd/nkZv+TuKRX76IKQBTXsQFN/2dR276O4/88kVMAQBqMeVFXHDT33nkly9iCgDgMhfAVF79y79zwUunAuAylz0Zx3z87zxy099JPPLxwwH4b3HMx//OIzf9nQteOhWAfZny0u/zyE3f59VTAGBvMJVX//LvPPLxwwFwEUzl1b/8Oxe8dCoALnOZy/7TDIDLXOYyl7nMZS5zmctc5jKXucxl/x8ZAJe5zGUuc5nLXOYyl7nMZS5zmcv+PzIALnOZy1zmMpe5zGUuc5nLXOYyl/1/ZABc5jKXucxlLnOZy1zmMpe5zGUu+//IALjMZS5zmctc5jKXucxlLnOZy1z2/5EBcJnLXOYyl7nMZS5zmctc5jKXuez/IwPgMpe5zGUuc5nLXOYyl7nMZS5z2f9HBsBlLnOZy1zmMpe5zGUuc5nLXOay/48MgMtc5jKXucxlLnOZy1zmMpe5zGX/HxkAl7nMZS5zmctc5jKXucxlLnOZy/4/MgAuc5nLXOYyl7nMZS5zmctc5jKX/X9kAFzmMpe5zGUuc5nLXOYyl7nMZS77/8gAuMxlLnOZy1zmMpe5zGUuc5nLXPb/kQFw2X8juJMPH/d8ln3xTgBc5rL9idu/zbIv3gnA3nb++Z2c9+cdADwZO//8TpYd905+uxMA/htw+7dZdtzzWfbFOwF4InAnHz7u+Zz35x0AuOw/AXbw29c/n2XHPZ9lX7wTgP82t3zx+Sx7/UXsBABc9p8Ed/Lh457Psi/eCcDebvni81n2+ovYCQD8J8EOfvv657Ps9RexEwDYl51/fifLjvs2twAALnOZy1zmsqfKAPw32fnnd7LsuHfy250A8N8I7uTDxz2f8/68A4BnGzun8ty3TIWrv8qHbweAZwJ28NvXP59lr7+InQDAM8HOizjvuOfz4dsBYH+DO/nwcc/nvD/vAODp4vZvs+y4b3MLAPB4uP3bLDvunfx2JwDsD7CD377++Zz35x0APNt2Aouu/irn/XkHAJPYeRHv/ckOVl97JzsBgCcCO7j22h0w9zhOngIATxXs4Levfz7Ljns+iWVfvBOApwvu5MMfvRkArv4qy754JwD/Djv//E6WHfdtbgEA/lO4/dss++KdAOyNnRdx3nHP58O3A8CkW774fJa9/iJ2AgD7yy1ffCff2AAAXP1HfrsTAJ6snX9+J8uO+za3AACwg9++/vkse/1F7AQA4E4+fNzzOe/POwD4T9r553ey7LhvcwsA8Ezt/PM7WXbcO/ntTgDY284/v5Nlx72T3+4EgCfCzos477jns+yLdwKwN3ZexHnHPZ9lX7wTgCcCO/jt65/Psi/eCcDj2fnnd7LsuG9zCwDwRG754le5nKl84DWHA/Bk7fzzO1n2+ovYCQD8O7DzTi7bAGe+/kVMAQC4/dss++KdADwRbv825/15BwAuc5nLXOayf8UA/DfZtGkHMJvZUwDgmeD2b7PsuOfzdJz35x0APBmwg9++/vksO+75/CvLXn8RO2//NsuOez6PZ9nL3snbfrIDgMs/+nyWHfd8Hs+HbweA/yQ4nOecCpd/9NvcAgD8N4Ed/Pb1z2fZcc/nX1n2+ovYCcCdfPijNwM387bjns+y457P3pa9/iJ2ArfccDPMPY6TpwDA3mAHv33981l23PN5Jpa9/iJ2AgB7Y+cOmD2V1T95J+f9eQcATxa3f5tlxz2ffVl23Le5BZhy5Hv59lumsvon7+TDtwMA7OC3n/ojq0/9MI/88kVMAQBqwZ18+Ljns+y455NYdtw7+cYGYMMfOf2457PsuOezt2Wvv4idAECC27/NsuOez6Rlx72Tb2yAM7/8dx656e888vHDAXi6bvniV7mcqXzgT3/nkS8fC1d/lWVfvBOABDsv4rzjns+HbweA/5Sdf34ny457Pk/Hsi/eCcCknVs3wdVf5cO3A8Czidu/zbLjnk/ivD/vgNu/zbLjns+/8uHbAeCJ3PLF5/O2q+HML/+dR276Ph+Yu4NvvOyd/HYnAPx/MOWlL+dMbub7f94BQAJ28NvXP59lxz2fJ7Lsi3cCUGvTph0w9zhOngIATxfs4Lef+iOr576cKz9+OAB723nzTazmWH708cMBeDrgTj583PNZ9sU7AXiyuP3bvO1qOPPL3+fVU4CdF3Hecd/mFgBgX+BOPnzc8zn92uO48pcvYgoAO/jt65/PsuOezzOx7PUXsRMASNzymz+ymmN57pEAkNg5YxpnXv1Vln3xTgD2hdu/zbKP3szqa+9kJwDgMpe5zGUueyIG4L8F7GDTJmDuNGYDALW4/dssO+75PJ7z/rwDgFowlQ/86e88ctPfqfWjU4G5L+fKm/7OIzf9nUmP3PRhzgQAanH7t1l23Dv57U4AqAVTefUv/84jN/2dxCM3fZ8PzAXmvpwrb/o7j9z0dyY98ssXMeXI9/LITX/n8Tzyp5ezCODUD/PITX/niXz1SAB4Nu388ztZdtzzeTzLXvZOvnE1wM287bjns+y45/N4ln3xTgCebdz+bZYd905+uxMAasFUXv3Lv/PITX8n8chN3+cDc4G5L+fKm/7OIzf9nUmP/PJFTGEHv339V7n81A/zyE1/5/E88ssXMeX2b/O2q4ENf+T0457PsuOeT63z/rwDgASnfphHbvo7T9UjN32fD8wFgMfDlMN59ce/z5Vvmcrqn3yV3+4EgCeDI9/LIzf9ncQjXz4WmMoH/vR3Hrnp7zxy03s5BgCY8tIP84G5U9m89U4AbvniO/kGL+fKjx8OwBNZ9Jbv88hNfyfxo1Nh0Vu+zyM3/Z29/ehUAKjFke/lkZv+TuKRmz7MmcCit3yfrx4JAAnYwW9f/3yWHfd8Hs+y11/ETgBg0s4/v5O3XQ2L3vJhXj0FOPK9PPLlY+Hqr7Lsi3cC8K/s/PM7WXbc89nbh2+HnX9+J8uOez6TTv/JDuBm3nbc81l23POZdN6fdwBQa8pLv88jN/2dJ+tHpwIATOUDrzkcgElTXvp9fnQqXP7Rb3MLAPB0cfu3WXbc85m07KPwo5v+ziM3/Z0LXjoVAJjKB/70dx656e/s7ZE/vZxFAMATueWLz+dtV8OZX/47Xz0SYCqv/uX3+cDcHXzjZe/ktzsBYG+3fPH5LDvu+Uw6/Sc7gJt523HPZ9lxz2fZce/kGxuADX/k9OOez7Ljns+y477K5cDqn7yTZcc9n0nn/XkHANz+bZYd93wez9uuBjb8kdOPez7Ljns++3Len3cAwM6LOO+457PsuOeTWHbcV7kcWP2Td7LsuOeTWHbchcz+5d955Ka/k3jky8cCcOaX/84jN/2dSY98/HAAJsGdXHo1MHsqUwCApwp28NvXP59lx72Tb2wANvyR0497PsuOez6J8/68AwDYwbXX7gBu5m3HPZ9lxz2fWsuO+za3AABPhNvv4HLgzBMOB+DJ4PZvs+yjN7PoLd/nq0cCQAJu5m2vv4idAMAk2MFvX/98lh33Rxb/6e888ssXMQUAgKm8+pd/55Gb/s6kK98yFTiWH930dx656e/UeuSm7/OBucCpH+aRm/7OpEd++SKmAADsvIjvXw1wM2877vksO+75JL639UV89U8vZ9HVX2XZF+8EoBY7L+K8j94Mp36YR375IqYAAC5zmctc5rInYgD+W8AOVm2ARScfzhQAYG8wlQ/86e88ctPfmfTITR/mTADgP2n1T97JsuOez7Lj3slvdwJAAnawagMsOvlwpgAAe9v553fy4dsBoBbcyYdf9kdWcyw/es1UdgIAe7vli+/ktzsB4Nk25aXf55Gb/s6z4ZGPHw7Af8Lqn7yTZcc9n2XHvZPf7gSABOxg1QZYdPLhTAEAat3yxXfyjdkf5srZf2TZcc9nX5a9/iJ2cicf/ujNAHDqh3nkpr+TeORPL2cRU/nAn/7OBS+dCkCtnX9+J8uOeye/3QkAz6YpL/0wH5i7g2986iJ2AgBPxS033Axzj+PkKQA7+O3rn8+y455PYtlx7+QbG3aw+idfZdlxz+dtVwMb/sjpxz2fZcc9n8Sy11/ETgBgX2AHs1/zYWb95J0se/1F7AQAni2c+mEeuenv1Hrkpu/zgbkAUIvbv83pP9kBp36YC146FYAER76XR/70chZd/VWWffFOAJ7IlJd+n0du+juJR276Ph+YC3Aszz0Sprz0+zxy09+ZdOVbpgLH8qOb/s4jN/2dR276MGcCAE8X3MmHj3s+b7samPtyrrzp+7x6CgDUOubjH+ZMbuZtX7wTgKeLI9/LIzf9ncSVb5kKwLMJ7uTDxz2ft119LD+66e989UgASMBUXv3Lv/OjU3fwjZc9nw/fDgC1jvn433nkpr8z6cq3TAWO5Uc3/Z1Hbvo7j9z0fT4wF5j7cq686e88ctPfeeSmD3MmsOgt3+eRm/7OpAteOhUAjnwvj9z0dx7Pj04F5r6cK2/6O4/c9Hf25YKXTgVg0plf/jtXvmUqzH05V970dx656e8krnzLVABq7dy6CTiW5x4JAI+H2+/gcuDMEw4H4Jng1A/zyE1/Z9IjN32YMwGABLdfyDd4OVfe9HceuenvTHrkpu/zgbnA3GnMBgBqcfVXWfb6i9gJAOzcugk4luceCQD/yi1ffD7LPnoznPphLnjpVAASTHkRF/zp5Sza8Efe++cdACTY8EdOP+6drHr933nkpu/z6ikA8O90y2/+yOpTP8wjN/2dWl89EpjyIi748rFw9R3cAgBMuuU3f2T1qR/mkY8fDoDLXOYyl7nsyTAA+xPs4Levfz7Ljns+y477KpcDq3/yTpYd93wmLXv9RewEAJ4q2ME3XvZ8lh33fGq97Wpgwx85/bjns+y45zNp2XFf5XIA4F9Z9Jbv88hNf+eRm77Pq6cAQILb7+ByYNaMqQDsy6ZNO7j8o8/nw7cDQAJ28NvXf5XLOZYf3fRejpkylSk7L+K8497Jb3cCQOKWLz6ft129g2/85k4A/hXYwaoNAPBUcfu3WXbc83kqzvvzDgD+0xa95fs8ctPfeeSm7/PqKQCQ4PY7uByYNWMqAHs75uN/55GPH86mTTtY9Jbv88iXjwUApvKBP/2dK98yFWZPZcrtd3D53Jdz5Z9ezqKr7+AWAOCW3/yR1ae+nFdPAQCYyqt/+Xce+fjhAGzatAOYzewpAPCvwFRe/cu/88gvX8QUAODxwFRe/fpjYcMf+d7tAPBkwQ42bYJFJx/OFACm8upf/p1Hbvo7j/zp5SxiKh/409955Ka/k3jky8cCx/Kjm/7OIzf9ncQjv3wRUwCAfYGpTJlyOF+96ft8gD/y3j/vAOA/jdu/zbKP3gxzX86VHz8cgFpMeREX/OnlLLr6j/x2KwD8K7CD377+nXxjw7H86Kb3MvvP72TZcc+n1uk/2QHczNuOez7Ljns+y477KpcDq3/yTpYd93yWffFOAJ4sbv82y477KpcDi97yfR755YuYAgDsDQ7nXW+ZyiJgJ3DLF5/PsuOez7KX/ZHVwOUffT7Ljns+k952NbDhj5x+3PNZdtzzWfbFOwH4d9r553ey7LivcvmpH+aRm97LMQDA3o75+N955MvHcvlHn8+y11/ETgDg342dF3He6y9iJwDwRGAHv339O/ntTgDYG9zJ936yg0UnH84UAGBfYAfXXrsD5k5jNgDweG654WYALv/o81l23POpteyLdwLwbIA7+fBHb+bM17+IKQDAE7nli89n2RfvBIBTj+XMDX/kvX/eAdzJ936yA7iZtx33fJYd93xO/8kO4GbedtzzWXbc85m07Lh38tudcMxrXs4igKu/yrLjnk+tZZ+Cb3/5WFb/5J18+HYAYO7LufKmv/PVIwEgAXfy4eOez4dvB4BnEzsv4vtXT+UDrzkcgH3hyPfyyE3v5RgAYNIxH/87j3z8cABc5jKXucxlT5YB2J9gKq/+5d955Ka/c+VbpgLH8qOb/s4jN/2dxI9OBYCnC6bygT/9nUdu+ju1fnQqMPflXHnT33nkpr8z6ZGbPsyZAMBTAXfy4eOez7Ljns+yj94MwOUffT7Ljns+k5a9/iJ2AgDHfPzvXPmWqVz+0efz4dsBdvDb17+Tb2w4lh/d9F6OAeBOPvyyP7J67mxmA7CD377++bztalj0lu/zyMcPB4Dbv82y457P41l23Fe5HGDDHzn9uOez7Ljn83g+fDsA7O3ML/+dR276O0/kkZs+zJkAwP4Gd/Lh457PsuOez7KP3gzA5R99PsuOez6Tlr3+Inayg9++/vksO+75vO1qWP2Td7LsozcDADv4xsuez+k/2QFXf5VlH70ZZk9lypQX8c5Tb+Ztr7+IW/78Tt529VQ+8JrDAdgb7GDTJoCbedtxz2fZcc/nyTjvzzsAeDJ2bt0EwOUf/Ta3AABPBjvv5LINU3nOsVMBqHXLb/7I6rnHcfIUAEjccsPNcOoRHAMATGLnRZx33PNZdtzzWXbcV7kcWP2Td7LsuOczadlx7+QbG2D1T97JsuOez6S3XQ1s+COnH/d8lh33fM778w5u+eLzWXbc80ksO+6rXA6s/sk7WXbc85n04dsB4Mm45YvPZ9lHb4a5L+fKX76IKQDA3pjyIi646fu8egYA/Cu3fPGdfGPDVD7wp/dyDDDlpd/nkZv+Tq0r3zIVOJYf3fR3Hrnp7zxy04c5E1j0lu/zyE1/55GPHw7AvwI7+O3rn8+yj94MTOUDf/o7F7x0KgBPZMpLv88FHz+cKcAxH/87j9z0dx7508tZBJz55b/zyE1/Z9KPTgXmvpwrb/o7j9z0dx75+OEA7PzzO1l23PNJnP6THcDNvO2457PsuOez7It3AgA7+MbLns+y457P3pa97I+sBgAmsfMizjvu+Zz+E/jAn/7OIx8/HIAnwpHv5ZGbvs8H+COnH/d8ln3xTgD2NuWl3+eRm97LMQAATOXVv/w7j/zyRUwBAOBwvnrT37ngpVMBeDw7b76J1Rv+yOmvv4idAMDjueWL7+QbG3bwjd/cCcAkpryIC276O1/lDi4HVv/knSw77vlMOv0ns/nRTe9l9p/fybLjns+y497JNzYAG/7I6cc9n2XHPZ/EsuO+zS0AQALu5NKrYdFbvs8jN/2dSY/c9GHOBBbNngrAs2Hnn//I5RzLc48EgCcCO9i0CRbNngoAHMG73jKV1T/5Kr/98x1czrH86Ka/88hNfydx5VumAsfyo5v+ziM3/Z1Jj9z0fV49BZjyIi646e88ctPf2dsjv3wRU458Lz86dSqbt94JwL6wcwebAYBn286bb4K3fJhXTwGAWnAnHz7u+Sw77vlMOv0nO4Cbedtxz2fZcc9n0rLXX8ROAMBlLnOZy1z2RAzAU/XXS6/l7Fe9k2XHPZ+zX/VO/nrptQA8E7CDa6/dAXOnMRsAgB1s2gTMnsoUAOC/3aK3fJ9Hbvo7e/vRqQBQa8pLv8+Vb5nK5TfcCbdfyDc2ANzM2457PsuOez7Ljvsql5/6YR755Xs5ZgqwcwergDO//HcueOlUABIc+V4euenvPJ5H/vRyFgFwLD+66e88ctPfeTxfPRIA/r9Y9Jbv88hNf2dvPzoVAGAqr/7l33nkTy9nEcfyo5v+ziNfPhY4lh/d9HceuenvXPmWqTD35Vx509955OOHA3DMxz/MmRv+yNt+soMzv/x9Xj0FAPYGO1i1ATj1wzxy0995si546VQA/hXYwbXX7oC5U1nEzXz/zzsAeDJ23nwTq099Oa+eAgCT4E4uvRrOfP2LmAIAwJ1cejWcecLhANRiyou44Ka/88hNf+eRmz7MmcCit3yfR276O498+ViY+3KuvOnvPHLT39nbj04F5r6cK2/6O4/c9HcueOlUjvn433nkpr+TeOTLxwKw6C3f55Gb/s6krx4JAE/GMR//MGdyLB84+SZOP+75LDvu+ezLsi/eCcCTccsXn8/brp7KB/70fV49BQD+nXb++at8YwMw9+VcedP3efUUAPhPmPLS7/PITX/nkZs+zJkAHMuPbvo7j9z0dx75+OEAwFQ+8Ke/88hNf2dvj/zp5SwCABLc/m2WveyP8Jbv88hN3+fVXMR5xz2fZcc9n39l2evv5ORf/p1Hbvo+H9j0VZYd905+u/NOPnzc81l23PN5JpYd921uAQAmTXnp93nkTy9n0YY/cvoX7wRgX2754vN529Vw5pf/ziMfPxyAWrCD3/7yZha95fs8ctPfSTxy0/f5wFxg7jRmAwBwLD+66e88ctPfqXXlW6YCUIvb7+ByjuWdL50KwCR27mAzMGvGVAAmrfrNOznvzzsAeCpgB9deu4NFbzmCTa//NrcAAI+HnXdy2QaYNWMqAIkpL305Z556HFx7M5x6BMcAAM+WYz7+fS546eHMnj0VNmxnEwAwia3bWc1UFs8AgGfTlJd+nwuOvZPzjns+y457PpOWvf4idgIAi97yfR656e88nh+dCgAuc5nLXOayJ8MAPBV/vfRaPvP1H7Jp6w4ANm3dwWe+/kP+eum1ADxd7LyTyzbAopMPZwoAADtYtQEWzZ4KwP5yyxefz7KP3gzs4Bsvez7LjvsqlwOrf/JOlh33fBIfvh0AJnH7t1l23Dv57U4AeDxTXvp9Hvn44XDke3nkpr+TeOSmD3MmwKkf5srZf+S8P+8AgCnAhmN57pEA8GSxdTurAbiZS28HgKfq8o8+n2XHPZ8nsuy4r3I5APDvdMsXn8+yj94M7OAbL3s+y477KpcDq3/yTpYd93wSH74dACZx+7dZdtw7+e1OANgbW7ezeu40ZgM7Z5zLj069mbe9/iJ2AgDMnsoUAGDnn9/JsuO+yuVzX84HToXLP/p8zvvzDgD2xs4dbAYWzZ4KwLONnXdy2QZYdPKHeeepsPraO9kJADwRuJPv/WQHXP1Vlh33fBLLXn8RO4Gdf/4jl899Oe86Em754vNZdty3ueX2O7h87st515HA7d9m2XHP58O3A0CtnX/+I5czleccOxUAjnwvj7x+O6cf921uAQCeiltuuBmAZwIO56s3vZeTATiWH930dx656e9MeuSm7/OBuQDwZMCdXHo1wA6+8bLns+y455P48O2w88/vZNlxz2fS6T/ZAdzM2457PsuOez7LjvsqlwMATxVM5QOfexFTAIDHs/PP72TZcc9n0odvB4Bnitvv4HIAoBZHvpdHbvo+r54CAHtjyou44Ka/89UjAYAj38sjN/2dC146FQCmvIgLbvo7j9z0d/6VR375IqYAMJVX//LvPHLT93n1FABY9Jbv88hNf+fpuPItUwHYF6a8iAu+fCyLgJ0AQC12XsT3r57KB/70d756JADsjdsv5Bu8nG+/dCoACW6/kG9smMoHPvcipgAAk+BOPnzc8znvzzsA2Bvs4Le/vJlFbzmXYwCASTtvvonVTGXxDABIwA4uv3oHq3/yTpZ98U4AniyYyqt/+XcuOHYHl224mbd98U4AHg9bt7OaqSyeAQAJOJyvnrCdb2yYygdeczgAT8XOP7+TZcc9n8fz4dsBYMpLX86Z3Mzbjns+y457PpOWffRmOPXlvHoKADzbmPIiLrjpw5wJLHrL93nkpr/zyC9fxBQAwGUuc5nLXPZsMgBPxe8u+CcAe/vdBf8E4Oli63ZWM5XnHDsVgAS338HlTOU5x04F4OmAHXzjZc9n2XHPp9bbrgY2/JHTj3s+y457PpOWHfdVLgcAJh3z8b/zyE1/54l89UgAeDp2/vmdnPfnHQCw8yLOO+6rbH7L93nk44cz5djj4Cdf5bc7gdvv4HJu5m3HPZ8P3w4AT8YtN9wMc1/OB06Fy2+4E4Cn6swv/51Hbvo7T+SRmz7MmQDAv9MxH/87j9z0d57IV48EgCfrlhtuhg1/5PTjns/pL3snb7sa2PBHTj/u+Zz+kx1w9VdZ9sVv8+Hjns/pP5nNj276O4/88kW8+uN/55Gb/s47N72TZcc9n/P+vAOASWzdzmpg1oypADzbbvnNH1nNsbzzpVM55jUvZ9GGP/K92wHgiXD7HVwOcOqHeeSmv/OjUwEAdnDttTs48/UvYsrOi/j+1bDoLefCDTez6OTDmQLccsPNwLE890gAmMTOi3jvT3aw6C0f5tVTACDBke/lyrds4m3HfZtbAIAE7GDTJmD2VKYAALXgTi69GgDYdCHnvf4idgIA+xMczldv+juP3PR3Eo/86eUsAgCmvPT7PHLT35l05VumAsfyo5v+ziM3/Z1HbvowZwIAk2754vNZdtzzeSKn/2QHsINvvOz5LDvu+TyeZV+8kykv/T6P3PR3HvnysQA8W2654WYAYBPff/07+e1OYOdFnHfc81l23PP5V5Yd905+uxMA/pNgB799/fNZ9vqL2AkAPFUc+V4u+PjhTAEAajHlRVxw0/d59RQA2BvcyYc/ejNnvn4q3zvu+Sx7/UXs5E4+/NGb4dSX8+opAPBUcPuFfGPDVJ5z7FQAam3atAOYzewpAJCAqXzgT3/nkS8fC1d/lWXHfZtbAIAniykv4oIvHwtXf5UP3w4AtZg9lSnALTfcDHOP4+QpADBpJ7Do1Jfz6ikA8FTBsfzopr/zyE1/Z9Ijf3o5iwCABBzOV2/6O4/c9Hf29sjHDwfgli8+n2XHPZ9ap/9kB3Azbzvu+Sw77vnUWnbcO/nGBuDqr7LsuOdTa9kX7wTAZS5zmctc9p9kAJ6KTVt3ALC3TVt3APB03XLDzTD3OE6eAgCJW264GZjN7CkA8HTAVD7wp7/zyE1/p9aPTgXmvpwrb/o7j9z0dyY9ctOHORMAeDzsvIjzjns+H74dAJ4ubv82y457Pqf/ZAds2sFvv/h8lr3sJp7zp79zwUunAsCUw3nO3B1841MXsfPI9/LITR/mTODyjz6f8/68A4AnAndy6dWw6OTDefUJx8LVd3ALAPBkcOR7eeSmv/PVIwHgicDhfPWmv3PBS6cC8J/Czos477jn8+HbAeDpOObjf+eRm/5OrUe+fCxwLD+66e88ctPfeeTj7+WrN/2dR256L8dwJx8+7p38dicAHPPxv/PITX/ngpdOBWDSzq2bALj8o89n2XHP58la9vqL2AkAPB64k0uvBk49gmMApryId54Kl//yInYCAPsCO/jtL28GYG+b/vxVvsHLedeRsPPmm1jNsbzz2Dv5/tXH8s6XTgXu5NKrYdFbzuUYACABd/Lhl/2R1XNfzrdfOhWAWlNe+n1+dOrNXHo73PLF57PsuOez7Lh38o0NU/nAaw4HYG87//xHLgcAVl99M6s3/JHTv3gnAM8m2MGqDQDwZHD7t1l23Le5BQBg63ZWM5XFMwDgicDhfPWmv3PBS6cCkDjm43/nkZv+zhO58i1Tgal84E9/55Gb/s7jeeTjhwOwN27/NsuOez6JZS/7I6uByz/6fJYd93wmve1qYMMfOf2457PsuOeTOO/POwCAO7n06qmceepUYAerN+zgG5+6iJ1TXsQFN/2dR276O5Me+fKxwFQ+8Ke/88hNf2fSIzd9n1dPAYBnExzOV2/6Oxe8dCoAT8eUl36fR256L8cAO//8TpYd93yeyNuuBjb8kdOPez7Ljns+j+e8P++A2+/g8lM/zFdnTOVdN32YMzf8kdOP+yqXz305V378cACeCtjBb395M4ve8mFePeVOPnzc8znvzzsAgDu59Grg1CM4BgCoxZHv5ZGbPsyZ3Mzbjvs2twAACa7+KsuOez6Tlh33VS4HACZx5Ll8YC5c/suL2AkA7O2Yj/+dR375IqYAAJOmHPleLvj44QD8O8AOfvv657Ps9RexEwCYxM6LOO+4d/LbnXDMx//OIzf9nVpXvmUqcCw/uunvPHLT36n1yE3f5wNzgVM/zCM3/Z1aj3z8cAD+ldU/eSfLjns+j+dtVwOAy1zmMpe57MkwAE/F7BlTAdjb7BlTAXg6YAcwFTb8kdO/eCcAcCeXXg2cegTHAABPFUe+l0du+j6vngIATwYczldv+jsXvHQqAJO4/dssO+75fPh2AHgm2HkR5x33fJZ99GaY+3KuvOnvvJOv8o2rAXbwjZc9n2XHPZ/EsuPeyTc2ABv+yHv/vAM4nK/e9H0+MBdW/+SdnPfnHQA8np1//iOXcyzvfOlUOPJcPjD3Zr7/5x0APJGdf34ny457Ps/Esi/eCcC/A7d/m2XHPZ8P3w4AzxbYwW9f/3yWHfd8lt1wBI/c9F6OAQAm3fLF57PsuK/Clz/MyQDA45ny0u/zyE1/58l65Kbv84G5APCv7PzzH7mcqXzgNYcDkDjmNS9n0YY/8r3bAWBfuP1CvrFhKovmAsAk2M6l1+6ADX/k9OOez+k/2cGit5zLMVu3s5qbedtxz2fZcV/lcqbynGOnApCAHfz29V/l8rkv58pfvogpAMDejvn43/nqkXDMx//OIzf9ncQjN32fV08BgFqwg2uv3QGnHsuZwKK3fJ9HvnwsXP1Vln3xTgCebYtmTwXgX+HIIziTm7n0dgDYuXUTMJvZU3bw29c/n2XHPZ9Jp/9kB3Azbzvu+Sw77vlMWnbct7kFAPhP4Mj38shNfyfxyJ9eziJg0Vu+zyM3/Z1JPzoVmPtyrrzp7zxy099JXPDSqQDs/PMfuXzucTx3NsCx/OimD3Pmhj9y+hfvBOCpuuWLz2fZcc/nmfrw7QCQgB389vXPZ9lxz6fWsuPeyTc2ABv+yOnHPZ9lxz2fWstefxE7AYDElJd+n0du+juP50enAkBi0Vu+zyM3/Z3Hc8FLp8KR7+WRjx8OU6YyBQDg1GM5c8MfOf2457Psi3cC8GRx+4V8Y8OxvPOlU2HnVN715WNZ/ZN3suy4b/PbP/+Ry4EzTzgcgH2Bw/nqTd/nA3Nv5m2vv4idAACnfphHbvo7kx656cOcCQBMgqm8+nMvZ9GGP/LeP+8A4MmCHfz29c9n2XHPp9bpP9kB3Mzbjns+y457PpOWvf4idgIACbiZtx33fJYd93wmLXvZH1kNAOwL7OC3r38+y152E8/504c5GQDYF+ZOYzYA8FTs/PM7WXbc81l23Fe5HFj9k3ey7Ljnk/jw7QCw6C3f55Gb/s7j+dGpAOAyl7nMZS57MgzAU/Gq884GYG+vOu9sAJ4OmMoxH/8+j9z0Yc68+qssO+7b/PbPf+RypvKB1xwOwP62c+sm4FieeyQATIId/Pb17+S3OwFg0s6tm4DZzJ4CAHuDqXzgT3/nkV++iCnAMR//O4/c9HcmXfmWqcCx/Oimv/PITX/nkS8fy+pr72QnAFN59S+/zwfmHss7XzoVgH1h50W89yc7WPSWczkGgKm8+vXHsvonF3ILAPBE4Fh+dNPfeeSmv/NUPHLT9/nAXAD4d9m5dRNwLM89EgAmwQ5++/p38tudADBp59ZNwGxmTwGAfeH2b7PsuHfyjQ0AwNVfZdlxz2dvl57wdx656e989cipTJkCAP9p7LyI9/5kB5z6cl49BQASTHkR7zwVLv/ot7kFANjbLTfczKK3vJznAACTYBrv+uXfeeSmv/PIl48FpvKcY6fCke/lkZv+TuJHpwJzj+PkKQCQgKm8+pd/55HPwXuPez7Ljns+T9WHbweASdx+Id/YMJUPvOYIABIc+V4e+fKxcPUf+e1OAHg2cPsdXA7MmjEVgH8FDue5p8Llv7yInezg2mt3wKlHcAxTefUv/84jN/2dSVe+ZSpwLD+66e88ctPfmfTITe/lGADgP42t21nNVJ5z7FQA/hW4k+/9ZAdnvv5FzAYA4HC++uVjWQTsBACeimM+/nceuenv7O3Kt0wF4Mwv/51Hbvo7/8pXjwSAWpz6YR656e9MeuSm7/OBucDcl3PlTX/nkZv+zqQfnQoATwbs4Levfz5v48P86FRg7st5zqZ3ct6fdwDwr7DzIs477qtsfsv3eeTj7+WrN/2dR276Ph/Y9FWWvf4iNgEAtWbNmApArVtuuJlFbzmXYwCmTGXKke/lkT+9nEXczDd+sgPmvpx3HQkAjwem8upf/p1HfvkipgAATxZTXsQ7T4XVP7mQWwCAJwOm8upf/p1Hbvo7ta58y1TgWH5009955Ka/M+mRX76IKQBAAo7lRzf9nUdu+juTHvnTy1kEAOztli8+n2XHvZNVr/87j9z0fV49ZSpTpgDA3jZt2gHA0zHlpd/nkZv+ziM3fZgzgUVv+T6P3PR3El89EgBc5jKXucxlzyYD8FS88Lkn85kPvp3ZM6YCMHvGVD7zwbfzwueeDMAzAYfz1Zv+zo9OvZlv/GQHnPpyXj0FAJ4Kbv82y457Pk/kbVcDG/7I6cc9n2XHPZ/Hc96fdwA7uPbaHXDqERwDAEzi9gv5xoYdXHbzDgCeDKa8iAtu+j6vngIATwZHvpdHfvkipgAAMJVX//K9HAMA7A128NtP/ZHVc1/Ot186FYAER57LB+bezNtefxE7AYAng9u/zbLjns8TWfbFOwH4d4MdXHvtDjj1CI4BACZx+4V8Y8MOLrt5BwBPBUe+l0du+ju1rnzLVACY+3KuvOnvPHLT3/nqkQB38uHjvs0tAECtW774fJYd93yeqmWvv4idAACzpzIFANgb7OC3n/ojqzmWH338cABqHfPxD3MmN/P9P+8AYG/HfPzvXPDSqQDsC+zgt7+8GU59Oa+eAgAJuJNLr4YzX/8ipgAA+3Lml//OIzf9nUdu+j4fmAuc+mEeuenvJK58y1TgWH5009955Ka/88ifXs4iAGAS7OC3v7wZTn05r54CAJM48r08ctP3efUUAHg6YAe/ff3zWXbc80ks++jNLHrL9/nqkQDwZBzzmpezaMMf+d6f7+SyDXDmCYcD8N8OdvDbX94Mc4/j5CkA8K/s/PMfuXzuy3nXkQAwiSPfywUfP5xNX3w+y457PpOWffRmYAffeNnzWXbc85m07It3AvB42HkR7/3JDjj1w3z1SABI7PzzOznvzzsA2F/gTj583Dv5xuwP88jHDwcgcfLHv89zrn0n5/15BwCPZ+ef38myl23nnTf9nQteOhWABEzl1b/8O4/88kXMBgAS7NzBZgBgb8d8/O9c8NKpAExiyov49lumAnDm61/EFADg3+WY17ycRadOY/ZOgB2s2gCLZk8FYH9jwx85/bjnc+kJf+eRm/7OV48EgMcDO9i0CZg9lSkAgMtc5jKXuey/mQF4ql743JP55+++zyM3/Z1//u77vPC5JwPwbGDnRXz/agDg6q9y3p93APBUcOR7eeSmv7MvPzoV4FjOPBWYO5VFwJlf/juP3PR39uWCl06FnXdy2QY484TDAZgEd/Lhj97Mord8nwteOhWABOzg2mt3wKlHcAwAUGvnn9/JsuOezxM5/Sc7gJt523HPZ9lxz+fxLPvinQDs7ZYvvpNvbJjKBz53ONe+/vl8+HYAgKm8+pcf5swNf+S9f94BwJMFU/nAn/7OIzf9nVqP3PR9PjAXAP4T2Hknl22AM084HIBJcCcf/ujNLHrL97ngpVMBSMAOrr12B5x6BMcAAI/nli8+n2XHPZ9J7+XDPHLT33nkly9iCgCQYOdU3vWnaXz/uOfz4dsBYNIxH/87j9z0d56qR375Iqawg1UbAODx7PzzV/nGBjjzy+/lGACgFhzOV798LKt/8k4+fDsAPBXsvJPLNkzlAyfs4Lzj3slvdwIAt9/B5XNfzrtmXMR5x72T3+4EgGfbzj9/lW9sOJYfffxwAJ5tMJVX//LvPHLT35l0wUunAvBkMeVFvPNUuPwnf2T13JfzriNh55/fybLjnk+t03+yA7iZtx33fJYd93xqLXv9RewEAP5Tdv75q3xjAyw6+XCmAAD/yqZN8IHPvYgpAMDejvn433nkpr8z6ZEvHwtM5QN/+juP3PR3Jj3y8cMB2Be4kw+/7I+snvtyrvz44QDUWv2Td3Len3cA8J/G7d9m2XFfZfNbvs8jHz8cgEkwlVf/8vs859p3suz1F7ETAKh1yxefz3s5jjO5mbcd93yWHfd8ai374p0A1GLrdlYzlcUzAOBfYedFvPcnO2Duy3nXkQDw78SUF3HBx1/ElCkA8J8AN/O2457PsuOez6RlL/sjqwGAScx9OVfe9He+eiQAJOBOPnzc8/nw7QBQi513ctkGOPOEwwH4d1j9k3ey7Ljn83jedjUA1Lrli89n2XHPJ/Hh2wHAZS5zmctcljAA/y3gTj78sj+ymmP50U1/55EvH8vqn7yTZa+/iJ0AwNMFd/Lh457P2za9nCtvei/PBeA4vn3Th+Gjz+e8P+8AYF923nwTq+e+nHcdCQCTLv/oV7n81A9zwUunAjCJnXdy2Qbg6q/y4dsBoNaUl36fR276O0/kyrdMBY7lRzf9nUdu+juP55GPHw5ArVu++HzedvVUPvCn7/NqdrAKuPyjz+fDtwMAHM5X//Ry+Mk7Oe/POwD4T4E7+fBxz2fZ6y9iJwDwVO28+SZWz3057zoSACZd/tGvcvmpH+aCl04FYBI77+SyDcDVX+XDtwPAvtzyxefztqsBYNLqn7yTZcc9n70te9k7Of1T8O2bvs/iXz6f8/68A4Bny6LZUwHY284/v5PTf7KDRW/5Pl89EgD2hSPfy49Ohcs/+m1uAQCerFt+80dWn/pyXn3k4Txn7g4uu3kHsIPf/vJmFp18OFOmTGUWO7js5h0A/Duc+eX3cgwA8J9yyxefz7Iv3glTXsQFN/2drx4JAI9n9uypALDhJq7dCVNe+n0euenv1LryLVOBY/nRTX/nkZv+Tq1HfvkipgAA/w47t24CYNLOP7+T03+yA+a+nG+/dCoAT8YxH/8+r54CAP8OsIPfvv6rXM6x/OiXL2IKADBpyku/zyNfPpbVP3kny754JwD/CbCD377++Sz76CY+8Ke/c8FLpwKwN5jKq3/5d648+SZOP+75fPh2AJh0zMf/zgUvnQrAmV/+O4/c9Hcm/ehUAEhMeen3eeSm93IMcMsNNwM7+ManLmInMOWl3+eRm97LMQBALdjBbz/1R1ZzLD/65YuYAgD8fwPH8qOb/s4jN/2dSY/86eUsAgCeCDt3sBkAqAU7+O2n/sjquS/nXUcCwL/Dord8n0du+juP50enAsCknX9+J2+7+lh+dNPfufItU7n8o+/ktzsBwGUuc5nLXGYA/hvADn77+q9yOcfyo5veyzEAR76XR276MGdu+COnf/FOAGAH33jZ81l23POZtOy4r3I5ALAvt3zx+Sw77qvw5b/zyC9fxBQAIAGH89Wb/s47N72TZce9k9/uBIBamzbtYNHJhzMFAGDK4TxnLnDqh3nk44cDAIfz1Zv+zgUv3cGHX/ZHVs99OT96y1Qu/+jzWfbFOznm43/nkV++iCkAwL8D3MmHj3s+b7t6Kh/40/d59RRgyuF89Zff5wNz4fKPPp8P3w4ATHkRF/zp5fCTd7Lsi3cC8K/ADr7xsuez7LjnU2vZce/kGxsA4F9h5w42A4tOPpwpAMBTtWnTDhadfDhTAACmHM5z5gKnfphHPn44AHA4X73p71zw0h18+GV/ZPXcl/Ojt0zl8o8+n2VfvJNjPv53Hvnli5gCACSO+fjfeeSmv7Mvj3z5WGAqH/jT33nkpr+TeOSXL2IKU3n1Lz/MrJ9cyC0AwDOx889/5HJg1oypANTa+ed3cvpPdrDoLd/ngpdOBeCJHPPx7/OBuTfztuO+zS0AwN64+qssO+75vO1qAGDnRXz/6ql84DWHA1OZPRtWX3snO2+/kG9sOJZ3vnQqMJXFc2H1tXeyEwB4Nk156ff56pEA8K9w9VdZdtzzqbXsuHfyjQ0A8GTBDjZtAjbtYCcA8ETYeRHv/ckOFr3l+/zo1B1842XPZ9lxz+e8P+8AYNKUl36fR256L8cAAE/Xpk07gNnMngIA/8otX3w+p/9kB4vmTuXyX17ETnawidksmvtyrvzli5gCAOxvsIPfvv6dfGPDVD7wp/dyDADAzos477jns+y455NY9tGbAeDqr3Len3cA8O/E7d9m2XHv5Bu8nCtv+j6vngIAT2TKS7/PIzd9GD76fJYd905+uxMAnipu/zZvuxrOfMvLWbThj5x+3Le5BQDYG+zgt69/J9/YMJUP/Om9HAMA/CexcwebgVkzpgLwvwJ28NvXv5NvbDiWH/3yRUwBAJ4NcCcfPu6d/HYnADxVmzbtgLnTmA1MOfY4FrGDVVsBwGUuc5nLXGYA9je4kw8f906+seFYfnTTezkGAEjA4Xz1pr/zyMcPBwCm8oE//Z1Hbvo7kx656cOcCQBMgh389vXPZ9lxz+dtfJhHbvo7Xz0SAPblmI//nUduejmrXvZ8lh33fD58OwAkjvn437ngpVMBYOdFnHfcO7ns5O/zyMcPB2AS3MmHj/sql3MsP/rlizjmpd/nkT+9nEVXf5Vlr7+InQDAv8POP7+TZcd9lcvnvpwrb/o+r54CAAmYyqt/+WHO5FjgTgASTHkRF9z0Yc68+qssO+75fPh2AHg8MJUP/OnvPHLT39mXRz5+OACwg1UbYNHsqQDUYut2VjOV5xw7FYCn45iP/50LXjoVAHZexHnHvZPLTv4+j3z8cAAmwZ18+LivcjnH8qNfvohjXvp9HvnTy1l09VdZ9vqL2AkA1II7+fBxz2fZcc/nvD/vAGBfbvni81l23PNZ9vqL2MnhfPWm93IMAPBksPMizjvu+Sw77vnUOv0nO1j0lu/z1SMBYNItX3w+p/9kB4ve8n0ueOlUAP4VmMqrf/l9PjD3Zt523Dv57U4AqMWpH+aRm/5O4pFfvohNv/kjq099Oa+eAgCzZ0+FDdu5dusm4GbedtzzWXbcV+HkY2HDTVy7E2754vNZdtzzWfayP7IauPyjz2fZcc9n2XHv5BsbgKu/yrLjnk/i9J/sAG7mbcc9n2XHPZ9lL/sjq4HLP/p8lh33fJa9/iJ2AgBPBqd+mEdu+ju1Hrnp+3xgLgDsDTaxaScA1GLnnVy2ARadfDhTAIBJ3H4HlwOzZkwFAO7kwy/7I6tP/TAXvHQqx3z87zxy09955MvHsvon72TZcc/nyVr2xTsBqAU7+O3rn8+y457PpLddDWd++b0cAwA8kVu++HzedjWc+eW/c8EvP8wH+COnH/dOLp3xXi745YuYAgDs7ZiP/51HfvkipgAA/wrs4Levfz7Ljns+tZZ99GZgB9942fNZdtzzqbXs9RexEwCAHfz29e/kGxsAdvCNlz2fZcc9n8Syl/2R1ad+mEdu+ju1Hvnysaz+yTs57887AHiqYAe/ff3zWXbc80m87WpYdPLhTAEAErd88fks++gmPvCnv/PIL1/EFADgyYDD+epNf+eRL8/mGy97Psu+eCcATxY7L+K8j97Mord8n6++9EVccNP3+cDcm3nbcd/mFgBgEuzgt69/J9/YAGd++fu8egoAPF1c/VWWHfd8Ji077qtcDgA8kVt+80dWM5XFMwBgX2AHv33981l23PPZ2+k/2QHczNuOez7Ljns+tZa9/iJ2AgD/Ckxl9mxgw3Y2AQCTdt58E6uZyuIZAMDOizjvuHfyjQ3H8qOb3ssxAMAzwc4dbAZW/+SdLDvujyz+0/d59RQAeCKwg02bAGDS7NlTYcN2NgE7b76J1Uxl8QwAcJnLXOYylxmA/Ql28NvXf5XLT/0wj9z0Xo4BAPaFI9/LIzd9n1dPAYBJcDhfvenvXPDSqQDc8sXns+y4d/KN2R/mkZv+ziMfPxyAfwUO56s3/Z1Hbvo+i3/5fJYd93yWffFOAOBOPnzc81n2su2886a/c8FLpwIw6ZYvPp9lx32Vy0/9MI/c9F6OAQCY8iIuuOn7fIA/cvpx7+S3OwHg2XTLF5/P6T/ZwZlf/juP/PJFTAEAasHhfPWm9/LVIw8HYBIczldv+jtXvmUql3/0+Sz74p0A7I0j38sjN32fV08BgL3d8sXns+y455NYdtxXuZxjeedLpwJQ65Ybboa5x3HyFAB4uuBOPnzc81n2su2886a/c8FLpwIw6ZYvPp9lx32Vy0/9MI/c9F6OAQCY8iIuuOn7fIA/cvpx7+S3O4GdF3Hecc9n2XHPZ9lxd/Dcm/7OIzf9nXdueifLjns+iWUfvRlOfTmvngIAx3z87zxy09955HPw3uOez7Ljns95f94BwJPBlBdxwU1/55Gb/s7eLnjpVAAm7fzzO3nb1VP5wJ/+zgUvnQrAkwVTefUv/86Vb4FvvOz5fPh2ANgX2MGmTcDVX2XZcc8n8V6O40xuZtWM7/PITX8n8chN3+fVx05jETtYtRWO+fjfeeSmv/NseOSXL2IKAPBsm/LSD/OBuTv4xsuez7Ljnk+tZS/7I6tP/TAXvHQq7LyI8457PsuOez6JZR+9GU79MF89EgB2/vmPXH7qh3nk44cDMIkj38sjN/2dp+KRjx8OQC2Yyqt/+Xceuenv1PrqkQDwrxzzmpdz5lu+z1ePBJjKq3/5dx758rFc/tHns+y45/NUnPfnHQDsC0zl1b/8O4/c9HeerEd++SKmAAAwlVf/8u88ctPf2ZdHPn44ALU48r1c+ZapAOwNpvLqX/6dRz5+OAD7AlN59S//ziM3/Z1JF7x0KgCTjvn433nkpu/z6ikA8HRw5Ht55Ka/88jHDwdg0uUffT7Ljns+k952NQAkdv75nSx72R/hLd/ngpdOBQCm8upf/p0fnXozbzvunfx2JwDAnXz4uHfyjQ1T+cCf/s5XjwSAZ4JTP8wjN/2dSY/c9GHOBAAm7fzzO1l23POp9bar4cwvf59XTwGAfYGpvPqXf+eRm/7OU/HIL1/EFABgEuzgt69/PsuOez7LXvZHVs99Oe86EgCOec3LWcTNvO2457PsuOcz6fSf7GDRWz7Mq6cAt3+bZS/7I7zl+zxy03s5BgB4NsBUPvCnv/PITd/n1VMAYF9u+eLzWXbc80ksO+6dfGPDVD7wuRcxBQCY8tLv86NTb+Ztxz2f03+ygzO//H1ePQUAXOYyl7nMZQZgf4KpvPqXf+eRjx8OwLPhmI//nUdu+juPfPxwAJ4qmMqrf/l3Hrnp7zzy8cO55YvPZ9lxX4Uv/51HbnovxwAACXZexHnHPZ+3bXo5V970dx75+OEA1IKpvPqXf+fKt8A3PnUROwGAJzLlpd/nkZveyzEAwBM55uN/55Gb/s5XjwSAp2PKS7/PIzf9nUc+fjgAU176fR656b0cAwD8K8d8/O88ctPfmfTITe/lGABgEuxg0yZYdPLhTAEAno5bvvh8lh33Vfjy33nkpvdyDACQYOdFnHfc83nbppdz5U1/55GPHw5ALZjKq3/5d658C3zjUxexc8qLuOCmv/PITX/nkZveyzEAwDEf/zuP3PR3Jj3y8cMBqMWUF3HBTX/nkZv+zgUvnQrAs23KS7/PIzd9n1dPAYCnY8pLv88jN/2drx4JADCVV//y7zzy8cMBSMBUXv3Lv/PITX9n0gUvfRHPPRUuv+FOACYxZSqzgMtvuBOAfxc4nK/e9HcueOlUACbBVF79y7/zyMcPB6AWTOXVv/w7j/zyRUwBABIwlVf/8u88ctPf2ZdHPn44AEx5ERfc9HceuenvTHrk44cDkJjy0u/zyMcPB+C/EVNexFdfOhWASRz5Xh656e88VRe8dCoAk6a89Ps8ctN7OQYA2B+mvPT7XPDSqQA8GTCVV//y7zzyyxcxBQDYX8788t955Ka/M+lHpwLs4Levfz6n/2Q2P7rp71zw0qkA1Drm43/nyrfANz51ETu5kw8f91UuP/XDPHLT93n1FAB4umAqr/7l33nk44cDMAkO56s3/Z0LXjoVgMSUl36fR276O3v76pEAUAum8upf/p1HPn44AM/ElJd+n0duei/HADCVV//y7zxy099JPPLLFzEFAGDKi7jgpr/zyE1/Z28XvHQqABz5Xh656e9c8NKpAPwrMJVX//LvPPLxwwF4PEx5ERfc9H1ePQUAEnA4X73p71zw0qkATDrm43/nkZv+zqRHbvo+r54CAJOO+fjfeeSmv5P46pEA4DKXucxlLksYABcd8/G/88gvX8QUAOCJHPPxv/PITX/nq0cCQC2mvIgLbvo7j/zyRUwBAB7PlJd+n0d++SKmAACugam8+pd/54KXTgXg6Trm43/nkZv+zlePBIBaTHkRF9z0dx755YuYAgA8nikv/T6P/PJFTAEAXPZEjvn433nk44cDMAkO56s3/Z1HPn44AC5zmauO+fjfeeSXL2IKAPCvwOF89aa/89UjAWDSMR//O498/EW8+pd/55Gb3ssxAMC+THnp93nkly9iCofz1Zv+ziMfPxyAf2XKS7/PIzd9n1dPAQCXucxlLnOZy/4/MAAuc5nLXOYyl7nMZS5zmctc5jKX/X9kAFzmMpe5zGUuc5nLXOYyl7nMZS77/8gAuMxlLnOZy1zmMpe5zGUuc5nLXPb/kQFwmctc5jKXucxlLnOZy1zmMpe57P8jA+Ayl7nMZS5zmctc5jKXucxlLnPZ/0cGwGUuc5nLXOYyl7nMZS5zmctc5rL/jwyAy1zmMpe5zGUuc5nLXOYyl7nMZf8fGQCXucxlLnOZy1zmMpe5zGUuc5nL/j8yAC5zmctc5jKXucxlLnOZy1zmMpf9f2QAXOYyl7nMZS5zmctc5jKXucxlLvv/yAC4zGUuc5nLXOYyl7nMZS5zmctc9v+RAXCZy1zmMpe5zGUuc5nLXOYyl7ns/yMD4DKXucxlLnOZy1zmMpe5zGUuc9n/RwbAZS5zmctc5jKXucxlLnOZy1zmsv+PDIDLXOYyl7nMZS5zmctc5jKXucxl/x8ZAJe5zGUuc5nLXOYyl7nMZS5zmcv+PzIALnOZy1zmMpe5zGUuc5nLXOYyl/1/ZABc5jKXucxlLnOZy1zmMpe5zGUu+//IALjMZS5zmctc5jKXucxlLnOZy1z2/5EBcJnLXOYyl7nMZS5zmctc5jKXuez/IwPgMpe5zGUuc5nLXOYyl7nMZS5z2f9HBsBlLnOZy1zmMpe5zGUuc5nLXOay/48MgMtc5jKXucxlLnOZy1zmMpe5zGX/HxkAl7nMZS5zmctc5jKXucxlLnOZy/4/MgAuc5nLXOYyl7nMZS5zmctc5jKX/X9kAFzmMpe5zGUuc5nLXOYyl7nMZS77/8gAuMxlLnOZy1zmMpe5zGUuc5nLXPb/kQFwmctc5jKXucxlLnOZy1zmMpe57P8jA+Ayl7nMZS5zmctc5jKXucxlLnPZ/0cGwGUuc5nLXOYyl7nMZS5zmctc5rL/jwyAy1zmMpe5zGUuc5nLXOYyl7nMZf8fGQCXucxlLnOZy1zmMpe5zGUuc5nL/j8yAC5zmctc5jKXucxlLnOZy1zmMpf9f2QA/ptw+7dZdtzz+fDtAPDfhtu/zbLjns+HbwcAF8CdfPi453Pen3cA4LKnitu/zbLjns+HbwcA19zyxeez7PUXsRMAmLTzz+9k2XHf5hYAwGUuc9l/AtzJh497Psu+eCcALvtvxu3fZtlx7+S3OwFgbzv//E6WHfdtbgEAXOYyl7nMVQbgv8ktN9wMHMtzjwSAJ4vbv82yL94JwL/TLTfcDBzLc48EgKeD27/NsuOez3l/3gFALdjBb1//fJa9/iJ2AgBPxy1ffD4fvh0Anil2AnNh9U++ym93AsC/wu3fZtkX7wTgicCdfPi453Pen3cA8P/NLTfcDBzLc48EAJc9W9h5Eecd93yWffFOAJ4OuJMPH/dtbgEAHg/s4Levfz7LvngnAE8X7OC3r38+y15/ETsBgCfjli8+n2Wvv4idAMDeuP3bLDvunfx2JwD8K7CD377++Sw77tvcAgDUgh389vXPZ9lx3+YWAOBfgR389vXPZ9kX7wRg0i1ffD7LXn8ROwG4kw8f93zO+/MOAJ6qW774fJYd921uAQCeqp1/fifLjns+iWXHfZtbAID/77j9Di4HzjzhcABc9nhu+eLzWXbc89nbeX/eAcCTAXfy4eOez7Iv3gnAvwJ38uHjvs0tAMDeuP3bLPvinQDADq69dgecegTHAACPZ+ef38my477NLQDAvwu3f5tlxz2f8/68A4Cn4pYvPp9lx72T3+4EgL3d8sXns+y4d/LbnQDwZNzyxeez7PUXsRMASOz88ztZdty3uQWAHfz29c9n2RfvBOCp2vnnd7LsuHfy250A4DKXuWx/MAD/CtzJh497PsuOez6PZ9lx3+YWAOCWLz6fZcc9n70tO+6d/HYnAOwL3MmlVwOnHsExAMCTATv47S9vhqu/yrLjvs0tAMCknX9+J8uOez6PZ9kX7wTgX4E7ufRq4NQjOAYAeDpuueFm4Fje+dKpADzbuP3bvO1quPyGOwF4pphyOF/93MtZxA6+8Zs7AXgisIPf/vJmuPqrLHv9RewEAJ4ubv82y457Ps+G8/68A4Ba3P5tlh33fD58OwA8W+BOLr0aOPUIjgEAXPZsueU3f2Q1x/Kjjx8OwNPB7XdwOTfzti/eCcB/wsknHwsb/sjpX7wTgP1h55+/yjc2TOUDf3ovxwAAtdh5J5dtgDO//F6OAQD+FXbeyWUbYNHsqQDsCxzOV2/6MLN+8k6WHfdtbgEA/h3gTj583PNZdtzzmXT6T3bAqR/mkZv+ziM3vZdjAID9BXbw29c/n2XHPZ+natnrL2InAPCv3HLDzcCxPPdIAHDJzj+/k2XHPZ9/5dIT/s4jN/2dvV3w0qkA7I2dF3Hecc/nvD/vAODpYOdUFp96M297/UXsBAAmcfu3WfbRmzlz9lR2ArCDVRtg0eypADwV3P5tlh33fJ6sD98OAP8u3P5t3nY1nPnl7/PqKQBQC+7k0qth0Vs+zKunAMC/Andy6dXA7KlMAQD2BlN59S+/zwc2fZVlx72T3+4EgP2B27/NsuOez7+y7PUXsRMASMAOfvv657PsuOczadlx3+YWAMBlLvv/zAD8K3A4X73p7zxy09+58i1Tgal84E9/55Gb/k7iyrdMBaAWc1/OlTf9nUdu+juJH50KMJvZU4Dbv82y457P3pYd91UuB7j6qyw77vk8Gef9eQcwlVf/8u888uVjgZt523Hv5Lc7AWASHMuPbvo7j9z0dyY9ctP3+cBcAKjF7d9m2XHPZ2/LjvsqlwNc/VWWHfd8nozz/rwDgElwJ5deDZx6BMcAAM8muJMPf/RmmPtyrvz44QD8K9z+bZYd93yeyLKX/ZHVAFd/lWXHPZ/Hc96fdwBTefUv/84jXz4WNvyR04/7NrcAAE8HR76XR276O0/kkZs+zJkAHMuPbvo7j9z0d/blgpdOBaDWLTfcDBzLc/k2y457Pk/WeX/eAQC3f5tlxz2fvS077qtcDnD1V1l23PN5Ms778w4A9gV28NvXP59lxz2fWsue81pe8cV/8tAEAEyCHfz29c9n2XHPp9ayU17B6a/5CJ/+853srAJALdjBb1//fJYd93xqHfmi9/OlG/dQAQCeKnZexHnHPZ9lxz2f03+yA7iZtx33fJYd93wez7LXX8ROACDB7d/mbVcD3Mzbjns+y457Pk/FstdfxE6AI9/LI18+Fq7+Kh++HQBu+eLzWXbc86m17Lh38o0NwNVfZdlxz2dvy15/ETsBAG7/NsuOez77suy4d3L6T24GgKu/yrLjns++LHv9RewEAJ5NO//8TpYd93xO/8kOYAffeNnzWXbc80kse/1F7AQAdt58E6uByz/6fJYd93z29uHbAaDWzptvYjXH8s6XTgXg8cDhfPWmv/OjU2/mbcd9m1sAgCcLbuZtxz2fZcc9n8ez7It3Aofz1Zv+ziM3/Z3Ej04F5r6cKz9+OACTdv75nSw77vk8nmXHvZPf7gSAZxtM5dW//DuP3PRhzgQ49cM8ctPfeSKP3PRhzgQAasGdfPi457PsuOezt7ddDXAzbzvu+Sw77vn8K8tefxE7AYB/BUIu/8TzWXbc8/nw7QDwRCo77+S3X/8IZ591HsuOez6Jg896J2/44c1sKgFALdjBb1//fJYd93z25cO3A8DjmfLS7/PITX9nXx758rEAnPnlv/PVIwHgybrlN39kNcfyzpdOBeDpYMpUXv3xD3Pmhpu4dicAJGAHv/3lzZz55b/z1ZdOZQrA7XdwOVN5zrFTAXiqYCof+NPfeeSmv/N4HvnysQA8XXAnHz7u29wCAOyN27/NsuOez7KP3gzA5R99PsuOez6JZcd9m1sAAG6/g8uB1T95J8uOez57O+/POwCoxe13cDlT+cBrDgfg8cBUXv3Lv3PlW+AbL3snv90JAE8W7OAbL3s+y457Po9n2esvYifAzos477jns+y45zNp2XHf5hYAAI7lRzf9nUdu+jv7cuVbpgIwCXbw29e/k29sAIBJcDNvO+6d/HYnALjMZf9fGYB/N7iTS68GTj2CYwCOfC+P3PR3aj3yp5ezCODUD/PITX/nybrgpVMBSHDke3nkTy9n0anHcTIA8HRw5Ht55Ka/U+uRP72cRQCnfphHbvo7T9YFL50KwCRuv4PLgTNPOByAZ9stX/wqlzOVD3zuRUwBAP4Vjnwvj9z0d2o9ctOHORPg1A/zyE1/58m64KVTAUhw5Ht55E8vZ9HcTWy6Hbj92yw77vnUWnbcV7kcWP2Td7LsuOdTa9nrL2InAPCv7PzzH7kcOPPL7+UYAODJYOdFfP9qWPSWcznmyPfyyJePBabygT/9nUdu+jv78siXjwVg1oypAHDke3nkpr9T65E/vZxFAKd+mEdu+jtP1gUvnQrAE6HrcD722ffy7c++l6++5QzOXJhmzdW/4RWv/Da3lACgFl2H87HPvpdvf/a9fPUtZ/CCUxfSNrGJv/3kq5x++lv40l0jAOyNrsP52Gffy7c/+3Y+cN7hLE5t58+ffguvvGAHAE8WG/7I6ce9k9/yIi646e88ctP3+cBc4NQP88hNf+eJPPLLFzEFAIA7+fBHb4ZTP8wjN/2dp+ORX76IKQAAR76XH50Kl3/029wCHPPxv/PITX+n1iM3fZ8PzAVO/TCP3PR39vbIL1/EFAAgAVP5wJ/+ziM3/Z2n45FfvogpAMAkNvyR04/7NrcAO//8TpYd93wmLfvozcAOvvGy57PsuOczadnrL2InADAJjuVHN/2dR276O5N+dCoAJOBOvvcT+MCf/s4jN/2dWle+ZSowlcUzAGAS3Mn3frKDRW85l2MAgH/lmI//nUduei/HAABPFhzLj276O4/c9HcezyMfPxyAJwuO5Uc3/Z1Hbvo7ta58y1QA/t1gKovnApt2sBMAeDzs3MFmYNHJhzMFAEjA4Xz1pr/zyE1/Z9IjN32fD8wFOJYf3fR3Hrnp7zwZj/zyRUwBAP4V+i/nT7fMZsUyuPyqm6kAAPuy6dJPcfrLvso3rthEevlxvOl97+Vjrz6Zk+aFPHjBtzn7rPfz/VUFAPZG1+F87LPv5duffS+1XjMPAP6T4E4uvRo49QiOAQCeLjicr970fV49BQASMJVX//LvfPVIAEjccsPNwA6+8bLns+y451Nr2XHf5hYA4N/pli8+n2Wvv4idAMDeuH0Hm+fezNuOeye/3QkAe4OpfOBPf+eRm/7OpCvfMhWABOzgt7+8mTO//Hceuenv1Hrky8cCMGvGVAAmwQ5++8ub4dSX8+opAPCvTHnp93nkpu/z6ikA8GTBVD7wp7/zyE1/5/E88ssXMQUAgKl84E9/55Gb/s6Vb5kKwDMBx/Kjm/7OIzf9ncQjN32fD8wF2ME3fnMnAC5z2f9XBuDfbeef/8jlTOUDrzkcgL3BDn77qT+ymql84DWHA/BUsPMizjvu29wCMOVFXPDxFzFlCgDAnXzvJztY9JZzOQYAeKpgB7/91B9ZzVQ+8JrDAXg6YAe//eXNMPflvOtIAHg27fzzO3nb1XDml7/Pq6cAwKSdf34ny754JwBPBjt3sBlYNHsqAE8XU17EBb/8Pq8+EjjyvTxy09+p9chNH+ZMYNFbvs8jN/2dWo/88kVMAQCeCDsv4r0/2QGnfpivHgkAT9Ytv/kjq+e+nG+/dCoAzJjGInawaisA7MvOrZuAqSyeAQB7gx389lN/ZDVT+cBrDgfg2UTdHI49/lhOPv5Yznzpm/jqN3/CDV84nPqhm/n+JXsAqEXdHI49/lhOPv5Yznzpm/jsBz/BHy66gHt//3ZObtzDnz/0Eb6/FgBqUTeHY48/lpOPP5lXv/3D/OL33+Kdc2H1by/nIQDg8dzyxeez7It3AsDcl3Pll2fzjZc9nw/fDrCDVRtg0eypACR2/vmdLDvu29wCAOzLLV/8KpcDXP1Vlh33fJ6KZa+/iJ0AQK1jXvNyFs0FdgLAs23nn9/JsuO+zS0AQK2df34ny457J7/dCQC1bvni81n2xTsBYO6xnDn3Zt72+ovgpd/nkZv+zqRHvnwscCw/uunvPHLT30n86FQAeKpu+eJXufzUl/PqKQDwZOz88x+5nGN550unAuCypwOmcvLJU2HDTVy7EwAez86bb2I1MGvGVACeyM4/f5VvbIBFbzmXYwCAZ9vqS67goblH8LmXHQs3Xs7f+gFgb+O3f5vXf/0ROOw1/PPKC7jgC2/nnWcfy0tf93a++s2fcO/FH+YFjZv42Ts+xW93AkAt6uZw7PHHcvLxx1JrUTsA/Cfd8sWvcjnA1V9l2XHPZ9Ky477K5QBXf5Vlxz2ffVl23Le5BYAd/Pb1z2fZcc9n0rKP3gzs4Bsvez7Ljns+iWXHfZtbuJNLr4Yzv/x3Hrnp70z60anA3Jdz5U3v5Rju5MPHPZ9lxz2f03+yA7iZtx33fJYd921uAQCeCXZexPevBmZPZQoAsDeOfBEX/PLDnMkOvvGyd/LbnQDwVOz881f5Bi/nXUcCwJPB7RfyjQ1T+cBrDgfg/yuYyqt/+V6OAQASMJVXf+7lLALYtIOdAIDLXPb/kQH4d4IdXHvtDph7HCdPAYC97fzzV/nGBuDUl/PqKQDwVOy8+SZWczNvO+75fPh2AEjAnXz4uK9y+dyX8+2XTgWgFkzl1a8/Fq7+KsuOez6JZV+8E4BaO//8Vb6xATj15bx6CgA8Hey8k8s2AMCzjdu/zek/2cGit3yfrx4JAJPYeRHv/ckOuPqP/HYnAPw7sfMizjvu29wCAPw7wZ18+GV/ZDXH8qOPHw7Ak8Xt3+ZtV8OZr38RUwAApkxlFnD5DXcCsDfYwbXX7oC5x3HyFADY284/f5VvbABOfTmvngIA/271xxzHMcDq9ZsBeDLS00/m2z97E4d5e/jZ9//JAADwePCmsmg2MFFgDADYF9jBpk2waPZUABIc+V5+dOqxPPdI4PY7uJypPOfYqQA8Gbd88fm8bdPL+dFbpgJT+cCf/s4jN/2dJ+NHpwLAvjDlRVzwy/dyzBQAuOWLz2fZcc9n0rLj3sk3NgBXf5Vlxz2fWsu+eCcAe1v1m3ey7Ljnkzj9JzuAm3nbcc9n2XHPp9bpP9kB7OAbL3s+y457PollX7wTgFowjXd97uUs2vBHTv/inQBM2rl1EwDPFDsv4vtXw5knHA7AkwF38r2f7IBTj+AY7uTDxz2fZcc9n0lvuxrY8EdOP+75LDvu+ezLsi/eCUACdvDb1z+fZcc9n7297WqAm3nbcc9n2XHPZ2/Ljvs2twAA3P5tlh33fCa97Wpgwx85/bjns+y455NY9sU7AfhvMOXY41jEDi67eQcA+wI7uPbaHcCxPPdIAHg87LyI9/5kB3As73zpVACebbCJa6/dw6KTD2f2YUdwpreWy24fAaAW8SN8/4s3MzD3Rfzyy2czOwUAtWg8nM/++E0cxia+8bObqQAAz9QtX3w+y457Pvuy7KM3A3D5R5/PsuOez74s++KdAExi50V8/2o488t/55Gb/k6tR/70chYBi97yfR656e/syyM3vZdjAJjKq3/5dx656e8kHvnysQDAVD7wp7/zyE1/J/HITe9l9p//yOXA5q07AEjADjZtAmZPZQoAh/PVm/7OIzf9nSvfMhU4lh/d9Hceuem9HAPADr7xsuez7Ljn83iWffRmAPZl5803sZqpfOA1hwPweOBwvnrThzmTHXzjZd/mFgDgyYA7+d5PdrDo5MOZAgD8K7CD3/7yZph7HCdP2cFvX/98lh33fCad/pMdwM287bjns+y457Mvy15/ETsBgMQtX3w+y457Pns7/Sc7gB1842XPZ9lxz2dvy457J7/dCQD/SUyZyiwAwGUu+//MAPwrsIPfvv75LDvu+Zz+kx3ADr7xsuez7Ljnkzj9JzsA2Bduv5BvbIAzX/8ipgAAtdh5Ee/9yQ4AuPqrLDvu+fwry457J7/dCQCJKS/9Po/c9GHOBC7/6PM578874PZvs+y4r3L5qR/mkV++iCkAwN448r08ctPfmfTIxw8HYBI7L+K9P9kBAFd/lWXHPZ9/Zdlx7+S3OwGg1i2/+SOrAYBnEzsv4ryP3gynfpgLXjoVgElwJx9+2R9ZzbH86Kbv8+opAPDvtPPmm1jNzbztuOfz4dsB4N/lli9+lcsBuJm3vf4idgIA/wrs4Le/vBmAWnA4zz0V2LSDnQBALdjBqg3A7KlMAQBqsfMi3vuTHQBw9VdZdtzz+VeWHfdOfrsTAJ4uYgCY0tEBwJNF+xm88bl5eOQObh4CgMcDI+zYDRywkEUAwL7ADlZtgFkzpgIw6ZiPv5djgJ1bNwGzmT0FAP4Vdl7E968+lh/98kXMBmAH33jZ81l23PN5Mt52NQA8Wcx9OVfe9HceuenvPHLT9/nAXODUD/PITX8n8chN3+cDcwFgXxa/5vs8ctPfSVz5lqnAsfzopr/zyE1/p9aVb5kKTOUDf/o7j9z0dxKPfPxwYAebNsGi2VMBSDDlRXz7LcfygdccDsCzbdPNN7F67st57tZ38uHbAeBfueWLX+VyAAAO56s3/Z1Hbvo7iUdu+j4fmAuc+mEe+dPLWQSc+eW/88hNf6fWIx8/HIBanPphHrnp7zxZV75lKgCTOPK9PHLT30k8ctOHORNg7su58qa/88hNfyfxyMcPB+C/AVMO5zlzYfW1d7ITANgbO+/ksg3AqUdwDACwL7CD337qj6wG4GbedtzzWXbc8/lXzvvzDgCeLB64gj/vXMDzT54K3uG84Ll5Hjr/MlYDAJMqt/yTP0/Aya88j9keAOwL7Wfwxufm4cabua4EAM/UMR//O4/c9Hf25ZEvHwvAmV/+O4/c9Hf25ZGPHw5AAu7kwy/7I6tP/TBfPRIAng07//xOln30ZhbNnQrs4Bsvez7LvngnAHAn3/vJDgBWb9oBQAJ2sGoDLJo9FYB/BabygT/9nUdu+juTrnzLVOBYfnTT33nkpr/zyJePBWBv7LyI9/5kB5z6cl49BQCeCBzOV//0chZxM2877tvcAgD8K9x+B5dzLO+ccSHn/XkHAP/Kzj9/lW9sAACYyqt/+XceuenvTPrRqcDcl3PlTR/mTGDRW77PIzf9nVqP/PJFTAEAJjH35Vx509955Ka/82Q88uVjAXgq4GbedtzzWXbc89mX03+yA4B/hdvv4HJg0cmHMwUAcJnL/j8yAP8KTOXVv/w7j9z0d658y1RgKh/409955Ka/k7jyLVMB2JdbbrgZ5r6cdx0JALXgTj78sj+yGmDuy7nypr/zyE1/54k88uVjAdgbHM5Xb/owZ3IszzkWOPK9PHLT33nk44cD8HTAnXz4ZX9kNcDcl3PlTX/nkZv+zhN55MvHArA3dl7E968GgATs4Levfz7Ljns+tZYd906+sQHY8EdOP+75LDvu+dRa9sU7AZjEzos472V/ZPXcl3Plxw8HoNYtX/wqlwNnfvm9HAMAPBls3c5qYPVP3smy457PE1n2+ovYCQAkprz0+zxy04c5E7j8o8/nvD/vAODZtvPP7+RtV8OZX/4wZwIAsIPfvv75nPfnHQA8nlu++E6+sQEA9jZ79lTYcBPX7gSAWjv//EcuZyofeM3hANSCO/nwy/7IaoC5L+fKm/7OIzf9nSfyyJePBeCZ2nTBhVxOJ885YTYAT8Vhhx8ErOWuNQCwL5R2cMsPP8+XVs3mA+87gzYAYF+4/Q4u51ieeyQA1IIdXHvtDhbN3cTbXn8ROwGATZt2wNxpzAYAErd88Z38dicw5UVccNN7OQYAgKl84E9/55Gb/s6T8aNTAWASOy/ivOOez7Ljnk9i2RfvBOC/Bexg1QaYNWMqAJOmvPS9vHoKADzbZr/0+zzyy8PZdO0OLv/ot7kFAHg83P5t3nY1APw34/Y7uBwA+G8FU3n164+FDTdx7U4A2NvOm29iNVP5wGsOB+Dx3PLFd/KNDQBT+cCf/s4jN/2dJ/LITR/mTADgqbjl8msZX3YEp7QDwGEnHEH9ziv4+yMAMGnNQ2uAw3nOMQEAT+SwQ5YB93HXwwDw34Tb7+ByjuVHHz8cgGcK7uTDxz2f038CH/jT37ng9bOBqXzgTx/mzKu/yrLXX8TO2+/gco7lA2+ZCpt2sBMAYOcONgOzZkwF4NnAke/lkZv+zlePBIBJt/zmj6xmKh94zeEAPBlMeREX/OnlLOJm3nbct7kFAHgiHPleHrnpvXDDzaz+yVf57U4AeDzsvIj3/mQHAP+L4Fh+dNPfeeSmv7MvV75lKgBPhNu/zbKP3gynfpgLXjoVAJe57P8rA/BUwWxmTwGAJ8LOi/j+1cCG7WwCACbBnXz4uK9yOQDwbIDD+epN7+XVU6YCwO3fZtlxz+fJWPbFOwGYBHfy4eO+yuUAwDN1y2/+yGoAIAFTefUv/84jN/2dWo/c9H0+MBeY+3KuvOnvPHLT36n1yMcPByDB7d9m2cv+yOq5L+fKX76IKQDApJ1/fidvuxoWveX7fPVIAHiqzvzy33nkpr+zL4/c9H0+MBcA9gaH89WbPsyZHMtzjgWAZxO3f5vTf7KDRW/5Pl89EgAmnfy5DzPrJ+9k2esvYicAUIvbv83brp7KB778chYBALWmHHsci9jBN35zJwCTYAfXXrsD5h7HyVMAYBLcyYeP+yqXAwD/Tkxs5OYbb+baG2/m8j//jPe+6TzO/vkQZ37qs7xzLgA8FUztYDYAUIsNf+T0457PsuOez7LT38nbbgj4wHc/x6unA8Dj4cj38shN7+UYAKAWO+/ksg1Tec7nPswH+CPv/fMOABJs2M4mAGDnn9/J267ewWU37wDg2cSUF3HBTX/nkZs+zJkAwL8T3Mzbjns+y457PrVO/8kOAPbGzh1sZiqLZwDAfwpM5dW//DBncjNv++KdANSC2cyeAnAnH/7ozSx6y4f5wFwA2BvsYNUGWDR7KgD7yy033AwAbOd7r38nv90JAP9tOPJcPjB3B9/4zZ0A1II7+d5PdsDc4zh5CgDsyy1ffD5vuxoA/p0o3czfroMVpxxHGwDA8mN5bl2BS695BIBJYxMFmDWV2R4APBE6OpkClGMAmMSGP3L6cc9n2XHPZ9Ky11/ETgDgP4Ej38sjN72XYwCAZ4KdF3HecV9l81u+zyM3fZ9XTwGABBzOV2/6Ph/gj7x367k8ctN7efWM2bBhO5sAALZuZzVTWTwDAPZl05/fybLXX8ROAHbwjZc9n2XHPZ9Jp/9kB3Azbzvu+Sw77vnU+vDtAMDOi/j+1bDoLR/m1VMA4Mliyou44MvHwqnTmL0TAJ6MYz7+fT4wdwff+NRF7AQAJsFUFs8A2MFvP/VHVp/6YX50KgDsDXawaRMweypTAID/Rtz+bZYd921uAQAmTXnp93nkly9iCgCwt51/fifLPnoznPphHvn44QC4zGX/nxmAfxemvIgLbvowZ3Izbzvu29wCAMCdfPi4r3I5x/Kjm77PB+YCG/7I6cc9n2XHPZ8nsuyjNwOwL3AnHz7u+Xz4dgDgyPfyyJePBabygT/9nUdu+jt7e+TLxwJw5gmHA5CAO/nwcV/lco7lRzd9nw/MBTb8kdOPez7Ljns+T2TZR28GoBa3f5u3XQ1nfvn7fGAuADxTO//8TpZ99GY49cM88ssXMQUAmMTt3+b0n+yAUz/MBS+dCsBTsXPrJmAqi2cAwL7ADlZtAIB9gcP56k3v5dVTpsLt32bZcc9nb8uO+yqXA6t/8k6WHfd89rbsi3cCUIvbv82yj97Mord8nwteOhWASTCVKVMO56s3/Z0fzf4jpx/3fD58OwBMuuWGmznzy9/n1TMAYG9MeRHvPBW4+g5uAQAS3H4h39gAZ77+RUwBABJwJx8+7qtczrH86Kbv84G5wIY/cvpxz2fZcc/niSz76M0APBX03smXPv1t3vvpb/Phn1zBLaWT+dHFv+arJ3UC8FQxWqAfAKhF1+F87LPv5duffS9ffcsZnDljhO+/4xWc8LmbGQAAnqqdN9/E6lNfzqunTOXVrz+W1T/5Kr/duYNNmwA2sWkncPu3Of0nOzjzy3/ngpdOBaAW7OAbL3s+y457Pk/G264GgCeLDX/k9OOez7Ljns+y497JNzYAV3+VZcc9n8Sy497JNzYAwJMBx/Kjm/7OIzf9nVpXvmUqAHtj63ZWM5vZUwDg2QI387bjns+y457PpLddDQCT4HDe9ZapcPUf+e1OANgbO3ew+dQPc8FLpwKwL+zcwWZg1oypAOwP7LyI718NAGy4mcs37OAbL/s2twAA/01gKq9+/bFw9R/57U4AmHTLF7/K5UzlA597EVMAgL3d8sXn87ar4cwv/50r3zIV2ME3XvZ8lh33fJ7IsuO+yuUAwJM1cN3lXBsv4DlHNgGQwFvGc07NM37pP7m2BADPFroO52OffS/f/ux7mfTttx5OGwDw7wZ38uHjns+y457P41n2sj+yGlj9k3ey7Ljn83iWHfdtbpnyIi646e9c8NKpANzyxeez7KPwo5u+z6unAEzl1b/8Oxe8dCoAzJjGIjaxaScA7Ny6CeYex8lTAGDSzj+/k9N/sgO4mcv4MI/88kVMAeBYfnTT33nkpr8z6cq3TAWO5Uc3/Z1Hbvo7tb56JMAOfvupP7KaY3nnS6cC8GSw8yLOO+7b3AJw5Ht55OMvYsoUAIAdfONlz2fZcc9n0uk/2QHAJJjKq19/LGz4I9+7HQD2BjtYxcu58uOHA7AvsINVG2DR7KkA/DfZuXUTAE+EnRfx4T/vAGBv3P5tTv/JDha95fs88vHDAXCZy/6/MwBPxaZNOwB4suBwvvqnl7OIm3nbF+8E4JYvfpXL576cK296L8cAAMx9OVfe9HceuenvPJFHvnwsAPvC7XdwObB56w4AEhx5Lh+Yu4NvfOoidgIAk+BOPvzRm+HUD/PVIwEgccsXv8rlc1/OlTe9l2MAAOa+nCtv+juP3PR3nsgjXz4WgFo7t25i0Vu+z1ePBIBnip0X8d6f7GDRW77PIx8/HIBa7LyI8z56M8x9OVd+/HAAYAe/ff07+e1OAPhXNm3aAcxm9hQAeCLMnsoUAKAW7OC3r38+H74dOPK9PHLT36n1yJ9eziKAuS/nypv+ziM3/Z29PfLxwwGYxO3fZtlHb2bRW77PBS+dCsDjOebjf+eRLx/L5R99Psu+eCcAiWM+/ne+eiQAPJ5jXvNyFnEzb/vinQDAnXz4ozfDqR/mq0cCwKRbvvhVLp/7cq686b0cAwAw9+VcedPfeeSmv/NEHvnysQA8Fcx9OVfe9HceuekCbvjyGUzZeQXv/dy1DAAAT1Wlr49xmpjaCgCTqJvDsccfy8nHH8uZL30TX/3mT7jhC4dTue7bfOqKEQCeCriT7/1kB2eecDgAHHkuHzj1OE6esoNVGwB2cNnNd/LbX97MmV/+O189EgD2BlP5wJ/+ziM3/Z0n40enAsCTxdyXc+VNf+eRm77PB+YCAKd+mEdu+juJR276Ph+YCwB7g9nMngIAiSkv/T6P3PRejgEAak156fd55Kbv8+opADCJI9/LIze9l2MAgEm3fPH5LDvu+dQ6/Sc7gJt523HPZ9lxzyfxtquBDX/k9OOez7LXX8ROAACO5Uc3/Z1Hbvo7k350KgDUmvLSD/OBuTv4xqcuYicAUIspL+KCjx8OwOPZefNNrOZYnnskADwVXP1Vlh33fJ6s03+yA4C97bz5JlZzLGeeCsx9OVfe9GHO5Gbedty3uQUA+G/Cke/lR6fu4BufuoidAAC3f5u3XQ2c+nJePQUA9sbt3+ZtV0/lA3/6O189EgBgKh/409955Ka/80QeuenDnAkAPBkwwjVXroVlR3BKOwBMWnHisdTH93HZ7SEACVLA5h1sigHgidC3h53kaawHgEnUzeHY44/l5OOPZdLJB08lDQDsDe7kw8c9n2XHPZ/Hs+yjNwNw+Uefz7Ljns/jWXbct7mFw/nqTX/nkZv+zuP50akAsOgt3+eRm/7O43nkpvdyDACQYOdFfP9qWPSWczkGANgbUw7nOXN3cNnNO4AdXHvtDpg9lSkAADsv4rzjns97+TBXvmUqcCzvfOlUAHZu3QTAU7Xzz1/lGxvgzC+/l2MAgH+FnRdx3sv+yGpu5tLbAaAWTOUDf/o7j9z0dyZd+ZapANTiyPfyo1Ph8o9+m1sAgFpwOF/95YuYAgDsC7ffweVM5TnHTgXgqWDDHzn9uOez7Ljn82Qs++jNADxbbvni81n2sj9y+U++ym93AsAk2MFvf3kzcCzvfOlUAFzmMhcYgH8F7uTDxz2fZcc9n7ddDXAzbzvu+Sw77vkkTv/JDgAeD1NexDtPBa7+I7/dCcd8/O888ssXMQUAeLbccsPNwLG886VTAUjAVF79uZezaMMfOf2LdwKQgDv58HFf5XKO5UcfPxyAScd8/O888ssXMQUAeKamvPT7XPDSqQA8G5jyIi646e9c8NKpANRi50Wc97I/sppj+dEvX8QUAIDbL+QbG3bwjU9dxE4A4PHAnVx6NXDqERwDADwd7LyTyzbA5TfcCUAt2MFvP/VHVnMsP/rli5gCADyRnX9+J8s+ejOL3vJ9LnjpVAD+FY58L4/c9GHOvPqrLDvu29wCAPwrTHkR7zwVuPqrfPj2Hfz29V/lco7lRx8/HIBax3z87zzyyxcxBQD4T4GAtiPfxC/ft4DKXT/kI5eOAPBUQMgtN98HdQdz6FwAeCL1xxzHMcAt968B4KnY+ec/cvncl/OuIwEApvLqj7+IKbffweUcy4++fCyrr93Byb/8O189EgD2NuWl3+eRm77Pq7d+m2XHPZ9lX7wTgCdyzMf/ziO/fBFTAIAncszH/84jv3wRU9jBb1//Tr7BsZw5F7j6qyw77vmc9+cdwFRe/cu/88jHDwdg0s6tmwCAO/nwcc9n2XHP58k67887AHgix3z87zxy09+Z9MhNH+ZMAIBTP8wjN/2dvT3yyxcxBQB4smAqr379sbDhj3zvdgB4KmAH1167A+ZOYzYA8FRw6od55Ka/82Rd+ZapANSCO/neT3aw6C3n8lwAAA7nqzd9mDO5me//eQcA/22O+fiHOXPDHzn9i3fCzos476M3A8fyo48fDsC+cOR7eeSm7/PqKQDw78SGy/jtI8Ajv+GE457PsuOez6Rl77iCceDav1/OAACwaNEC4BHufhgAnshd9zwC3kEcsxgAni44nK/e9Hceuenv7O2RP72cRQBzX86VN/2dR276O0/kkZveyzEAwONh50V8/2pY9JaXM+snF3ILAPB44E4+fNzzWXbc81n2sj+yGlj9k3ey7LjnM2nZce/ktzsBAKZy8slTWf2TC7nl9gv5xgY484TDAUgw5UVccNPfueClUwHYG3OnMRsAeCo49cN89UgA+FfYeRHnveyPrOZYfnTT3/nqkQDwdB3zmpeziJv5/p93APBU3XLDzcBsZk8BgKeCuS/nypv+ziM3/Z0n45EvHwvAkwE7uPbaHTB3GrMBgEnc/m2WHfd83nY1nPnlv/PITd/n1VMAYG/MncZsAMBlLnOBAfhX4HC+etPfeeSmv3PlW6YCx/Kjm/7OIzf9ncSPTgXmTmM2ALAvx7zm5SxiB6u2AsCzDe7k0quBU4/gGABgElNexAVfPhau/irLvngncCcfPu6rXM6x/Oim93IMAPC/Du7kwy/7I6s5lh/d9F6OAQASHPleHvnysbDhj7z3zzsAeDzcfgeXA2eecDgAj4edO9gMLJo9FYC97bz5JlYzlQ+85nAAat3yxXfyjQ1w5pffyzEAALd/m2VfvBOAWrCD377++Zz+kx2c+eW/c8FLpwLwZMHhfPWmv/OjU2/mba+/iJ0AwL9yzMc/zJnA5R99J9/YMJUP/Om9HAMA/Ddpe+47+MACuOvHP+XaCQB4ssZv/wFfvBEWveJsDvMA4N+BnRfx3p/s4MzXv4gpAEACdvDbX97MorecyzFHHsGZG27i2p0A8Hi4/dss++jNAHD1V1l23PP5V5Yd921uAQD+FXZexHnHvZNvzP4wj/zyXBYDnPphHvnTy+En72TZcd/mFgCg1qZNO2DuNGZzOF+96e88ctOHORPg1A/zyE1/Z2+P/OnlLAKY+3K+/dKpADwV3H4HlzOVD7zlWLj6Dm4BAJ4NHHkuH5h7LItn7ABg06YdMHcaswGAJ8LtF/KNDXDm61/EFABgX2754vNZ9sU7AUjAVF79y7/zyMcPB+DJmvLS7/PITe/lGAAgsfPPf+RyjuWdL50KwCQ4nK/e9HcueOlUAP7bwOF89aYPc+bVX2XZy/7IaqbygT+9l2MAgP1t9Q3XspOpvPTj7+Xbn30ve/vYGZ3wyBX8eQMAtJ10Jid7Bf78gz+yKQaAfaH/Cn5+aYH6557MMR4APNvgTj78sj+ymmP50S9fxBQAAO7kw8e9k9/uBICnAnbw20/9kdVzX863X/oi3vWWTbzti3cC8HjgcL5609955MvHAnDml//OIzf9nUlXvmUqMJvZUwAgMeXY41jEzbztozfD3JfzriMB4F/ZtGkHzJ4Kf34ny457PpNO/8kO4GbedtzzWXbc80ksO+6d/HYnAEx56fd55OOHA7AvHPleHrnp71zw0qns/PM7WfayP7J67su58qb3cgwA8Eww5UW889SpzJoBADu3bgJmM3sKADwRdl7E96+GRW85l2MAgH3Z+ed3suz1F7ETAEgc8/G/88gvX8QUAODJ4Mj38shN3+fVUwBgEuzgGy97PsuOez6n/2QHALCDVRuA2VOZAgDAzbztuOez7KM3w6kf5pGb/s5XjwSAvcFUXv3Lv/PIL1/EFADAZS5zgQF4KjZt2gFzpzEbAHiymDKVWcDmrTsA2Bsb/sjpxz2fZcc9nyey7KM3A7A3br+Dy4EzTzgcgL1x5Ht55MvHwtVfZdlxX+XyUz/MIze9l2MAgH+FDX/k9OOez7Ljns8TWfbRmwH4T4M7+fBxX+VypvKBP72XYwCAWhx5Lh+YC6t/8k4+fDsA7A128Ntf3gwcy3OPBICnA3Zw7bU7YO5xnDwFACZx+7d529Ww6C3f56tHAkDilq2bWHT1VznvzzsAmHTLF9/JNzYcy49u+jtfPRIAno5jPv53Hvnli5gCAPwrcDjPPRUAYAeX3bwDgCeDDX/k9OOez7Ljns8TWfbRmwF4JmAqr37/2UyZuJMv/vg+KgDAE4GQnTd+m1d84mYGFrycr5w3FYB/ZfyKa7kcOObAhQA8GbCd733qj6ye+3LedSQATNr556/yjQ3H8s6XTgUO511vgW/85k4A9mXnn9/Jso/eDEBi0Vu+zyM3/Z19eeRPL2cRAHDml9/LMQDA44Ed/Pb1z2fZy/7IrC//nUc+fjgAk5jyIi646e9c+ZZNvO2457Psi3cCkIAdbNoEzJ7KFAAADuerN32fD2z6KsuO+za3AACJW774fJa97I/wlu/zyC9fxBQA4Km45YabYe5xnPzSIziTm/n+n3cA8GyAqbz6l+/l1VOmAvBkwQ5++8ubYe7LedeRAPBE2LSDnQAA3MmHj/s2twAAO//8TpYd905+uxMAErd88fksO+7b3AIAJHb++Z0s++KdACTYeRHv/ckOzvzyezkGAPhfAXfy4eO+yuUAAKe+nFdPAYCnAnbwjZc9n2XHPZ8nsuy4r3I5APCvED/C3/8xAgecyZtOPZaTjz+Wvb30RccwhT1cdvMmAMgeywfeMhs2XMTrP3ctO6sAUKuy81o+/NafcVfjsXz1TcsAeLbBDn77+q9yOcfyo5veyzEAQILbd7B57g6+8bLn8+HbAeDJuuWL7+QbG6bygc+9iCnAlJd+mA9s+irn/XkHAI8H7uTDH70Z5r6cdx0JAAm4k+/9ZAecegTHAAAJpryId54KAGe+/kVMAQCeCNzJpVfDotlTAYBj+dFNf+eRm/7O3h758rEAPBWwg9++/vmc/pMdLHrL93nkly9iCgDwbDjm49/nq0dOBeCpuOU3f2Q1x/LOl04F4ImwYTubAADYwW9f/05+uxMAuP3bLDvu+Xz4dgBI7PzzO1l23Dv57U4ASHD7t1n2+ovYCQBMgql84E9/55Gb/k7ikZveyzG338HlwJknHA7AJOa+nCtv+juPfPxwABI7/3wRtwAALnOZyxIG4MmCO7n0amD2VKYAAE8WO3ewGZg1YyoAe2Puy7nypr/zyE1/54k88uVjAdjbLTfcDBzLc48EgL2x8yLO++jNACS4+qssO+7b3AIA/CvMfTlX3vR3Hrnp7zyRR758LAD/Sey8iPOO+yqXM5UP/On7vHoKAOwNpvLqz72cRcDlH/02twAAtbj9Qr6xARa95VyOAQAeD1u3sxqYNWMqALW4/UK+sQEWnXw4UwCABLd/m2UfvRlO/TAXvHQqAJOOeen3ueDLx7L6J+/kw7cDQOKYj/+dR256L8cAAP8JsIPfvv75vO1qOPPL3+cDc2H1T97JeX/eAcC/wtyXc+VNf+eRm/7OE3nky8cC8Eyx4OV8/Ll5Bi79Nt98BAAmMbGRm2+8mWtvvJnL//wzPv25j3D2c87j9E/fzNhhr+GfP3gRsz0AqMXERm6+8WauvfFmLv/zz/jwe17LkV+5j/Sy1/CBU5sAeDLYsInNTOUDn3sRUwCABDsv4r0/2cGZX34vxwAAU176cs68+qt8+HYAmAR38uHjns/pP9nBmV/+O4/c9Hceuen7POfad7LsuOez7It3ApDg9m+z7Ljns+xlf4S3fJ9Hbvo7Xz0SAB4P3MmHj3sn3+DlXHnT3/nqkQCwL1Ne+n0euen7fGDTV1n2xTsBYOedXLYBzjzhcAAmwVRe/cu/c+VbNvG2457PsuOeT+Jtm17OlTf9nQteOhWAp4rbv83broYzX/8ipnA4X/3ysaz+yVf57U4A2F+4/UK+sQHOfP2LmAIA7AvsYNMmYPZUpgAAt3zxq1zOzVx6OwBMOfY4FrGDb/zmTgASx5xwLHAzl94OAJO4+qt8+HYASHDqh/nqkQDwbLvli89n2XHv5Lc7AeDZsvPP72TZcV/lcqbygT/9nUdu+js/4qssO+6d/HYnADxZMJUP/OnvPHLT33kij9z0Yc4EAP6Vyi3/5M8TcPLzTqYNANgbc4/jpXNh51+v4K4YAKac9zn+8OrZjN/4Q05/zlt4w+d+xm+vvpnL//wzPvz+t3DUy37I5fEyPvvd93JMHQA8m2AHv339O/nGhmP50U3v5RgAYBJHvogLfvl9PjAXLv/o8/nw7QDwRGAHv33983nb1VP5wJ++z6unAABM5dW//D7PufadLPvinQDsCzun8q4/vZxFG/7I6cc9nw/fDgC3fPGrXM6x/OjjhwMwCe7k0qsB4PJfXsROAOCJcPsdXM5UnnPsVACeTbd88fksO+6dfIOXc+VNf+eCl04FYH9j50V8/2pY9JZzOQYAeDybNu2AudOYDQDs/PNX+caGHVx28w4AOPIIzgQu/+VF7AQAphx7HIvYwWU37wAgsRNYtOGPvPfPOwB4IrfccDNwLM89EgAScCw/+uWLmAIATIKbeNtx3+YWACDBzos477jns+y4d/LbnQDgMpe5wAA8Wdx+B5czlQ+85nAAnopbfvNHVnMszz0SAJ5NcCeXXg2cegTHAACTbvni81l23PNZ9rI/MuvLf+eRm/5O4pGbPsyZ3Mzbjns+y457J7/dCQD/a3b++Z0se9kfWc1UPvCn7/PqKQDwr8DNvO2LdwIwCe7kwx+9Gea+nG+/dCoAT2Tn1k0A7MstN9wMTOU5x04FAO7kw8c9n2UfvRnmvpwrP344AAl2XsR5xz2fZcc9n2UfvRmAyz/6Tn67EwD+07j92yw77p18Y8Ox/Oimv/PVI6fy6l/+nR+dCqt/8k6WffFOAP6bQMAxb30NJ3sF/vzl37A6BoAEvXfypU9/m/d++tt8+CdXcNm9e6g/4EV89pe/5oYvn83sFADsjd47+dKnv817P/1tPvyTK7huUwtnvu9z3PDds5ntAcCTwdzj+PYvv8+rpwBAgp0Xcd7L/ghv+T5fPRIAEnA473rLVC7/6Dv57U4AYOdFnHfcV7n81A/zyE1/56tHAgBM5dW//DuP3PRhzrz6qyw77vkkln30Zs788t955Ka/c8FLpwKwN9jBb1//VS4HuPoObuFwvnrT33nkly9iCgDwRGAqr/7l33nk44cDsPPmm1jNsTz3SACoxc6LeO9PdgCwaO5UANjwR753OwA8Vey8iPM+ejOc+mG+eiQAcOR7+dGpO/jGy77NLQDAswV2sGkTMHsqUwCAfWHnRZz30Zvh1A/z1SMB4PGw804u2wCLZk8FgNu/zduuhkVv+T5fPRIAmPIi3nkqcPUd3AIAcOQRnAlcfsOdACSmvPTDfGAuXP7Li9gJMOVFXPDxwwH4V+Bm3nbc81l23POpdfpPdgCwN9jBpk3A3OM4eQoAPFPsvIjzjns+p/9kB4ve8n0euen7vHoKABzz8b/zyJ+O47KXPZ9lx72T3+4EgP80CLnlhvuAgzjlyACAfYGpPOesBTBxLX+7CwAgz4rXfZPb/vRe3nRYno13XcE3vvhtPvyTa7llR56T3vJhrjz/c7xgOgA8m9h5Eecd906+seFYfnTTezkGANgbTOXVv/wwZwKXf/T5nPfnHQDsC7d/m2XHvZNv8HKuvOn7vHoKAEyCqbz6l3/nR3yVZcd9m1sAgFpMmcqUKS/igpv+ziN/ejmbP/p8lh33fN52NZz55fdyDACQgDv58HFf5fK5L+fKP72cRRv+yOlfvBOAJ3LLDTfD3OM4eQoAPFOwg9++/vksO+75vO3qY/nRTX/nkV++iCkAwL/Tpk07YO40ZgMA+wJ38uGX/ZHVc1/Ot186FYDHA3dy6dXA7KlMAdh5Ee/9yQ449cNc8NKpAMDhvOstU2HDTVy7EwCYcjjPmQurr72TnQDAlCPfyztPhdU/uZBbAACmvIgLbvo+r54CAAlu/zZvuxoWveVcjgEAnsimTTtg7jRmAwAuc5nLDMCTATv47S9vhlNfzqunAEAC7uTSq2HRyYczBQBIwHa+9/rns+y455N429VT+cCf3ssxAMDTdcsNNwOzmT0FABLcfgeXA2eecDgA7LyI8457PsuOez5v48M8ctPfSXz1SABIwOF89aa/88hNf+eRL8/mGy97PsuOez7LvngnAE/XLTfcDMxm9hQA+Hfi9m9z+k92AAA7+MbLns+y457PE1n2Kfj2TX/nyrdMhav/yG93AgDs4Lev/yqXM5UPfO5FTAEAHg/cyfd+sgPmvpx3HQkAk+BOLr0amHscJ08BADicd71lKgBs+COnH/d8lh33fBLLPgXfvunvPHLT30k8ctP3+cDcHXzjUxexEwD4T2DnRZx33PNZ9tGbWfSW7/PITe/lGAAgcczH/84jf3o5i67+KsuOez4fvh0AnolbbrgZmM3sKQDwRGAqr/7l33nkly9iCgBQi7qT+fb1f+eRP72GRR7AVF79y7/zyE1/p9a9F/+aP3zh5bxgbhMAe4OpvPqXf+eRm/5OrXsv/iZfPXsZ9R4APF3c/m2WveyP8Jbvc8FLpwJQa8pLv8+PTt3BN172Tn67E5jyIi646e888vHDAUiw8yLOO+75LDvu+Sw77qtcDix6y/d55MvHAnD5R5/PsuOeT+K8P+8AYBLs4Levfyff4OVcedPf+dGpN/O2457Ph28HgFowlVf/8u888vHDAdgXuJPv/WQHi95yLscAAIlbvvh8lh33fJa97I/M+vLfeeSmv3PBL7/PIzf9nUe+fCyXf/T5LDvu+Sz74p0APBnsvIjzXvZHVs99OVd+/HAAJh3z8e/zgbk387bjvs0tAEAtuJm3Hfd8lh33fCa97WoAeCLcfiHf2ACLZk8FYF/gTj78sj+yeu7LufLjhwMwiSkv4p2nwuUffT7Ljns+iWUv+yOr576cb790KnAnH/7ozcCxvPOlUwGYdMwJxwI3c+ntAACH89xTgavv4BYAAKby6tcfCxv+yHv/vAOAJwuO5Uc3/Z1Hbvo7ta58y1QA9gY7WLUBFp18OFMAgKdr55/fybLjns+yl/2RWV/+O4/c9HcueOlUAGox5UVccNPfeeRPx3HZy57PsuOez7Iv3gnAM8Xtd3A5MGvGVAAeDwSc/Nm/88hNn+DMLAA8nrazv8IjN/2drx4JAJPSU47lnV/4Jjdc9nceuenvPHLTBdx+/jf56ksPZ0oKAGrBVF79y7/zyC9fxBQA4Kng9m+z7GV/ZDUAN/O2457PsuOez+NZdtwdPPemv/OjU2H1T97JeX/eAcAkbv82y457Pss+uokP/OnvPPLLFzEFANiXYz7+dx750zS+f9zzWXbcO/ntTgDY2y2/+SOrAYDE5R/9NrcAAHAnHz7uq1zOsfzoly9iypQX8e23TIWrv8qHbweAWps27QCA27/N266GM1//IqYAAHAzbzvu+Sw77vnsbdlHbwZgb7CD377++Sw77vksO+6dXHby93nkpr/zyE3v5RgA4MmCHXzjZc9n2XHPZ9LpP9kBwBNh50V8/2pg9lSmAAB7gx389vVf5XKO5Ue/fBFTAIAEHM673jKV1T95J8uOez6JZcd9lcs5lh99/HBgB7/91B9ZzVQ+8JrDAZg05djjWMQOLrt5BwAwlZNPngobbuLanQCQOOY1L2cRN/O2L94JwN7gTj780ZuBY3nnS6cCMAlu5vt/3gHAJG7/Nm+7GhadfDhTAIAEU17EBTf9nUdu+j6vngIALnOZCwzAk7Hzz1/lGxum8oHXHM7OP7+TZcc9n8Sy477K5XNfzrdfOhWASTCNd/3y7zxy099JPHLT93n1FAB4Knb++Z0sO+75THrb1bDoLedyDACQ4Mj38shNf+erRwIAU17EBTf9nUdu+juPfPxwAJ4IR76XR276O4lHPn44AE/Wzj+/k2XHPZ9Jb7saFr3lXI4BAP6dOPK9PHLT33kqHvnli5gCTHnpyzkTAIAd/Pb17+QbG6bygT99n1dPAYBJ7LyI8457PsuOez6Tlh33VS7nWH70yxcxBQCYxM4dbAYWnXw4UwCAxJSXfp9Hbvo7e3vkly9iCgCQgKm8+nMvZ9GGm7h2JwD8u+388ztZ9rI/svrUD/PITX/ngpdOBWBvTHkRF9z0d658y1Qu/+jzWfbFOwF4snb++Z0sO+75THrb1bDoLedyDADw/x23f5tlH72ZM7/8dy546VQA9uWYj/+dH526g2+87NvcAsCdfPi457PsuOeTWPYp+PZNf+eRm/7OpAteOhWOfC+P3PR3Jj3yp5fDT97JsuOeT2LZcd/mltsv5Bu8nCt/+SKmAMd8/O888qeXs/mjz2fZcc/nqVh23Le55fY7uJxjeedLp8Lt32bZcc8ncekJf+eRm/5O4qtHAsAkjnwvj9z0dxKPnHAHy457Pollr7+InQDA3rj92yx72R9ZPfflXPnLFzEFAJgEU3n1L//Oj069mbcd93zO+/MOACbBsfzopr/zyE1/Z9KPTgWASey8iPOOez7Ljns+k5Z99GY49cNc8NKpAOzLzj//kcs5lh/98kVMAQBqHfPxv/PITX+n1iO/fBFTAHYCc+HML7+XYwCASRx5BGcCm7fuACAxe/ZUAGpx5Hv50akA8O/E7XdwOVN5zrFTAXg6uP3bLDvu+Zx+7XFcedPfeeSmv/PVIwHgiTDlRVxw09955Ka/8yO+yrLjns+y477NLQDAk8HOizjvuOez7Ljnk1j20Zth7st515EA8P8JR76XR276O0/WIze9l2OAYz7+d350KrBpBzsBuJMPH/d8ln10Ex/409955Kbv8+opAPCvMOVFXHDT33nkT8dx2cuez7Lj3slvdwLs4Levfz7Ljns+b7t6Kh/409955Ka/k7jyLZt423Hf5padF3HecV/lco7lRze9l2MAgCkv/T5XvmUql3/0+Xz4doAd/Pb1z2fZcc/nbVfDorecCzfcDKd+mK8eCQAJOJYf3fR3Hrnp7+ztkS8fC0AC7uTDxz2fZcc9n2XHfRU+93ceuenvJC546VQAng6Yygf+9HceuenvTLryLVMBmAR38uHjns+y457PpGUv+yOr576cKz9+OAD7wu0X8o0NU/nAn97LMQBArSkv/T6P3PR3aj1y03s5BgBILHrLh3n1FACYxJTDec5cWL1pBwCJKTNmA1CLKS/i22+ZyiJgJwBQi51TWXwqnPnl93IMAJDgyHP5wFxY/ZN3suy45zNp2Udvhrkv59svnQqAy1zmsoQB+FfYeRHv/ckOzvzy93n1FJjy0u/zyE1/Z9Ijv3wRUwCApwqm8upf/p1HfvkipgAAtaa89Ps8ctPfqXXBS6cC8J8AU3n1L//OI798EVMAgFpTXvp9Hrnp79S64KVTAfhvBofz1Zu+z6unwC1ffCff2HAsP7rp+7x6CgDUYsqLuOCmv/PITX+n1iM3vZdjAIBaTHkRF9z0dy546VQAng6mvIgLbvo+r54CAE8EDuerN/2dR375IqYAAE8GU17EBTf9na8eCVNe+n0euenvPPLxwwH4V6a89Ps8ctPfeeTjhwMwCaby6l/+nUd++SKmAAC1prz0+zxy09+pdcFLpwLw/9ExH/87j/zyRUwBADjyvTxy09/56pEA8ESO+fjfeeSm93IMAIfz1Zv+ziM3/Z3EI798EVMAgCfClBdxwU1/55Gb/k7ikZveyzFHvpdHfvkipgAACaa8iAtu+juP3PR3nopHbnovxxz5Xh656b0cA3Dke3nkpr+T+OqRAPCvcOR7eeSmv5N45JcvYgoAUIvbv82yj97Mord8n0d++SKmAAD7cszH/84jXz6W1T95J8u+eCcAU176fR656b0cAwBMOubjf+eRX76IKQAAU17EBTf9nUdu+ju1Hvn44QDUgqm8+pd/55GPH86Ul36fR256L8cAAE8FUw7nq7/8O189EgBqweF89aa/c8FLpwKQmPLS7/PITe/lGABg0jEf/zsXvHQqALWO+fjfeeSXL2IKADBpyku/zyM3vZdjAIBaU176fR656fu8egoATNq5dRPMPY6TpwDA08GR7+WRm/7OI798EVMAgKfqmI//nUdu+juP3PRejgEAJk156fd55Kbv8+opAFCLKS/igpv+ziM3/Z1Jj/zyRUwBAFxW65iP/50LPn44UwA4nK/e9Hceuen7vHoKADxVTHkRF9z0dx656fu8mos477h38o0Nx/Kjm/7OIzd9n1dPAYDElJd+n0duOoJLX/ZHVp/6YR656b0cAwBMmvLS7/PIl4/l8o++k9/unMqrf/l3Hrnp7yQueOlUjvn433nk44cDkJjy0u/zyE3v5RgAYG8c+V4euen7vHoKwOF89aa/88hNf+eRm77Pq6cAwDPBke/lkZu+z6unAMCkKS/9Po/c9F6OAQDgcL5609955Ka/U+uRX76IKQBArWM+/nce+eWLmHLke3nkpu/z6ikA8FTAVF79y79zwUunAlALpvLqX/6dRz5+OAAJjnwvj9z0fV49BQAmTXnp97ng44czBQCoxZSpvPrjf+erRwLAJJjKq3/5dx656e/s7ZFfvogpAIDLXOayhAH4V5jyIi646e989UgA+FeO+fjfeeSXL2IKAOCyWjCVV//y7zzyyxcxBQDYG0zl1b/8O4/88kVMAQD+3Y75+N955Kb3cgwA4DKXuey/1TEf/zuP/PJFTDnyvTxy09+54KVTAfhXOPK9PHLT33nk44cD4LJn05SXfp9HfvkipgAALnPZM8GUF3HBTX/nkZveyzEAwN7gcL5609955OOHA7AvHPleHrnp+7x6CgC4zGUuc5kLDIDLXOYyl7nMZS5zmctc5jKXucxl/x8ZAJe5zGUuc5nLXOYyl7nMZS5zmcv+PzIALnOZy1zmMpe5zGUuc5nLXOYyl/1/ZABc5jKXucxlLnOZy1zmMpe5zGUu+//IALjMZS5zmctc5jKXucxlLnOZy1z2/5EBcJnLXOYyl7nMZS5zmctc5jKXuez/IwPgMpe5zGUuc5nLXOYyl7nMZS5z2f9HBsBlLnOZy1zmMpe5zGUuc5nLXOay/48MgMtc5jKXucxlLnOZy1zmMpe5zGX/HxkAl7nMZS5zmctc5jKXucxlLnOZy/4/MgAuc5nLXOYyl7nMZS5zmctc5jKX/X9kAFzmMpe5zGUuc5nLXOYyl7nMZS77/8gAuMxlLnOZy1zmMpe5zGUuc5nLXPb/kQFwmctc5jKXucxlLnOZy1zmMpe57P8jA+Ayl7nMZS5zmctc5jKXucxlLnPZ/0cGwGUuc5nLXOYyl7nMZS5zmctc5rL/jwyAy1zmMpe5zGUuc5nLXOYyl7nMZf8fGQCXucxlLnOZy1zmMpe5zGUuc5nL/j8yAC5zmctc5jKXucxlLnOZy1zmMpf9f2QAXOYyl7nMZS5zmctc5jKXucxlLvv/yAC4zGUuc5nLXOYyl7nMZS5zmctc9v+RAXCZy1zmMpe5zGUuc5nLXOYyl7ns/yMD4DKXucxlLnOZy1zmMpe5zGUuc9n/RwbAZS5zmctc5jKXucxlLnOZy1zmsv+PDIDLXOYyl7nMZS5zmctc5jKXucxl/x8ZAJe5zGUuc5nLXOYyl7nMZS5zmcv+PzIALnOZy1zmMpe5zGUuc5nLXOYyl/1/ZABc5jKXucxlLnOZy1zmMpe5zGUu+//IALjMZS5zmctc5jKXucxlLnOZy1z2/5EBcJnLXOYyl7nMZS5zmctc5jKXuez/IwPgMpe5zGUuc5nLXOYyl7nMZS5z2f9HBsBlLnOZy1zmMpe5zGUuc5nLXOay/48MgMtc5jKXucxlLnOZy1zmMpe5zGX/HxmA/e2WLz6fZcd9m1sAgL3BDn77+uez7It3AvBUcPu3WXbc8/nw7QDgMpe57H8Rt3+bZcc9n2XHvZPf7gQAl/0n3PLF5/Ph2wHg8XD7t1l23Le5BQB4uth5Eecd93yWvf4idgIAz8TOP7+TZcd9m1sAAJe5zGX/H+z88zs57887AHgiO//8TpZ98U4Ani52XsR5xz2fD98OAP8fEMPm3QDw7zb+oPLZ7yuTrusDgCejuk25dS2MVwFgb7f+Qfns95XP/kEZBABc9t/sH99XPvt95bNXAsCzyQA8U7CD377++Sx7/UXsBACeLHZexPevhkVvOZdjAIAnws6LOO+4b3MLAPCv3HLDzcCxPPdIAPj/aOef38my477NLQBALdjBb1//fJZ98U4A/tO4/dssO+75fPh2AKjFzos477h38tudAOCSnX9+J8uOez6JZcd9m1sAAJdNgjv58EdvBgB2sGorADxZ7LyI8457Puf9eQcAteBOPnzc8znvzzsAcFkt2MGmTXD5R7/NLQDAvtyydROLuJnv/3kHAE8H7OC3n/ojqwE2/JHv3Q4AzxTczNu+eCcA/wrs4Levfye/3QkAT2Tnn9/JsuO+zS0AwP7Ezos477jnc96fdwDgsv9W3P5tlh33Tn67EwD+XeBOPnzc81n2xTsBeCq4/dssO+75nPfnHQDsjdu/zbLjns95f94BwH8C7GDTJlj9k3dy3p93APBEuPqrnPfnHQA8E5d/9NvcAgD8Kzv//E7O+/MOAJ4IOy/ivOOez4dvB4B/h1u++HyWvf4idgIAiVu/o7zgHco7L4YqAMq3Xq889/XKk/Wt+wHgibBNedPn4R/XQeIfdwJ5AHgy7r4Q3vlh5djzlH8MA0CtzXfDP66Df9wNZQDg8Zz/GeW5r1eerndeBgD/n7BZ+ez3lafr1mEA+FdAufs6+Md18I/HFIBnkwF4srj92yz74p0APFmwg9++/p38dicA7G3nzTexGlj9k3ey7LjnM2nZcd/mFgCgFlNexLffsom3HfdOfrsTAB4P3MmlVwOnHsExAMD+AHfy4eOez7Ljns/jWXbct7kFALjli89n2XHPZ2/Ljnsnv90JALU49jjO5Gbedty3uQUA2Be4kw8f93w+fDsA7MvOP7+TZcc9n6di2RfvBOCp4PZvs+xlf2T1qcdxMgDw/xXcyYePez7Ljns+k07/yQ449cM8ctPfeeSm93IMAOCyBOzgt6//KpczlQ/86e/86FS4/KPv5Lc7AeDJ2HnzTaxmKs85dioAzxQ7L+K8457Ph28HgL3d8sXns+z1F7ETAHg8sIPfvv75LDvu+Twdy477NrcAAM82mMqrf/lhzuRm3vbFOwHYl2Ne+n3eeSqsvvZOdgIAT9XOP3+Vb2yAM7/8fT4wFy7/5UXsBACerikv/T4/OhW4+o/8dicAPBFuv5BvbNjBN172fD58OwA8G+BOPnzc81l23PN5spYd905+uxMA/pVbfvNHVnMs73zpVAD+F+388ztZdtw7+e1OAEg89MPXsuyU9/PnnQDw/w07L+K8457PsuOezxNZ9sU7Aah1yxefz7Ljvs0tAMCTwc6LOO+453Pen3cAUAvu5MMfvRlO/TAXvHQqAHu75YabYe7L+fZLpwLwnwBTOebj3+fKt0xl9U/eyXl/3gHAvkx56ff50amw+icXcgsA8FQx5UVc8OVjgZv5/p93APBE4E6+95MdrP7JO1n2xTsB+G/CbuX3dwEx3Por5czvKOMxDAzCzkF4sgaqAPB4GFY+9glYEwNAggJ84BPK5ioAPBFQHloFACyCWz+gPPf1Sq2f7wQAdsKrX6889/VKrXdeBgCJ6hDsHISna6AAAP+fsAf+cR08XZsLALC/GYAn65atm1h09VdZ9sU7AfhXYAe/ff07+caGHXzjN3cCUAvu5Hs/2cGZX/47j9z0dyb96FQAeDxTXvp9HvnybL7xqYvYCXD7t1l23PPZ27LjvsrlAFd/lWXHPZ8n47w/7wDg2QSH89Wb/s4jN/2dK98yFZjKB/70dx656e8krnzLVABqMfflXHnT33nkpr+T+NGpALOZPQV2/vmdLDvu+Uw6/WV/5HIAbuZtxz2fZcc9n8SyL94JwCR2TuVdXz6Wyz/6fJZ98U4A9gWO5Uc3/Z1Hbvo7T+SRm77PB+YCwFOx88/vZNlHbwaAq//I6S97PsuOez57W/b6i9gJAOwL7OC3r38+y457PrWWPee1vOKL/+ShCQCYBDv47eufz7Ljnk+tZae8gtNf8xE+/ec72VkFgFqwg9++/vksO+751DryRe/nSzfuoQIAPB44nK/e9HceuenvJH50KjD35Vz58cMBmLTzz+9k2XHP5/EsO+6d/HYnADwZEHL5J57PsuOez4dvB4AnUtl5J7/9+kc4+6zzWHbc80kcfNY7ecMPb2ZTCQBqwQ5++/rns+y457MvH74dAJ4s2MFvX/9OvrEBzvzy93n1FDjm49/nA3N38I2XfZtbAIAnAju49todcOrLefUUAHimdt58E6s5luceCQDPFKd+mEdu+ju1Hrnp+3xgLnDqh3nkpr+ztyvfMhWAfyc4nK9++Vi4+qt8+Ha45YvPZ9lxz2dvb7sa2PBHTj/u+Sw77vnUWvb6i9gJAOwLt3+b03+yA079MF89ciqv/tzLWbThj7z3zzsA2BfYwW9f/3yWHfd8nsjbrgbYwTde9nyWHfd89mXZcd/mFoAj38sjN32fD8yFyz/6fM778w4Ani2L3vJ9Hrnp7/wrj3z5WAD2dssXn8+y457P3t52NcDNvO2457PsuOfzryw77p38dicA7As7L+K8457PsuOeT60jX/R+PvzPtYwDAP9OEDJWAYB/B/r/ySuOez7LXn8ROwGAJ0L/nXzj/W/hyBOfz7Ljns+Rb/oqf15VAOCZOvPLf+eRm/7O3h656ft8YC4A/LvAnXz4uOez7LivcjnA1V9l2XHPZ9KHbwcAuJNLrwY2/JHTj3s+y457PrWWvf4idgIA/w5TXvp9fnQqALDzIs477vksO+757O1tVwPczNuOez7Ljns+tT58O+z88ztZdtzzeSLLPnozAKt/8k6WHfd8Hs+Hbwc4nK/e9HeufMtUuPqrLHv9RewEAJ6unX9+J8uOez57W/b6i9gJAOz88ztZdty3uQUAeDx0Cz/9AZzUAACD98NDZQBIzHo+XPtrYV+u/TLMAgCeSHWz8uo3wxVjANB6DLxhLgCwGV7wbuXWYQB4PGyAKwYBYOEBkBqEnYNQazwGAGIYHISdg1BroAAAtfCgtRWmtMKkFABACqa0wqQpzQDwdAxephxwjpJ47m8VgCfCsPKPPyivfq1ywDlK4oCXKK/+nHLdDgDY284LlAPOUR7P73cAwL8bKB87RzngHGVfDjgHrgAAuAUOOEd5PAd8UwF4KgzAk3XMS7/PBX96OYuu/irLvngnAI8HdvDb17+Tb2yAM7/8dx75+OEA1Nr55z9y+dyX864jASABO9i0CTj1CI4BAPaFI9/LI798EVMAjnwvj9z0d2o98qeXswjg1A/zyE1/58m64KVTAfhvAndy6dXAqUdwDDDlpd/nkZv+zr/yyMcPB2ASU6Yy5cj38shNH+bMq7/Kh28HgGfbzj+/k2VfvBOAWnAnHz7u+Zz+k9n86Ka/88hNf2dffnQqAJz5+hcxBQB4InQdzsc++16+/dn38tW3nMGZC9Osufo3vOKV3+aWEgDUoutwPvbZ9/Ltz76Xr77lDF5w6kLaJjbxt598ldNPfwtfumsEgL3RdTgf++x7+fZn384Hzjucxant/PnTb+GVF+wA4NkAx/Kjm/7OIzf9nVpXvmUqAE8F/Zfzp1tms2IZXH7VzVQAgH3ZdOmnOP1lX+UbV2wivfw43vS+9/KxV5/MSfNCHrzg25x91vv5/qoCAHuj63A+9tn38u3Pvpdar5kHAE8G7OC3r38n39gAZ37573z1SACAqbz6lx/mTG7mba+/iJ0AwONh551ctgHOPAE+fNzzWXbc86m17Livcjmw+ifvZNlxz2dvy15/ETsBgATcyfd+sgNOncam1z+fZcc9n7297Wpgwx85/bjns+y451Nr2XHv5Lc7AeB/AUeeywfmTmXz1js55uN/55Gb/s5T8cgvX8QUAGBv7LyI8z56M8x9OVd+/HAAmPIiLvjysaz+yTv58O0AsDeYyqt/+Xceuenv1LryLVOBqXzgT3/nkZv+zpPxyE3v5RgAAKby6l/+nR+dCmzawU528NvXP59lxz2fWqf/ZAdwM2877vksO+751Prw7QDwbDvm43/nkZv+zqRHbvo+H5gLzH05V970dx656e88GY/c9H1ePQUAnsiUk17Dtz/7Xr792bfzgfMOZ3FqO5d/6yOc9fX7qAAA/y4QcMz7fs0j13yTl04BgGcLhNzyswt5CAD4V9h2Eee9+Kv8tm8Wb/7Ie/n2x1/OMaU7+dI7PsVvtwHA/7pFb/k+j9z0dyY98qeXswgASOz88x+5/NQP88hNf6fWIzd9mDMBZk9lCgDw73LMx//OBS+dClNexAU3/Z1Hbvo7iUe+fCwAi97yfR656e88nq8eCVNe+n0euenv1HrkTy9nEbDoLd/nkZv+zpP11SMBIDHlpd/nkS8fC2xn007Y+ed3suy451Nr2cv+yGrg8o8+n2XHPZ9ay754JwCT4Fh+dNPfeeSmv5P40akA8HTQIXzjx3BOB7zvC8LReQBIVPvgwUeVfXlwPVQBgMez+WLlzA/Aw1UAaF0GP3+P8PavCu+bBQDshne+WfnWPQCwL2vuhJ0AwDknCYeeBOecBLUW5gGAPJx0EpxzEtQ6aRYA1GIK/PaXwqW/FBKX/hJOAgA4DC79pTDp0s/DQgDgqbr2ZgBI7Lwa7o4BYF/Gb1NOfgN89iJ4eBgAEpTh4fvhA+9QXvBzZRwA+HfgELj218ITufbX8IapAPDfxAA8FUx5ERd8+Vi4+qss++KdAOwNdvDb17+Tb2yAM7/8d756JADUYudFvPcnOzjz9S+CP7+T8/68AwDYwaoNsGj2Dj583PNZdtzzWXbcO/nGBuDqr7LsuOdT67w/7wCgFuzgt5/6I6uZygdeczgA/8t2/vmPXM5UPvCawwF4KmAHqzbAotlTAUjA4Xz1pr/z1SMBYG9wM2877vksO+75PJFlx72Tb2wAgL1x9Vf58O0AkIA7+fBxX2XzW77PIze9l9l/fifn/XkHAJNgB799/fN529Vw5pf/zlePBIB/hbo5HHv8sZx8/LGc+dI38dVv/oQbvnA49UM38/1L9gBQi7o5HHv8sZx8/LGc+dI38dkPfoI/XHQB9/7+7ZzcuIc/f+gjfH8tANSibg7HHn8sJx9/Mq9++4f5xe+/xTvnwurfXs5DAMB/k9WXXMFDc4/gcy87Fm68nL/1A8Dexm//Nq//+iNw2Gv455UXcMEX3s47zz6Wl77u7Xz1mz/h3os/zAsaN/Gzd3yK3+4EgFrUzeHY44/l5OOPpdaidgD4V+BOPnzcO/nGhql84E9/56tHAsAkOJyv3vRhztzwR04/7tvcAgDsyy2/+SOr576cdx15OF+96e88ctPfmfTIl4+FuVNZBCyaOxVO/TCP3PR3aj3yyxcxBQBI7PzzH7mcqXzgNS/i1b/8O4/c9Hf29qNTgbkv58qb/s4jN/2dWo/c9H1ePQUA/hfAVF79y+9zwUsPB+BfgTv58HHP58O3A8DjYedFnPeyP7J67su58pcvYgoAkODI93LlW6Zy+Uefz4dvB4AnY9OmHcBsZk8BgKfrmI//nQs+fjhTmMqrf/l3Hrnp79S68i1TgWP50U1/55Gb/k6trx4JAHtb/ZN3suy45/OvLPvozQD8K9x+Id/YAItOPpwpAEACdvDb1z+fZa+/iJ0AwNPRMO8gTj7+WE4+/mRe/fYP84s//Zpvn5Rn4NI/8ZdeAPhfxCO/5lPXQVsdADwRGOFv3/ojqxtP5he//DCvPvVYTj71RXz1xx/mzOwmvvG1fzIAAOzLLV98PsuOez7LPnozsINvvOz5LDvu+Sz74p0AJC7/6PNZdtzz2duy497JNzYAwP7Ezot470/gA685HID/JrCD3/7yZpj7cr790qkATLrli8/nw7cDwBNh63ZWA7NmTAXg6eLI9/LIL9/LMVNgyku/zyM3/Z1aj/zp5SwCzvzy33nkpr9T65GPHw7AvwMxVDPCp38mvHI6AEzaeRt84JuwLx/4FewEAPZW3a185R3KC34FgzEAzDod/v4ZYZYHePDKbwifXgYAVOH3X1RO/ozy8DAA1LruZgBgKhzaCue8U/j0O4VaZ7YCAK3w3ncKn36nUOsNhwDAfxo7lH+sBVrh6KlAAa5/BAD2Vr1Hef7XYTAGmuF9nxFuvkB44K/Czd+GN6wEgM2XwZsuAIC9MR0u/YfwwD+EWq+cCgBPBhlobYYn0tosNBgAqAXCq94P33g/PJ7lAAAL4Bvvh8fzjecKAE+FAXiqOPK9PPLlY1kE7AQAarHzTi7bMJUP/OnvfPVIAKgFO/jtp/7I6rkv511HAjNmw0/eybLXX8TO2+/gcqbynGNfxFdv+juP3PR3Hrnpw5wJwLH86Ka/88hNf2fSBS+dCkCtnX/+Kt/YAJz6cl49BQD+V8EOrr12B8w9jpOnAECC27/NsuOez+NZ9sWL+O3rn8+y477K5cDqn7yTZcc9n719+HYAqAXH8qOb/s4jN/2dJ/LITd/nA3MBoNaUl36YD8yFy395ETsBADicr970dy546VQAmDEbfvJOlr3+InYCO//8TpYd906+seFYfnTT3/nqkQDwdNUfcxzHAKvXbwbgyUhPP5lv/+xNHObt4Wff/ycDAMDjwZvKotnARIExAGBfuP3bLDvu+Ux629XAhj9y+nHPZ9lxzyex7It3AvBsgU1ce+0eFp18OLMPO4IzvbVcdvsIALWIH+H7X7yZgbkv4pdfPpvZKQCoRePhfPbHb+IwNvGNn91MBQB4Nuz88ztZdtxXuZxj+dFN3+fVUwBgb3A4X73p+3xg7s287bjn8+HbAaAWOy/i+1cDwL7ccsPNLDr5OGYBzJ7Noqvv4BYAYF/gTr73kx1w6st59RQAcA3s4LdfvIidAMDedv75j1wOXH7DnQDsC7d/m2Uv+yOrT/0wj/zyRUwBAGpNeen3ufItU7n8o8/nw7cDwL/TLV98Puf9eQcA/w6L3vJ9Hrnp7/wrj3z5WACeCOzgt7+8GTiWd750KgD/bpDn5JMPAjaxahMA/K8hfoQvfeoK2l/3Dl7aBQBPhJ3X8pcHYMVrXs5hKQBIUHc4rzmnCR65g5uHAGBfjvn433nkpr/zyJePBabygT/9nUdu+juPfPxwABJnfvnvPHLT39nbIzd9nw/MBYD96Zbf/JHVc4/j5CkA8N9k55+/yjc2wJmvfxFTAIAEt3+bt10Nl99wJwD/Ltz+bZa9/iJ2AgD/jW79jnLMu5VbhwGg1qznw7W/Fvbl2i/DLABgElW47vvKMW+F83cAQKL1EHjjErj7duW6W5TEdbcr9afCi2cBQGLwQXj1a5UXfF25exAAeFA5vw8AMJACdl6gHHCOUutb2wCAbfDcc5QDzlEmHfBNBWBv7IRXv1557uuVxHNfD9cBANwFz329Mum5n4Q1AMBTseZGWAPUHwJvPwQAzr9MqQIAk4iVb30fBgGmw99+KrxyJdSnAA/qZwlv/4zw/WMAYM35yj8GAeC/zcJjhJOOEfblpGNgCgBAB5x0jPB4TloAAE+FAXg6OPK9XPDxw5kCANRiyou44Kbv8+opALC3W774Tr6xYSof+NyLmAJMOfK9XHDThzlzwx85/aM3w6kv59VTACDB7XdwOQA3c+ntAPB42HkR7/3JDgC4+qssO+75/CvLjnsnv90JAP8OsIPfvv75LDvu+Zz+kx3ADr7xsuez7Ljnkzj9JzsA2Bduv5BvbIAzX/8ipgAAtc788t955Ka/M+mRm77PB+YCTOXVv/w7j9z0Yc4EFr3lw3xgLjD35Vx509955Ka/k/jqkQDwbIKpvPpzL2fRhpu4disA7G3Kke/lgps+zJkb/sjpxz2f038CH/jT33nkpvdyDADwTBADwJSODgCeLNrP4I3PzcMjd3DzEAA8Hhhhx27ggIUsAgD2hSPfyyM3/Z3EIzd9mDMB5r6cK2/6O4/c9HcSj3z8cACeLTxwBX/euYDnnzwVvMN5wXPzPHT+ZawGACZVbvknf56Ak195HrM9ANgX2s/gjc/Nw403c10JAJ4JuJMPH/d8Tv/JbH705WOBm3nbcc9n2XHP5/EsO+6dfGPDVD7wp++z+JfPZ9nrL2InAJC45Td/ZDUAsDe4k0uvnspzjp0KALOP4Dlzb+bS2wFgX3b++Y9cDgAk4E4+fNzzWXbc86n1tquBDX/k9OOez7Ljns+kZcd9m1sAgFpc/VWWHfd8ai077p18YwNw9VdZdtzz2dvpP9kBwL8D3MmHj3s+y457Pollr7+InQAAt1/IN67+I6cf905+uxMAJsGdfO8nO2Duy7ny44cDsLdbvvh8ln30Zha95fs88vHDAXg8U176fR758rFc/tHnc96fdwDw7wB3cunVsPon72TZ6y9iJwDw34rbL+QbG2DRW87lGADgP4G4CjQxtRUAJo2v+icffusrOPi457PsuPM48q1f5c+rCgDUorqHa3/4Ec5+zvNZdtzzWfacd/LhKzZRAQBq7fzzO1l23Le5BQBI0H8n33j/OznylOez7Ljns+w5b+ENf9sEwL8CBW75ylf5c8uL+MpLp5IGAJ5IZc0aVtPEYQubAKi1aMlyYC13rQGA/4/gTi69Gs58/VS+9/qL2AkA/CfADn77+uez7Ljnk1j2+ovYCQAk4E6+95MdcOqH+eqRAJCAO/nwR2+GUz/MIx8/HIB/l1tuuBk2/JHTj3snv90JAP9N1vxBeectUN0B73yz8sPVADCp2gcPPqrsy4ProQoATBq/X/nydVAFAPAAYPAe+Ng34QPfhL2dvxkAam2+De4ZBoDrLoNxAODZRgyDg7BzECZVAQCqsHMQJu0cBoCnApR/XAEAZx4lLDwQ6gHuh1vKADCJe+D8MQB48euEWSkA2NvRb4eTAGI4/zoAcNneDMCTwe3fZtlxz2dflh33Tr6xAdjwR04/7vksO+757MuHbwfYwezZx7LoLR/m1VzEecc9n2VfvBM4nHe9ZSowlQ+85nAAJt1yw80w9+V84FS4/IY7AdgXuJMPv+yPrAaY+3KuvOnvPHLT33kij3z5WAD+nWAqr/7l33nkpr9z5VumAlP5wJ/+ziM3/Z3ElW+ZCsC+3HLDzTD35bzrSAD4T4Cbedtxz2fZcc/niSw77p18YwMA7I0pL+KCm77Pq2cAQK1bvvh8lh33fJYd91Uun/tyrrzp7zxy0/d59RQAeDZsuuBCLqeT55wwG4Cn4rDDDwLWctcaANgXSju45Yef50urZvOB951BGwDwr3D7HVwOAPw73XL5tYwvO4JT2gHgsBOOoH7nFfz9EQCYtOahNcDhPOeYAIAnctghy4D7uOthAHi62HkR5x33VTa/5fs8ctN7OebI9/LITX/nyXjkpu/z6ilTefUv/86VJ9/E6ce9k9/uBG7/Nm+7GgD2Zeef/8jlc4/j5CkAAFM5+eSpXH7DnQDsjZ0X8d6f7ABgb4ve8n0euenvTPrRqcDcl3PlTX/nkZv+TuLKt0wFYF849cM8ctPfqfXITd/nA3OBUz/MIzf9nb1d+ZapAPw7wOF89aa/88hN3+cDcwFgEke+l0du+j4fmLuDb7zs+Zz35x0AJG754le5nKl84HMvYgoAMAnu5MPHPZ+3XT2VD/zp71zw0qkATOL2b7PsuOfz4dsBYBJHvpdHbvows37yTpYd921uAQD2BjvYtAngZt523PNZdtzzeSIfvh0AEnA4X73p71z5lqmw4Y+cfty3uQUAeLas/sk7WXbc8/lXln30ZgAeD+zgt7+8Gea+nG+/dCoA/wnEO/jt7++EKSdz8gIASIzf/m3OeutvuJtjef9n38u3P/tynlu6jy+99c186REASBDv4LfveAvv/ese2s98Dd/+7Hv59puWMfjLj/D6C4YBeCL0X8EbXvxV/jK4kHd+/L18+7Nv5wNHBqza2AfAvzJ++8/41HWdfODTL2e2BwD/ykDfHmAOc6YDQC1mTGMRsHnHHgCerJ1/fifn/XkHAInLP/p8lh33fPa27Lh38o0NALAvcDNvO+75LDvu+UxadtxXuRzg6q+y7LjnU2vZy/7IagDgyYLD+epNf+er3MHlG/7Ie/+8A4D/BJjKq3/5dx656e/86FQAqHXLF7/K5RzLjz5+OAC3fPH5LDvu+Sw77qtczrH86OOHA/Cv7Ny6CYDLP/p8lh33fJ7Isi/eCcCkYz7+dx7508tZxA6+8bLn8+HbAeC/xcKXCt84HgCowi++rNxdBYDEztvgA9+EffnAr2AnADCp/nDhW6cDHhz9MvjtCwHgyVh4Hvz2ZdDqwcKXCW+fC2xWvn0PADyeL/1auPbX8IapAMBU+O2vhWt/DW+YCgCPBw9aW2FKK0xKAQCkYEorTJrSDABPBQ/C5QUgDycuBpbBmXkghguuA4BJa9YCAK1wzkoA2BcywtGLAGDNVgXg2cZa+Oz3lX/l8kEA2JedFygHnKPs7YBz4AoAgFvggHOUffn9DgB4qgzAk8GR7+WRm/7O0/HIl48FIAFTmfLS93LBS6cCh/PtP72cRVd/lWXHPZ/Tf7IDTn05r54CAAlu/zZvuxrOfP2LePVrXs6iq//Ib3cCQC24kw8f91UuBwD+m8FsZk8BgCfCzov4/tXAhu1sAgCeKnbuYDMwa8ZUAJ4MOJYf3fR3Hrnp7zyRR276Ph+YCwBPxi1ffD7Ljns+b9v0cq686e88ctPfeeSXL2IKAJC45YvPZ9nrL2InAPBkMLGRm2+8mWtvvJnL//wz3vum8zj750Oc+anP8s65APBUMLWD2QBALTb8kdOPez7Ljns+y05/J2+7IeAD3/0cr54OAE/GLTfcDABs53uvfye/3QkAzyZKN/O362DFKcfRBgCw/FieW1fg0mseAWDS2EQBZk1ltgcAT4SOTqYA5RgAJrHhj5x+3PNZdtzzmbTs9RexEwDYG1NexAU3/Z0LXjoVgKdryku/zyM3fZ9XT7mTD3/0Zha95cN8YC4A1IIdXHvtDhadfDhTAIDElGOPY9HVf+S3OwFgEuzgt5/6I6tPfTkfmAsALoOpvPqXf+dHp8Lqn7yTZV+8E27/Nm+7Gha95cO8egoATGLnRZx33FfZ/Jbv88hN3+fVUwDgyYLD+epNf+eRL8Pbjns+H74dAPaFuS/nypv+ziM3/Z19eeTLxwKwL1Ne+n2ufMtUFr3lCGbvBIBny6K3fJ9Hbvo7/8ojXz4WgMez889f5RsbYNHJhzMFAPh3GFt/H9feeDPX3ngtv/3hFzjvrHfyjaHD+ep3X84iAIDSnXzhizdTOenDXPzjN/HS44/l5OPP5mO//BbvnFvgz7+8ggEAYOcFX+Uba/Oc+YUf8Iu3n83Jxx/LyWe/iV/86ZOcQgGAJ7Lzhmu5K57Kmz73dl56/LGcfPzJvPrj3+eGdx8EwBNh20W8/hM30/7G9/Lq6QDwZGzatAPIU58FgH0hDgH4V2AH33jZ83kvH+aCl04FIHHml//OIzf9nb09ctP3+cBcANjbMR//O4/c9Hf29shNH+ZMgFM/zCM3/Z1aj/zp5SwCAJ4qjnwvV75lKqt/8lV+uxMAai2aPRWA/5Rbvvh83nY1wM287bjns+y45/M2Xs4H5gJM5QN/ei/HAOy8iPNefxE7AYDHA1P5wJ/+ziM3/Z19eeSmD3MmALA3pryIC/70chbNfTnPnbEDgP8WeHDSe4TfPh9ogE9/QTg0JRx6EpxzEjxZh3YCQGL5G4VrfyF8/zxh+cuEB/4hPBl/fpmw/Dzh2j8Lvz0PAG79J+wEAB5PfTO0NgsNBgAw0NoMrc1CgwGAx8MU+O0vhUt/KSQu/SWcBABwGFz6S2HSpZ+HhQDAk3XrdTAO1B8Fh3oAwolHAcDdNyuDAEBiYAAAyEM9APB42toAgO2wEwCYxDZ47jnKAecokw54l7ITAHgy6IN/XAf/ypoCAPw3MQD7C1OmMmXKi7jgy8cCAMfyo48fDkCCnRdx3kdvhrkv511HAlNexDtP3cE3XvZtbgEAEnAnHz7uq1zOsfzopu/zgbnAhj9y+nHPZ9lxz+eJLPvozQD8N2LKi7jgpg9zJjfztuO+zS0AQK3LP/p8lh33fCYtO+6dfGMDACTYup3VTGXxDAD4V6a89Ps8ctN7OQYAeCIwlVf/8u888vHDAdgb7OC3v7wZgMQxH/87j9z0dx755YuYAgA8G+i9ky99+tu899Pf5sM/uYJbSifzo4t/zVdP6gTgqWK0QD8AUIuuw/nYZ9/Ltz/7Xr76ljM4c8YI33/HKzjhczczAAA8EXZexPevBgA23MzlG3bwjZd9m1sAgGfLwHWXc228gOcc2QRAAm8Zzzk1z/il/+TaEgA8W+g6nI999r18+7PvZdK333o4bQDAvxs7d7D51A9zwUunArC3nX/+Kt/YcCzvfOlUACYx5UW889QdfOM3dwIwCXawipdz5ccPB2Bvq3/yTpYd93wmve1qYMMfOf2457PsuOeTOP0nOwD4/+SYj/+dK98yFa7+Kss+ejPMfTnffulUAGox5UVccNPfueClUwF4ujjyvTxy09/56pEAUAt2sGoDMHsqUwCAfdm5dRMAj2fKS7/PBS89nClTdvDb1z+fZcc9n72d/pMdwM287bjns+y451Nr2XHv5Lc7ASABh/PVm/7OBS+dCsC/wpHv5ZGbvs+rpwBALXZexHt/sgOABOzgt69/PsuOez6Tlh33Tr6xAdjwR04/7vksO+75TFp23Le5BQD4V3Ze9xve++lv895P/5BvXPAwled9gtvP/zBntgNAonL7tVw+0cRLX3w49QBAAm8qJ58wFR5Yw2oAdnDZVTtg2bl88Mg8AJNILeMlL5wKwBNp62gGdnDtzZuoAACJdCoA4PEwcScffvcf6T/pw/zypVMB+E+65YvPZ9lHbwam8oE//Z0LXjoVAKa8iAtu+jtfPRIA9gZTefUv/84jHz8cgGeKKS/igpv+zgUvnQpArdU/eSfLjns+k5a97I+sBgAmTXnpyzmTHXzjN3cCsD8dc8KxcOqHeeSmv5N45Kbv84FNf+QbG+DML3+fV08BuJMPv+yPrN7wR753OwDsy6ZNO4DZzJ4CAPvCzh1sBgD2hSkv4oJfvohjpkxl55/fybLjns/elr3sj6wGLv/o81l23PPZ23l/3gHAv8PyVwt3/UI4ZzqAsulBuOdBGJgtfPqdQuLTz4c118E/roM1ncKn3ykk3rAS2hoAIIEHrVa57hbl6VgzDikAYNYMAHgiv/++8tnvK5cPAgCD8O3vK5/9vnL5IADsD5SVf9wOAEcfKAAkDj0QAFgLl+8AgP+PMrPgnJPg8ZxxFJxzEjyeWXkAeKoMwP7Ezos476M3A1P5wJ/eyzEAADsv4ryX/ZHVHMuPfvkipgAAx3z8w5zJzbzt9RexEwC45Ytf5fK5L+fKm97LMQAAc1/OlTf9nUdu+jtP5JEvHwvAf8qmTTsAeLLgcL76p5eziJt52xfvBCDBke/lkZv+TuKRmz7MmcCit3yfR276O4lHPn44ADu3bgJmM3sKAOwLt3+bZcc9n2fDeX/eAUDili++k29sAADYwW9f/3yWHfd8nsjbrgY2/JHTj3s+y457PstefxE7AYDHw9yXc+VNf+eRmy7ghi+fwZSdV/Dez13LAADwVFX6+hiniamtADCJujkce/yxnHz8sZz50jfx1W/+hBu+cDiV677Np64YAeCJ7Lz5JlZzLGeeCsx9OVfe9GHO5Gbedty3uQUAeKZghGuuXAvLjuCUdgCYtOLEY6mP7+Oy20MAEqSAzTvYFAPAE6FvDzvJ01gPAJOom8Oxxx/Lyccfy6STD55KGgB4Itz+bZYd93yeqg/fDgAJpryICz5+OAB7gzv53k92sOgt53IMAFDrmNe8nEVX/5Hf7gSABBzOV3/5IqYAAJPgcL5609955Ka/U+tHpwJzX86VN/2dR276O4kr3zIVgFqwg1UbYNHsqQD8L5oyYzYACTbcxLU7AeA/jZ072Awsmj0VgCcCU1k8AwD2xu3fZtnrL2InU3n1L//OIzf9nVo/OhUAzvzy33nkpr+zt0du+j6vnrKD377++Sw77vk8U8uO+za3ALCD337qj6yeO5VFAABM5dW//DuP3PR3Jj1y0/f5wFxg7su58qa/88hNf2fSIze9l2MAgH9l0Vu+zyM3/Z1Hrvk1P3pBC5v+/FU+fPUIAJMG+vYAI/zsTc9n2XHPp9bZP98BbGLTToAdbNwMU1Ysow0AqJX2AOCJpI95DZ89sonVP38/Bz/nnXz4z3eyqQQAj4d4B79931e5vP3l/PIjh1MPADxZbR1NQJVKDAD70lBfB8DeYAe/ff3zufSEv/PIl48FIAE7+O3rn8+y457PU/Hh2wGA27/NsuOez4dvB4Cn4pYvPp9lx32bWwCASYve8n0euenvTHrkTy9nEQAwCQ7nq18+Fq7+Kh++HQD2F458L498/HAA2HkR5x33Tr6xYSof+NPf+eqRADv47eu/yuVM5QN/+jtfPRIA9gY72LQJmDuN2QDAE1k0eyoAe4M7+fBx7+S3O2HKS7/PIzf9nVqPfPlYADj1wzxy09/ZlwteOhWAf4fff1T5zD+UNX0AMDAIOwdh54AyOAyJ8RAAJo0/orzztcpzvwnv/IKyOQaABOvhA9+Ep+N36wEgMWUu1DfAi48CgH25+zr4x3WwpgAAFOC66+Af18GaAgDUAmWsAADshFe/Xnnu65XEc18P1wEA3AXPfb0y6bmfhDUAwJMxeB1cFwMenHkIACQ4BM7wAOD8GwEg0ZAHAAowDgA8noEBAGAGTAEAJjEdLv2H8MA/hEkPfE+YAgA8GRwDD/xD+FfeNx0A9qX1EOHT7xT29um3CScFcMWdMOW5wqffKezL0c0A8FQZgCcDdvDb1z+fZcc9n6dq2UdvBmBv3P5tlr3sj6xmKh/40/d59RQA2Pnnd7LsZX9k9dyXc+VN7+UYACABh/PVP72cRRv+yOnHfZtbgGM+/nce+eWLmAIA/LeBO/nwcc9n2XHP521XA9zM2457PsuOez6J03+yA4DHw5QX8c5Tgav/yG93AgDs4Levfz7LvngnAAnYwW9f/3w+fDsAwA6uvXYHnHoExwAA+8KR7+WRm/7OE7nyLVOBY/nRTX/nkZv+zuO54KVTAdj553fytqun8oG3HAsATOXVv/w7j9z0dx758rEsesv3eeSmv7O3H50KzH05V970dx656e888ssXMQUA+FcgoO3IN/HL9y2gctcP+cilIwA8FRByy833Qd3BHDoXAJ5I/THHcQxwy/1rAHg8cCff+8kOFr3lXJ4LAMDhfPWmD3MmN/P9P+8A4Jliw2X89hHgkd9wwnHPZ9lxz2fSsndcwThw7d8vZwAAWLRoAfAIdz8MAE/krnseAe8gjlkMAM8WmMoH/vR3Hrnp7/wrj3z5WACerFu++FUun/tyvv3SqQDsjSkv4p2n7uAbn7qInQDAE4E7+fBx7+S3OwEAdrBpEzB7KlMAgMSUl36fR256L8cAALVW/+SdLDvu+dRadtw7+cYG4Oqvsuy457O303+yA4D96ZYvPp9lH70Z5r6cK//0chaxg2+87Pmc9+cdAPwn7bz5JlYzleccOxWAp+uWG26GDTdx7U4AqMXt3+ZtV8Oit3yfrx4JAPsCU3n1L//OIzf9ncfzyE0f5kxg0Vu+zyM3/Z3H88hN7+UY4JYvvpNvbDiWH/3y5cwCAP4TSDVxzLu/wmcPCLnl61/hb/0AMAlm8+pPvZdvf/a97O3bn30Nx7QAQCKdTQHwdOBN5QVf/jX3/v69vOkAuOXnX+Xs57yWT99eAGBfuOtCvrEWWPtHzj7x+Sw77vkklh33Tr6xAdjwR04/7vks++KdAOytobEF2MGmnQBQix3bWU2e2TOaANgbTOXVv/w7Xz0SACbBVF79y7/zyE1/p9YjN32fD8wFTv0wj9z0d/b21SMBYH/iyHP5wFy4/JcXsRMA2J92/vmdLHvZH1nNsfzopu/z6ikAO/jt69/JNzbAmV/+Pq+eAgD7ws47uWwDLDr5cKYAAE8Ht9/B5ezgspt3AFAL7uTDH70Z5r6cKz9+OADPtlu++HyWHfd83nY1ANQiVlavhiv+BC/9iVIFABKb/w4nv1ZJfPkeAEisuUg59pNw6zAAMAJ3bwOAZxNt8MY3C0cbAJiUmQXnnATL58I5J0FiYR4AyMNJJ8E5J8HCPADsbecgABDD4CDsHIRJVQCAKuwchEk7hwHgybr2ZgAghne+UDngHCVxwAvhihgAdt6grAEAFi4EAAbhug0AsC8UlFvXAcChCwWA/0a//6jygT8od++Gu3+uPPf1ynM/o+zcrfzwGiCGH35A+cVmAEgQw+Y7lY99QHnnxQDwVBmAJwOm8upf/p1Hbvo7T9UjXz4WgFq3fPH5LPvozcCx/Oim7/PqKQDAzot47092sOgt3+eRX76IKQBALaa8iAtu+jBncjNv++KdAPw3g8P56k1/55Gb/s6Vb5kKHMuPbvo7j9z0dxI/OhWYO43ZAMC+HPOal7OIHazaCgDcfiHf2DCVD7zmcAASMJVXv/5YLv/oO/ntTmDnnVy2ARbNngrA3m754vNZ9sU7Aah1yxefz7Ljvs0tAMBTxe3f5vSf7ODML3+fV88AgFo7AX7yTj58OwA829qe+w4+sADu+vFPuXYCAJ6s8dt/wBdvhEWvOJvDPAB4Nuz88x+5nGN550unAjAJDuerN/2dC146FYBnavUN17KTqbz04+/l2599L3v72Bmd8MgV/HkDALSddCYnewX+/IM/sikGgH2h/wp+fmmB+ueezDEeAPy34/Zv87arp/KBz72IKQDAvhzz8Q9z5oY/cvoX7wTgibBzKotP3cE3XvZOfrsT2Hknl22AM084HIAnws4dbAbO/PLfeeSmv1PrkZu+zwfmAqd+mEdu+jt7u/ItUwHYH7j92yw77vm87Wrg1A/zyC9fxJQpL+KCmz7MmcDqn7yTZV+8E4D/BNjBtdfugLnHcfIUAHg8mzbtAGYzewoA1II7ufRq4NSX8+opADCJnRdx3kdvhrkv59svnQoA7OC3r38nv90JAI+HnRdx3nHP57w/7wDgqWLnRXz/6ql84E/v5RgA4D8JmnjBB1/DItbyjR/fyTgAkK7PA0Okpx7Lyccfy95OPv4gZmcB8jTWwaY1a6gAALXGJiYAeDLS04/lnV/4Prf//XO8etYIf/vEz7glBoC9Me9Mvv3Z97K3b3/2NZzZBXQdzsc++16+/aKFAOxtyoplTGEHq9eHANRa/fDD4C3k0LkA8FSx8yLOO+75fPh2APhfAFN59euPZdHsqQCwcwebgVkzpgLwn8Lt32bZcc/n9J/sgFM/zCM3vZdjANjBb1//Tr6xAc788t/56pEA8Hh23nwTq5nKc46dCsDjYet2VgOzZkwFYG+33HAzcCzvfOlUACbBDn77+q9yOVP5wOdexBQAYOef38l5f94BwNOxadMO4GbedtzzWXbc87n0hL/zyE1/50enAkAtNsPDAMDChUIKAHgiVAEg1QFv+Ihw16+FF88CgL2d9Dbh2l8LT+TatwHA3ugWXnkUANRqXSEs7IOHN0P6GOHT7xROagYAFsCX3il8+p3Cl94P33g/fOO5AsDeSMGUVqiVAgBIwZRWmDSlGQCeDHYo/1gLAPXNMKUVak1pBgAG4R8PAkDqGHhxHgB+8UNlcwwAe7v1J3BdDHhw3kkA8N+GHcrlq+G6i+Bz10F1DHYOws4hYKrwsw9CK0AMP/ywcsUYAIBy/vfhig1w66XKGgDgqTAA/2nsvIjvXw2L3vJ9HrnpvRwDACSY8iIuuOnvXPDSqQA8Hjicr970dx75+OEA7I0Nf+T0457PsuOezxNZ9tGbAfhP2bRpB8ydxmwA4MliylRmAZu37gDu5MMfvZlFb/kwr54CAJM48r1c+Rb4xm/uZOfNN7GaY3nnS6cCUAt2sGkTANRi50V8/2pY9JZzOQYAmAQ387bjns+y457P3pYd921uAWAHv/3lzSx6y/f56pEAsLcpR76Xb79lKpd/9NvcAgA8m2Aqr37/2UyZuJMv/vg+KgDAE4GQnTd+m1d84mYGFrycr5w3FYB/ZfyKa7kcOObAhQDsCzsv4r0/2cGZX34vxwAA/w7Ej/D3f4zAAWfyplOP5eTjj2VvL33RMUxhD5fdvAkAssfygbfMhg0X8frPXcvOKgDUquy8lg+/9Wfc1XgsX33TMgD+27HzIs776M0sesuHefWUHfz29c9n2XHPZ9lxX+VyYPVP3smy455P4sO3H85X//RyFl39Vc778w4AHg9TpvLqj/+dH526g2+87Pkse9kfWc2xPPdIAHgibN3OaqayeAYA/Lfj9m+z7Ljns+yjNwNT+cCf/s4jHz8cgAQczldv+j4fmAtc/VWWvf4idgIA/07cfiHf2ACLTj6cKQDA08Htd3A5cOYJhwMwCXbw20/9kdUcy49++SKmAADs3MEqdvCNl32bWwCAfbnlN39kNcfyzpdOBaDW6p+8k2XHPZ99Oe/POwBgyou44Kbv8+opALA/MOVsPvvSTsav+wHfuCsEoO2wI1jBCH8+/07GAYB9gWUccyRwyz/57TYAmMTotfzszyMAPBGqIQCTaFzGC06YCvEe+kcBYG+0L+Dk449lbycffxCL64C6ORx7/LGcvKAJgL2x4FieMwWu/eUfWR0DQIKJO/nNP0aof+7ZnJwFgKeKrdtZzVQWzwCASVz9VZYd93xqLfvinQD8N+DI93LBxw9nCgCwP9yydROLmMoH/vR3Hvn44QDAnXz4uHfyjQ0AsHnrDgAeD9zJ936yA+Yex8lTAODpgDu59Grg1CM4BgCYtPPPX+UbG+DML3+fV08BANjBpk2w+ifv5MO3A8De4GbedtzzWXbc80m87WoASMCdXHo1cOqHeeSmv5P46pEAsC+Da2EnALBiEQBMWvgy4YF/CIkvHQkAifpZ8I0fCHf9TDinT/nMBcrmMgDsLdUArc3wRFobAODJwoPqBBDD+Z9RXv195bodADBlBqQAgFkHCicdI5y0AAAS7IDNAACHwaW/FCZd+ks4CQDgMLj0l8KkSz8PCwGAf2XNjbAGwIMv/UK49JdCrUt/AS/OA8DltysAeMLb3wmtAJvhBe9Q/rEWqjEQw/hm5YefVN55CwAsfIVwUgYA/tvsvB3WAABnHAUAteoPF37+MiAF7/uqsPxG5WMXKJtD4ZwzAIA++MeDAPBUGID/NKa8iAtu+jsXzLiQZcc9nw/fDgA7//xOln3xTgAm7fzzO1n2xTsBmHTLF5/Ph28HgMfD3Jdz5U1/55Gb/s4TeeTLxwLweOBOPnzc81n2+ovYCQA8XXAnl14NzJ7KFADgyWLnDjYDs2ZMZeef/8jlc1/Ot186FYC9TXnp93nkNTt47092sOgt53IMALAvi2ZPBSABO/jtp/7IamD1tXeyEwCYBMfyo5v+ziM3/Z29PXLTezkGgKm8+pd/54KXTgXg8Ux56Yf5wNybedsX7wTg2caCl/Px5+YZuPTbfPMRAJjExEZuvvFmrr3xZi7/88/49Oc+wtnPOY/TP30zY4e9hn/+4EXM9gCgFhMbufnGm7n2xpu5/M8/48PveS1HfuU+0stewwdObQLg8XDqh/nqkQDw71K55Z/8eQJOft7JtAEAe2Pucbx0Luz86xXcFQPAlPM+xx9ePZvxG3/I6c95C2/43M/47dU3c/mff8aH3/8WjnrZD7k8XsZnv/tejqkDgP9msJ3vfeqPrD71w1zw0qnAVF79y7/zyE1/55GbPsyZwKK3fJ9Hbvo7ia8eCUx5ERd8+VhW/+SdfPh2AHgix7zm5SwCAOBmLr0dAJ7ILTfcDMxm9hQAeLbs/PM7WXbc8/nw7QDwdHH7hXxjAwAkbrnhZmAqH/jT33nkpu/z6ikAUAum8upf/p0fnQpnnnw4AP9OsIPf/vJm4Fje+dKpADwe2MGmTcDcacwGACbBDn77y5uBY3nukQCQgB389vXv5BsbpvKBP72XYwCABFMO56u//D4fmHszb3v9RewEAGpx+7d529UAN3Pp7QBQa9Fbvs8jN/2dfbngpVMB+G+x6BVv5AUtBf72lV/zUAy0n83n3jKb8eu+ygmv+Sq/vfpmrr3xZq69+iK+8Yl38oYLdgCQOOY1r2GRt4Pvv+YtfPjP13LtjTdz+Z+/ytkvu4LU8VMBeCI7//oRjnzTV/nt1Tdz7Y03c+0/f8h7f7sDjjmZU1oA4Jmq3PVtTjjuPF7xtx0AwGze9O5jadv5T175+q/y26tv5tqr/8jbXvNVLk8dy1fftAyApwp28Ntf3gzs4LKbdwAwiVM/zCM3/Z1aj3z8cAD+l7DzIs477vks++KdADxbbvnit+Gl3+eCm77Pq6cAwM4/v5Nlx32Vy5nKB/70d658y1RW/+SdnPfnHQDsy84//5HLgTNf/yKmAACPZ+fWTcBUFs8AgFo7//xHLgfOPOFwACbt/PM7Of0nO1j0lu/z1SMBIAFTOebj3+fKt0zl8o++k9/uBIBacCw/uunvPHLT30n86FQASMDhfPWmv/PIxw8H4F95cBUAJFbMA4BJRMrmO5UPvEn5xzAAJKYcIZw0FQA2r4cr/gQv+KwyCAD8u+HBK78hvG8uADx8HawBAA5ZIAA8HrbCGgBgVrcA8GRgoQIAPBFQ/nEFANSfBEd7AFALTzjnVAAYvw6uKwNA/eHCz98IrR6wGz77YeWwFyoHvFA59r3wi0cAYPnLhN8+HwD+HbgLnvt65V/5+U4A2Ns/rgUAOuCkWQCwt1nnCXf9TnjlLFizFq74E7zg5cp1zTAFALj8dgXgqTAA+8stN9wMHMtzjwSATZt2wNV/5Lc7ASCxadMOuPqP/HYnAMAONm2Cyz/6bW4BAP6d2LmDzcCikw9nCgDwdHH7HVzOVD7wmsMBeCpu+c0fWc2xPPdImPLS7/PIL1/EFACAnTvYDABMuuU3f2Q1x/LOl04FAKYyezYAJNh5J5dtgFkzpgKQ2Pnnr/KNDXDmW17Oog1/5PTjns+yL94JwLMNpvLq1x/LImAnAPBsgoBj3voaTvYK/PnLv2F1DAAJeu/kS5/+Nu/99Lf58E+u4LJ791B/wIv47C9/zQ1fPpvZKQDYG7138qVPf5v3fvrbfPgnV3DdphbOfN/nuOG7ZzPbA4B9YcqLuODjhwPwr8DNvO2457PsuOdT6/Sf7ADg8UDILTfcBxzEKUcGAOwLTOU5Zy2AiWv5210AAHlWvO6b3Pan9/Kmw/JsvOsKvvHFb/Phn1zLLTvynPSWD3Pl+Z/jBdMB4L8dTONdv/w7j3z8cACeLI58L4/c9He+eiQA7As7L+K8457Pspf9kdVzX86VN/2dK98ylcs/+nyWHfd8Euf9eQcAteBOLr0aOPUIjgEAni2bNu0AjuW5RwLA08Ht32bZR2+GuVNZtOGPvPfPOzjm43/nkZu+z6unAMATOebjf+erL53KFADg32Xnn7/KNzbAmV9+L8cAAI8HdrBqAwDsjZ13ctkG4NQjOAYA2Pnnd7LsuHfyjQ1w5pe/z6unAEDili8+n2XHPZ9lx72Tb2wANvyR0794JwCT4E4+/NGbYe7L+cCpcPlHn8+y497Jb3cCwP8asgfxgXccBENX8OFfbQJg9ku/wpWfPYOV8X1844vf5r2f/jYf+cFlPJg9jjeeMBWABFPO5oLzP8yrD4Bbfv5D3vvpH/CFm+ElX/8c75oHAE+kbemBLK4+wve/+G3e++lv85FfrmH2Sz/BDZ89mXoA4N8hfdh7ufjHL+eY+D6+8cVv896v/JOdC1/OH37zXo6pA4Cnitsv5Bsb4MxTj2X1T97Jh28HgP81bN3OaqayeAYA1GLrdlYDZ55wOADPFNzEe497Pm+7ehObdgIAOy/ivOOez+k/2QFzX86VN32fV0+BKS/9Ple+ZSqrf/JOzvvzDgBqsfMi3vuTHXDqh/nqkQDwRDZt2gHA3mAH1167AziW5x4JAOy8iPOOez6n/2QHnPphLnjpVAAS3P5tlh33fBKn/2QHsINvvOzb3AIAJKa89Ps8ctN7OQYASBzz8b/zyC9fxBQA4MkC5Z4HAYDpsDwD7IbNAMCaC+AFX4Hr+mC8DACJSgQAxMrdqwBgykJoBQBqXfcj5bmvV57Ic38EAE8FIRxyMszKAMCkf3xFOeAlyqs/p3zrAuW6W5Rb18JgAQDufggAErM7AeDxjG9QrrtFSfz+97AZAHgiPAiXFwDgxWcIAPuy8FiYAhDDFXcCQGLWc4TLfwYfOQlmNQBAItUAy4+C7/9Y+O15kAIA/h2ows5B+FfGYwCoxWblij4AWHiysBAASLATbt0NAIlUBqo7lCseBAAycMjpwisXAMD4zXBrFQCeLAPwr8CdfPi457PsuOfzdCz76M0A1GLnRXz/alj0lnM5BgA45uMf5kx28I3f3AlA4pjXvJxF7OCym3cAAFN59S8/zJnczPf/vAOAZ+KWG24GZjN7CgDsja3bWc1UnnPsVACeLtjBb395M5z6cl49BQAScCeXXg2LTj6cKQBAArbzvdc/n2XHPZ/E266eygf+9F6OAQBgB799/fNZdtzzWfayP7KaY3nnS6cCsPPP7+RtV8OZX34vxwAAiWNOOBY2/JHTj3s+y172R1bPfTnvOhIAbvni8zn9Jzs488t/56svfREX3PR3HvnTy1l09VdZdtzzOf0nO4Cbedtxz2fZcc/n8Sz74p0APBkc+V4u+PjhTAEAYAebNgGzpzIFAHgiMJVX//LvPPLLFzEFAKhF3cl8+/q/88ifXsMiD2Aqr/7l33nkpr9T696Lf80fvvByXjC3CYC9wVRe/cu/88hNf6fWvRd/k6+evYx6DwCeDXAsP7rp7zxy09+pdeVbpgLweCDg5M/+nUdu+gRnZgHg8bSd/RUeuenvfPVIAJiUnnIs7/zCN7nhsr/zyE1/55GbLuD287/JV196OFNSAFALpvLqX/6dR375IqYAAE8H7OAbL3s+y457Pv/Kso/eDMB/Grd/m2XHPZ9lL/sjs778dx656e888ssXMQWY8tLv88hNfyfxyJ9eDj95J8uOez6JZce9k9/uhJ1//iOXM5UPvOZwAJ6qTZt2wNxpzAYAJsEONm0CTj2CYwCAp4qdF3HeR2+GuS/nyl9+nwu+fCyrf/JOlh33bW4BAP4bcPu3Of0nO+DUD/PVIwHgiez88x+5HDjz9S9iCgAwaefNN7EaOPOEwwFITHnpyzkTALj8o89n2XHPZ9KlJ/ydR276O5Me+fKxcPVX+fDtAMDOizjvuK9y+dyXc+UvX8SrP/53Hrnp7/zo1B1842XPZ9lxX+VyYPVP3smy457P41l23Dv57U4AqAU7+O3rn8+y455PrWXHvZNvbAA2/JHTj3s+y457PrWWHfdOfrsTAPaFKS/igpv+zgUvnQrA3upP+gSP3PR3rnzjbAAgYMrxb+IXv7+AR276O4l7L/41f/j4izisHQAm0X44H/jmT7j9+r/zyE0XcPuPP8xLF+eZ8tLv88hN3+fVUwAgMeWl3+eRm97LMQBAetnL+cVv/sC9N/2dR276O/de/H2+/bqDaPMA4KmAqbz6l3/nkV++iCkAQCJ92Hu54aYL+MMLpgIwqX7xi/j27y/gkZv+ziPXX8A/v/AiVjQCwFPF7d9m2UdvhlM/zFc//l4e+fKxXP7R57Ps9ReyCgB4Mi7/6PNZdtzzqbXsuK9yOcDVX2XZcc9nb2+7GgD2tvon72TZcc9n0rKX/ZHVAMDjgR389pc3A7OZPQUAau3cugk4luceCQBPF+xg0yZgww5Wz305V970fV699dssO+75LHvZH1nNVD7wp7/zyC9fxBQAIDHlpd/nyrdMZfVP3sl5f94BQALu5MMv+yOrOZYfffxwAJ4IOy/i+1cDp76cV08BgEnsvJPLNgCnHsExAABTXsQ7TwUArv4qy457PpOW3XAEj9z0dyY9ctOHOZObedsX7wTg2cYOeKgAAPWLYQpw90WwBgCYRAZogxV5ANh8gXLs65VjXwq/HwSAo1cIAHurjsHOQXgiO8cA4Ml4+GLlzW9VDniJ8tKfwOYyANQ3AECCMjx8P/z+T/CBb8I7P6x88xGgoFxwHQAkjj4QAB5P/QB84JuQ+NY9AJBoyAPAvrBSuPkfwgP/EN4+CwD2hVnCpf8QHviH8I3jAWBSqlV48TuFv/1OeOAfQuKu3wm//aBwdDcA7G3KecID/xAe+J4wBQDYH2iCVx4F9R6ccxIANOQBgBi+8lblgHOUSYe9A64rAEDrMXCoByc/H973EeGuPwpHpwDgyTIA/woczldv+juP3PR3no5HvnwsAJNgB7/91B9ZzbG886VTAUjA4Tz3VODqO7gFAGDK4TxnLqz+yYXcAgDA4bzrLVNZ/ZOv8tudAPBk7fzzO1l23POZ9LarYdFbzuUYAGBvt9xwM8w9jpOnAMDTtfPPX+UbG6bygdcczs4/v5Nlxz2fxLLjvsrlc1/Ot186FYBJMI13/fLvPHLT30k8ctP3efUUAEjAVF79y7/zyE1/J/HITe/lGADu5Hs/2cGit3yfrx4JAJM48r08ctPfmfTIL1/EFOCWLz6ft119LD+66e989UgASDDlRVxw09955Ka/82Q98vHDAXiyuP3bLDvu+SSWHfdOvrFhKh94zeEAuMwlMJUP/OnvPHLT3/lXHvnysQD8J8BUXv3Lv/PIxw+HI9/LIzf9ncRXjwSAfWHKi7jgpr/zyE1/J/HITd/n1VN2cO21O1j0lg/z6ikA8K9w+7dZdtzzmfS2q+HM17+IKQDAJHbeyWUb4MwTDgfg6WDKi3jnqcfyo1++iCkAR76XR276Oz869WbedtzzWXbc83mylh33bW4BAJ5N3P5tln30Zjj1wzzy8cMBqHXLF5/PsuOeT63Tf7KDRW/5Pl89EgBqbdq0AziW5x4JAAk4nK/e9Hceuenv7O2rRwLAJI58Lz86FS6/4U7YeRHnveyP8Jbv88gvX8QUACBxzMf/ziM3/Z0n65Gbvs+rpwBALZjKq3/5dx656e88FY/c9H1ePQUAXPafcMsXn8+y457Pso/eDKe+nFdPuZMPf/RmOPXDPPLxwwHgyPfyyE1/58qTN3H5BuDqr7LsuOezt/P+vAMAjnwvj9z0d56OH50KAHtb9Jbv88hNf2fSI396OYsAgEm3fPH5LDvu+Uxadtw7+caGqXzgT+/lGABgEuzg2mt3wKlHcAwA8Ewtesv3eeSXL2IKcMvWTSwCzvzy33nkpu/z6ikAsLcpL/0+j3z5WFb/5Kv8difAnXz4uK9yOcfyo5veyzEAwCRu/zbLjns+tZa97I+snvtyrvz44QDUYut2VgNnnnA4AJOO+fjfeeSmv7O3Rz5+OACT4HC++uVj4eo7uAUAeDaNb4CdHgAcOk8AOPR4aAUAWhfAp78q3PUX4ZWzhFe+GloBgPFBGK8CQOvh8MaVALC3VANMaYUnMqUBAJ6M5UcBfQCQqJ8OH/m8cPPvhLt+CZ9+ESxvAIBJTIe3Hw4EwtGHAAAL4JhmAHg8rISTAIBJNMMrTwKA/684Bh74h/CvvG86ANSiWXjxB4Wb/yy8uBUAlr8SzmgAgMeTmgpfeqUA0Hq48MrDIeUBwFNhAP7dOPK9PHLT3/nqkQDAzju5bAMsesu5HAMATDrmhGNhLrATAGAqJ588FeYCOwEgMeWlL+dMAKAWTOXVv/w7j/zyRUwBAGpNeen3eeSmv1PrgpdOBWBvsINNm2DRyYczBQB4Oth5Ee/9yQ7O/PL3efUUmPLS7/PITX9n0iO/fBFTAIBnCg7nqzf9nQteOhWAJ+OYj/+dR256L8cAAM8mjnwvj9z0d756JADsjSPfyyM3/Z1Jj9z0fV49BQD+vzrm43/nkV++iCkAwKQpL/0+j9z0Xo4BAGpNeen3eeSm7/PqKQDw/wVHvpdHbvo+r54CAP8KR76XR276O189EgBqwVRe/cu/88gvX8QUAGBvcDhfvenvXPDSqQD8J8BUXv3Lv3PBS6cCsC8wlVf/8u888vHDAeDI9/LITX+n1lePBIBabN3Oao7luUcCwNN1zMffyzEAwKRjPv53Hrnp7zwVj9z0Xo4BAJ4IR76XR276O189EgCeCDsv4ryP3syit3yfRz5+OAB7O+bjf+eRm/7O3i546VQA9nbMx//OIze9l2MAgKfjmI//nUc+fjhMeREX3PR3LnjpVACeTXA4X73p71zw0qkAuOy/3TEf/zuP3PR3Eo98/HDgcL5609955OOHA1Bryku/zyM3/Z3Hc8FLpwLwTBzz8b/zyE3v5RgAAA7nqzf9nQteOhWASUx5ERfc9He+eiQAJI75+N955Ka/U+uRm77Pq6cAQC3YwaoNcOYJhwPwTMBUXv3Lv3PBS6cCkDjmpd/ngpv+zlePBIAnwpHv5ZGbvs+rp+zgt6//KpfPfTlX3vRejgEAanHke3nkpr+zt0d++SKmAAC1OPK9PHLT3/nqkQDwdHDke3nkpvdyDADwTBzz8b/zyC9fxBQAoP544eYLhGu/Cm8/HABYJnzrjfD9HwvXflU4ZwGkAIAppwrX/kW49tfCpGt/J1z7EaEVAEiQgimtkHjxe4RLfyk8kUvfA1NaIdGWAoBaqQaY0gpTWoBW4VNvhnNeBn/+pXDz94QXLwOAVKtwziuE3/5OeOAvwqVfhW+8DT79RmEKQArO+Yhw8+fh068QWgGASSB89NfCtb8Wrn2LQEZ4+8fhG++HxJ9/LNz1C+HoDAD8f8I8+Mb7IfGN5woA/8rRr4FvvB8SR7cBwCRSAJAgL3zp18LNP4bvvx++8X6Y9I3PCNf+TrjrB8KheQB4JgzAfxpTXsQFN/2dC146FYBaHPleHvnlezlmCgAkprz0+zzyy/dyzBQASMDhfPWm7/PqKQDw7wBTefUv/84FL50KwNPFlBdxwU1/56tHAsC/cszH/84jv3wRUwAAl7nMZS57KjjyvTxy03s5BgD4/4gpL+KCm/7OBS+dCoDLXOay/2ZwOF+96e989UgA+G8AU3n1L//OI798EVMAABfgQesCYVYeABLLnyMc3Q0AeyMDrc0wqbUBAGpxoHDpL4XE+w4EgCfCgcKlvxQS7zsQAGod+kbh0l8Kl35GmAJMOVX49HnCwlYA2BcyMGWBcNKpwjnLAGBS/TLhnGUAsLf6ZmhthtY8AMw6RDjpGCGxsBtSHgD8f0OrcNIxQuKkBQDwr8w6UDjpGCExKwMAjwcP6ruFo48RTjpGmHTSSmhtAIBngwFwmctc5jKXucxlLnOZy1zmMpe57P8jA+Ayl7nMZS5zmctc5jKXucxlLnPZ/0cGwGUuc5nLXOYyl7nMZS5zmctc5rL/jwyAy1zmMpe5zGUuc5nLXOYyl7nMZf8fGQCXucxlLnOZy1zmMpe5zGUuc5nL/j8yAC5zmctc5jKXucxlLnOZy1zmMpf9f2QAXOYyl7nMZS5zmctc5jKXucxlLvv/yAC4zGUuc5nLXOYyl7nMZS5zmctc9v+RAXCZy1zmMpe5zGUuc5nLXOYyl7ns/yMD4DKXucxlLnOZy1zmMpe5zGUuc9n/RwbAZS5zmctc5jKXucxlLnOZy1zmsv+PDIDLXOYyl7nMZS5zmctc5jKXucxl/x8ZAJe5zGUuc5nLXOYyl7nMZS5zmcv+PzIAzxRVqAIAzwZ2K+98vfLc1yvfuh8AniqGlW99Xfn91crdOwDgqWJY+cX3lc9+X/nHZgCoxbDyi+8rn/2+8o/NAOCy/y9gB799/fNZdtzzWfbFOwFwmctc5jKXucxlLnOZy1z2v8AA/CuU4e5blOuuVr71feWz31de/Xrlua9XDjtHOeA85fJhAHg2EMPAIOwchIEqADxVg7fD72+Db/0IPnedAvBUUYDrroN/XAd37wGAWhTguuvgH9fB3XsA4PHc/XPlua9X9uVb98P5n1Ge+3rlXzl/NwD8p93yxeez7PUXsRMA+Hfa+ed3suy4b3MLAJDg9m+z7It3AvDvtvPPX+UbGwCATTvYCQD8K3AnHz7u+Zz35x0APJ6df34ny477NrcAAE/WLV98PsuO+za3AABPF+zgt69/PsuO+za3AACJnX9+J8uOez4fvh0AXOYyl7nMZS5zmctc5rL/JQbgX2FA+fY34QM/gt9fB/+4Dh4ehJ2DUAUAHtoAv3+XcsA5yuM54JsKwLPt7p8rz329Uuv5vwWARP918NzXK0/Gc3+uADzbqmOwcxD2ZaAK1SHYOQj/ypRuAHDNLTfcDFd/lWXHfZtbANjBb1//fJYd93yejGXHfZtbAIAnwu3f5vSf7IBTP8wjf3o5izb8kdO/eCcA+xM7L+L7VwOnHsExAMDTxc47uWwDLHrLuRwDALjMZS5zmctc5jKXucxl/+sMwL/CVJgFANQ3AECifha84XXwjffDq5YBwJM1eI/y2e8r+/LZP8BOAODhy5TPfl/Zl1/cAwDVMdg5CLXGqwCQqI7BzkF4MnaOAcDjufUPyme/ryQ++wfYCQA8fJny2e8rtW4dBoBa5OGkk+Cck2AKAJA4+jXwjffD0RkAmHIUfOP9kPjIUQDw7wY7+O3rn8+yL94JwDPB7d9m2XHPZ2/Ljvs2twAA3P5tlh33Tn67EwCeyDEf/zuP/OnlLOJm3nbc8/nw7QDAqR/mkZv+zhO58i1TAfhXuP3bLPvozTD35Vz58cNhyou44MvHwtVf5bw/7wBgf7nlN39kNVP5wGsOB+CZuOU3f2Q1U3nOsVMBcJnLXOYyl7nMZS5zmcv+PzAA/woIX/qH8MA/hJu/BAsBgClHCG8/SzjpGGFWBgAS5OGkk+CckyCxMA8Atcqb4R/Xwb78404YBwB2PgL/uA725brNANC2BM45CSYd2goAiVkr4ZyT4Mk6Z4kAMD4M4yEAJB7+g/Kx65TNd8M/roPEP+6EcQBg5yPwj+ug1uYCANSiFd77TuHT74TlAEBi1oHCSd2wuQwAhxwvnHSMkDh6BgD8r4GpfOBPf+eRm/5O4sq3TAXg6WLKi7jgpg9z5tyX864jAeDZwu3fZtlHb4a5L+fKX76IKQAAR76XK98yldU/eScfvh0Angq4kw8f93yWHfd8Jp3+kx3AzbztuOez7LjnM+m8P+8AYG/svIjvXw2wg2+87PksO+757G3Zcd/mFgDgicCdXHo1cOrLefUUAHgybvni8/nw7QDgMpe5zGUuc5nLXOYyl/03MgDPNlrhve8UPv1OIXFmKwD8uyw8Xfj0O4XEp18GjAAADfCZTwqffqfwZH36dGCH8qbXKi/9PQAkdu6AK34F13owpRUSUxoAIJFqgCmtMKUBAJ4qhpWvfBN2AuRhdqxcd4uSOP8OAMADgP0FtvO91z+fZcc9n70t++KdAPy7weF89ZcvYgoAwNVfZdlxz+eJnP6THQA8np1/fifLPnoznPphHvnli5gCAEya8tLvc+VbpnL5R5/PeX/eAUCtnX9+J8uOez7LjvsqlwOrf/JOlh33fJYd921u4XC+etPfeeSmvzPpyrdMBY7lRzf9nUdu+juTLnjpVAD2dstv/shqjuVHN/2dR276O7Ueuen7fGAuADwZO//8Ry5nKh94zeEAPBk7//xO3nY1XP7Li9gJALjMZS5zmctc5jKXucxl/20MwL+y8wLlgHOUxAHvgDUAwJo/KQecoyReeoEC8HS87wfCA/8QJj3wQQBIvPjzwgP/ECY98ANYCADsy3W/grtjADj0xbD688pzX688Gc/9jLITYDesAaZ0AEBi4XSgADtnwN9+KVz6S+HStwFA4qS3CZf+Urj0bQDweCjArbco190COwGAxPlfhPN3A8ChLxNeXIAPfBMSv98MAK2nwNEAwL8TV3+VZcc9n1pvuxrYsInFn/s7j9z0dyY9ctOHORNYNHsqAP8OcCcfPu7b3AIA1OLUD/PITX/niVz5lqkA7A3u5MPHPZ/Tf7KDRW/5Po98/HAA9mXKS7/PI18+ltU/eSfLXn8ROwGAxJSXfp9Hbvo7j9z0Yc4EFr3l+zxy09955Kb3cgwA8HTt/PM7edvVcOaX38sxAEAt2MGqDcCpR3AMAPB44E6+95MdwGxmTwGAf2Xnn9/J6T/ZAad+mEd++SKmAAAuc5nLXOYyl7nMZS5z2X8bA/DfZs0GAEhMaQOAJ2P8TuXLtwEA0+EjpwvVIdg5CE/GziEA2LkDAGZNA4DErLPhJA/GN8CaKgA8HQzCV74JH/gmPAwAJF78JeHts2DW6fCN50BqJbzhJDjnJEi84W3w9zcKAM+2W774fJYd93yWHfdOvrEBOPXDPHLT36n1o1OBucdx8hQA+E/a+ec/cjk387bjns95f94BwDO188/vZNlxX2XzWz7MB+bC6p+8k2XHPZ8nsuyjN8OpH+aR12/n9OOez4dvB4B/F3ZexHt/sgNO/TBfPRIA9rbzz3/kcuDMEw4H4Ins/PMfuRwAeDJu+eLzOf0nO2Duy7ny44cD4DKXucxlLnOZy1zmMpf9tzIA/0pmFpxzEiQO7QCARP0sOOckSJw0CwCeKWLlutsAINHTCgD/CgXly9+HQQDgjBcLszyYdSiccxLsyzkrIQUAJGiEDLB5KwAsnA4ACfLCp38m3PUDYXkKAGotmgoA/woetLbClFZIAQCJwYeUnVNhRQjf+r7y2T/BAACQGFgL37oGAJ5tx3z87zxy09955Kbv84G5APDfZMpLv88jN32YM4HVP3kny15/ETsBAK7+KsuOez5P5PSf7ABg0i1ffD6n/2Q2P7rp71zw0sN59S//ziM3/Z0n45GPHw5HvpdHbvowfPT5LPvinQDsCzsv4rzjns+y455PrdN/sgO4mbcd93yWHfd8ai17/UXsBNh5Eee97I+snvtyrvz44QDsDXZw7bU7YO7LedeRAPB42HkR7/3JDgD+FdjBb1//fN52NXDqh3nkly9iCgDgMpe5zGUuc5nLXOYyl/23MgD/SushwqffKXz6jdBaAIDElCOET79TSLzhEAHgmRq8En7RBwCJD7xZ+cduAHg8xPD7T8AVBQBI4AHA0a8QPv1OYW9vWAkPPQJVAGD5i+DmzwitwMAIkIfZzQAwaWCrct0tyqQr7geAxOr7letuUa5bBQCJ1fcrd28DgElMgd/+Urj0l3ASAJAob4Z/3AL/uA4ezz8eUwD+m7BzB5uBWTOmAvDvAofz1Zv+zo9OncoHPvcipgAAnPphHrnp7zyRK98yFYBJx3z87zxy03s5BgB4OuBwvnrT33nk44cDsC9MeREX3PR3Hrnp7zxZj/zyRUwBAOBYfvTLFzEFANjbzj9/lW9sgDNf/yKmAACP55bf/JHVc1/OB04FgCdy+UffyTc2AKd+mEc+fjgALnOZy1zmMpe5zGUuc9l/OwPwZK05H64oAEBi/A7lBZ9UNlcB4Jlim/KOXwHAJIbhs+9QPnYdAOzL3T9SvrUZAJ6M676iPPebsDkGmuF9XxZ++wqh3gOAcz4jPPBHYTkAMOnW38AHvgmTPnY1ACSu+BV84JvwgYsBIHHFr+DbdwLAU/HK98M33g+TXrkAAFw26ZiPf59XTwGYyqt/+Xce+fjhADyRKS/9Po/c9F6OAQD+3Vb/5J0sO+75LPvinQA8HtjBb1//fJZ98U4AajHlRVxw03s5BgDYG9zJ936yA5jK4hkA8Hi4/du87eqpfOBzL2I2ALA3bv82p/9kBwCJM7/8dx75+OEAuMxlLnOZy1zmMpe5zGX/CwzAk8E25bMXA8CknZth8yPwgjcr1w0DwNM1vlp56XthTQwArafDzZ+BWR4QwxXfV17wE2XcAkCtKVMBgBQATPrH95XPfl/Z2y8eAYDEoUth07XKZ7+vJD77B2UQAPh3wMLgMCSqAMDeDj1GOOkYYdKhHQDw34it21nNVBbPAID/pFu++HyWvf4idgIAk3b++Z0sO+7b3AIAJLj92yz74p0ATIId/Pb1z2fZcc/nqVj2+ovYCQAkbvni81l23PNZdtxXuRxY9Jbv88hNf+eRjx8OwLMNdvDb13+VywHYwTd+cycAj+eWG27mzC9/n1dPAYC93fLF57PsozcDkDjzy3/nq0cCgMtc5jKXucxlLnOZy1z2v8IA/CvE8ItvwJoYyEM9AFDfAAAMwwe+puwEAJ6qTZcqJ38U1sQAwCz4+RuF+pXCX74By1MAsPlKeNOFAFBryjKY0gzf/ywsBABAufs6+Md1sLc1BQBI3H0L/OM6mPSPu6EMAOztxV8Qrv21kLj2l3BGBgAmvfIzwrW/Fmr97CwAmMQOePVrlZNfC9cBAHv72OuV575emfSxuwDgvwHcyYePez7Ljns+iWUfvZlFb/kwr54CAM/Ezj+/k2XHPZ/Tf7IDgL3BDn77+ufz4dsBIMGGP3L6cc9n2XHPJ7Hs9RexCQCYdMsXn8+yj94MV9/BLQBALU79MI/c9Hf+lUdu+j4fmAsAtY75+N955Ka/88hNH+ZMACDBzos477jns+y457Mvy457J9/YAFz9VZYd93wS5/15BwBP5JYvvpNvbIAzv/x3rnzLVLj6j/x2JwDsyzEf/ztfPRIAasGdfPi45/O2q+HML/+dK98yFQCXucxlLnOZy1zmMpe57H+RAfhX7v6p8sNtAPDil8EUAGDKc4W/vQxogO9/QpgCADxVs88UPnMIALQug799Q5jlAUBqlvDbb8DRDTDrdPjZiwGgFrOEP/9AOLoeACa1tcKUVthbvQcAifpWmNIKk6a0AMC+pBqgtRkS3AlXlAGgPg8Avz9foRlam2FSfQYAnorxQdg5CJPGqwDw3wAO56s3/Z1Hbvo7ky546VTgTj583PM57887AHgydm7dBOzgGy97PsuOez7v5cM8ctPfufItUwHYG7dfyDc2wOU33AlAgrkv58qb/s4jN/2dxCO/fBGzAQC4kw8f93zedvVUPvCnv/PITe/lGADgP4EpL+KCm/7OIzf9nX155Kbv84G5wKkf5pGb/k7igpdOBeDx3PLF5/O2q2HRW77PV4+EKS/9MB+Yu4NvfOoidgIATwY7L+K8477K5ad+mEdu+jtfPRIAHg/cyYePez7n/XkHAC5zmctc5jKXucxlLnPZfxsD8K8ceiAAcCC8fQUATJp1nnDXz4Sj8wCQYBC+/X3ls99XEpcPAsDjwcAZHxG+8Tb4++eFWR4ATGK68P3vCr99i1APANTCg/o8AEwC4X2/FC79pbC3N04BgMSXfilc+kth0qWfEaYAAI+Hbco7fgUANMCX3ggArIZ3/AmqAECto98v3PV5+PRXhbv+ITzwDyHxwAXCRw+EKWcJ1/5auPbHwk/fA3/+tXDtr4Vrfyn89C1wzivg2rcIAP+N2LmDzcDqTTsASMAOvvGy57PsuOeTOP0nOwBIwA6uvXYHzH05V970dx656e9c8NKpADyeW264GZjKB15zOABPBG7mbcd9Fb78dx656fu8egoA7A87//xOln3xTgCeiVu++HzedjUsesv3ueClUwGAqbz6cy9n0YY/cvoX7wTgyWDKi7jgpr/zyMcPB+BfYecONgOrN+0AIHHLF5/PsuOeT+LDtwOAy1zmMpe5zGUuc5nLXLa/GIB/hUPgjAb4xvuFegCgVioDAJMowHXXwT+ug8SaAgA8ETw46VShHgDYG81QDwDsTwwrH/sErIkB4NAXC0cfL7xvOgCsuUB5yU+U8RgAav39D/DZDyuHvUlZU1W+9VblgPOU5/xCIQOph5Qz36q8+Tvwj63Q2gzXfll580/gH3+H1R4A1II7+fBxz2fZ6y9iJwDw73DMx//OI798EVMAgL2xdTurgTNPOByABEzlA3/6O4/c9HcSV75lKgAJmMqrf/l3Hvnli5gCADwRuJNLrwZOfTmvngIATwSO5Uc3/Z2vHgkAcCcfPu75fPh2APhP4tjjOPPqr7LsuG9zCwDwVMCdfPi45/O2q6fygT/9nQteOhWASUx5ERd8+Vi4+qss++KdADzb2Lqd1cCi2VMB2Pnnd/K2q4/lRzf9nSvfMpXLP/pOfrsTAFzmMpe5zGUuc5nLXOay/cEA/Ct4wke/K5yUB4D/JGIYH4bBYUjsfBTWAABPB1Vl0yAAPFU7b1Fe8Ga4YgwAmAWfeg4AvPIDsNADgM1XwrFvUH7/IFQBgOqdyg/XAsCUY4WFKWF2EwCMXwfXlaH+cDjGA4Dz/6wMAs9/EdQDFOCHFwNALXbuYDOw6OTDmQIAPF0wldmzgavv4BYA4Mm65YabgWN57pEAwJHv5ZGbvs+rpwBAYspLv88jN72XYwCAp4Lb7+By4MwTDgdgb+y8iPOOez7LvngnAHtj5w42AwD/aVOmvIiv3vRhzuRmvv/nHQA8WTv//E6WHfdVLp/7cq686fu8egoA7I0j38sjXz4Wrv4qy754JwBP1ZQZswHYl1tuuBmYynOOnQrApk07YO40ZgNTjj2ORexg1VYAcJnLXOYyl7nMZS5zmcv2BwPwZNQ3A8CTwXS49B/CA/8QEu+bDgBPB6Hy2dcqJ79WSTz3JwCQmDUdAP6VnX9XDjhHSRxwHvyjAABMhSkAwL9SvUd59TdhcxUAaIDvf0GYAgAwXfjZB6HVAwCG4VufUX6+AYiVb/0IxgHy8JEXAcCZJwMAMVxxJ5ARzjsJAFgLf9kMqcOFN04HgDXnK9eVAWASW7ezmqk859ipADxTx3z8w5zJzbztuOez7Ljn82S97eqpfOBP7+UYAODZBDv47S9vBo7luUcCwCQ2/JHTj3s+yz4F377p7zzy8cMBgE1s2gkAiZ0338RqjuW5RwJALa7+KsuOez7/yrLj3sk3NgDAUwWH89Wb/s4FL50KQAJ2sGoDAOyNnRdx3nHP5/Sf7ODML/+dR375IqYAAI+HI9/LI396OYuu/irLjnsnv90JAE8WR76XH50Kl3/0+Sw77vnUetvVsOgtH+bVUwBg9uypsGE7m4CdN9/EaqayeAYAuMxlLnOZy1zmMpe5zGX7gwF4tqRaYEorTGkBgEmzDoVzToJzlggATwUZYcV0AKjVugzefjgA/CtT5kI9AFBr+anCLADgX0kdInzmeACgG376Y+HoPABMqj9c+PsX4OhmAGg9Hd4+F8Zvgb+PAcChLxOOzgBA6ig4CQC4+xGlChx6BkzxYNYimBIDwItfBvUAMVxxJwBMuuWGm2HucZw8BQCeKTicr970dx656e88FY/c9H1ePQUAnm3svJPLNgCnHsExAADcyaVXw6K3fJ9Hbvo7j/zyRUwBAKa89OWcyQ6+8bLns+y455M4/Sc7WPSWczkGAKjFqR/mkZv+zr/yyE3f5wNzAaAWt3+bZcc9n2XHfZXLOZZ3vnQqAPvC7d9m2XHPJ7HsuK9yOVP5wGsOB2DSzj+/k2Uv+yO85fs8ctPf+eqRAPBkMOVFXHDT37nyLfCNlz2fZV+8E4An65iP/51Hbvo7+3LBS6cCkJjy0u/zo1Nv5m3HPZ/Tf7KDM7/8fV49BQBc5jKXucxlLnOZy1zmsv3BADwV5OGkk+Cck+CkWQAw6cWfES79pXDpZ4QpAEDi6FcIn36n8OnTASCRmQXnnASJWXkAeDxnvh2+8X5IfOPjcOnvhGs/L0wBACaRh5NOgnNOgkM7ASDBPOEb74daf/uj8NuzAODxkIeTToJzToJDO+Hod8L7XgQ3/0A4NA8Ae6tfJHz/F8JvXwffeo0AUH+8cMuP4ZUnwUdOB4AEGeFLvxPu+odw8zuFFMAs4dILhL99WThnLgCkDhe+8X649gLhG8cDQAJ2sGkTLDr5cKYAAP8fTHnp93nkpvdyDADAlBdxwU1/55GPHw5AAg7nqzf9nQteOhWAWnA4X73p7zxy09+pdcFLpwIwCaby6l/+nUc+fjgA/wpM5dW//DuP/PJFTAEAEhz5Xh656e8kHrnpvRwDAOwLR76XR276O5Meuen7vHoKAEya8tLv88hNf+eCl04F4OmY8tLv88hNf+eRjx8OwKRjPv53HrnpvRwDADwTx3z87zxy099JfPVIAHCZy1zmMpe5zGUuc5nL9hcD8FTQLLzhncKn3ym84RAAeDpaDxE+/U4hcXQzADye1gXCSccIiZMOEaY0AMDeaBbe8E7h0+8UzpkFAAkycOgxwknHCJNm5QHgidAsvOGdwqffKZwzC/CEV75CqPcA4PHgwfKzhOUZAEikuoX3vVOY5QHApFQDpACASXgAUOvQY4TWFABMgqm8+pd/54KXTgXAZS5zmctc5jKXucxlLnOZy1w2yQC4zGUuc5nLXOYyl7nMZS5zmctc9v+RAXCZy1zmMpe5zGUuc5nLXOYyl7ns/yMD4DKXucxlLnOZy1zmMpe5zGUuc9n/RwbAZS5zmctc5jKXucxlLnOZy1zmsv+PDIDLXOYyl7nMZS5zmctc5jKXucxl/x8ZAJe5zGUuc5nLXOYyl7nMZS5zmcv+PzIALnOZy1zmMpe5zGUuc5nLXOYyl/1/ZABc5jKXucxlLnOZy1zmMpe5zGUu+//IALjMZS5zmctc5jKXucxlLnOZy1z2/5EBcJnLXOYyl7nMZS5zmctc5jKXuez/IwPgMpe5zGUuc5nLXOYyl7nMZS5z2f9HBsBlLnOZy1zmMpe5zGUuc5nLXOay/48MgMtc5jKXucxlLnOZy1zmMpe5zGX/HxkAl7nMZS5zmctc5jKXucxlLnOZy/4/MgAuc5nLXOYyl7nMZS5zmctc5jKX/X9kAFzmMpe5zGUuc5nLXOYyl7nMZS77/8gAuMxlLnOZy1zmMpe5zGUuc5nLXPb/kQFwmctc5jKXucxlLnOZy1zmMpe57P8jA+Ayl7nMZS5zmctc5jKXucxlLnPZ/0cGwGUuc5nLXOYyl7nMZS5zmctc5rL/jwyAy1zmMpe5zGUuc5nLXOYyl7nMZf8fGQCXucxlLnOZy1zmMpe5zGUuc5nL/j8yAC5zmctc5jKXucxlLnOZy1zmMpf9f2QAXOYyl7nMZS5zmctc5jKXucxlLvv/yAC4zGUuc5nLXOYyl7nMZS5zmctc9v+RAXCZy1zmMpe5zGUuc5nLXOYyl7ns/yMD4DKXucxlLnOZy1zmMpe5zGUuc9n/RwbAZS5zmctc5jKXucxlLnOZy1zmsv+PDIDLXOYyl7nMZS5zmctc5jKXucxl/x8ZAJe5zGUuc5nLXOYyl7nMZS5zmcv+PzIALnOZy1zmMpe5zGUuc5nLXOYyl/1/ZABc5jKXucxlLnOZy1zmMpe5zGUu+//IALjMZS5zmctc5jKXucxlLnOZy1z2/5EBcJnL9hfYwW9f/3yWHfd8ln3xTgBc9p8Ed/Lh457Psi/eCcDebvni81n2+ovYCQC4zGUum8Tt32bZce/ktzsBwGX/Kdz+bZZ98U4AHg/cyYePez4fvh0Ani7YwW9f/3yWHfdOfrsTAFzmMpe5zGX/CwzAU7Hzz+9k2XHv5Lc7AeC/DdzJh497Puf9eQcALoId/Pb1z+e8P+8A4Mng9m+z7It3AvDvtvPPX+UbGwCATTvYCQD8K3AnHz7u+Zz35x0APJ6df34ny477NrcAAE/WLV98PsuO+za3AABPF+zgt69/PsuO+za3AACJnX9+J8uOez4fvh0Anim4kw8f93zO+/MOAJ6MW774VS5nKh94zeEAPFk7//xOlr3+InYCAP+rbvni8znvzzsA2Bvs4Levfz7LvngnAE/GLV98PsuO+za3AAAu+/9m54xpnMkOvvGyb3MLAPBU3PLF57PsuG9zCwCwN27/NsuOeye/3QkAT2Tnn9/JsuPeyW93AkAtbv82y477NrcAAP/Ldm7dBFd/lQ/fDgD7wu072DwXLv/lRewEAJ6OnX/+Kt/YALCDb/zmTgBc9v8V3MmHj3s+5/15BwC3fPH5LPvinQC4zGUu+19iAJ6KTZt2ALOZPQUAnglu/zbLjns+T8d5f94BwJMBd/Lh457PsuOezxP58O0AAHfy4eOez7Ljns8zsey4b3MLADv47eufz7Ljns8zsez1F7ETAHgi7NwBs6ey+ifv5MO3A8C/cssNN8PVX2XZcd/mFgB28NvXP59lxz2fJ2PZcd/mFgDgiXD7tzn9Jzvg1A/zyJ9ezqINf+T0L94JwP7Ezov4/tXAqUdwDADwdLHzTi7bAIveci7HAAD/Dbj927ztajjzy9/n1VOAnRdx3nHf5hYAYF/gTj583PM5/drjuPKXL2IKAPBsuuWLz2fZcc/n2bDsi3cCwM6LOO+45/Ph2wEgAXdy6dWw+icXcgsA8Eyw8yK+fzUsesu5HAMA/K9h50Wcd9zzOe/POwBIDFzxKQ4+8bV86a4QgKdr55/fybLjns+/suz1F3HLn9/JsuOez76c9+cdACTYeRHnHfd8lh33fJ6OZcd9m1sAgH9lypQX8dU/vZxF3Mz3/7wDgCcL7uTSq4FTj+AYAIDbv82y457Ph28HgGfDzj+/k2UfvZlFbzmC2TsB4PHc8sXns+y45/Ns+PDtsPPP72TZcc/n2fDh2wFgyku/z49Ohcs/+m1uAQD2xpEv4oLXHwsbbuLanQDwVLHzIt77kx1w6oe58i1T4eo/8tudAPB4dv75nSw77vn8K8tefxG3/PmdLDvu+ezLeX/eAUCCnRdx3nHPZ9lxz+fpWHbct7kFAHgiO//8TpYd93yerA/fDgCwg9++/p38dicA1OL2b7PsuOfzeM778w4AarHzIs477vksO+75PB3Ljvs2twAATwfsYPZrvs8HNn2VZce9k9/uBACXucxl/wsMwJMFO9i0CZg7jdkAQC1u/zbLjns+j+e8P+8AoBZM5QN/+juP3PR3av3oVGDuy7nypr/zyE1/Z9IjN32YMwGAp2rRW77PIzf9nb098qeXswgASMDhfPWmv/PITX+n1iN/ejmLgDO//HceuenvJB758rEAnPnlv/PITX+n1iM3vZdjAJjKq3/5dx656e9MuvItU4Fj+dFNf+eRm/5OrUdu+j4fmAuc+mEeuenvTHrkly9iCgCQ2Pnnd7LsuOezt2Uv+yrfuHoHAJd/9PksO+757Mt5f94BQOKYj/+dR/70chZxM2877vl8+HYA4NQP88hNf+eJXPmWqQD8K9z+bZZ99GaY+3Ku/PjhMOVFXPDlY+Hqr3Len3cAsL/c8ps/spqpfOA1hwPwTNzymz+ymqk859ipADxVO//8TpYd93wez4dvBwB27mAzAPCvcPu3WfbRm1n0lu/z1SMBIAE387bXX8ROAGAS7OC3r38+y477I4v/9Hce+eWLmAIAPNuO+fjfeeSmv/NUPfKnl7MIWPSW7/PITX8n8cjHDwdgX+BwvnrThzmTm3nbF+8E4Mlg50Wcd9zzWXbc86m17GV/ZDWw+ifvZNlxz+fJWPbFOwHYF9jBb1//fJYd93xqLXvOa3nFF//JQxMA8O9WKRUAeKamvPT7PHLT30k88qeXs4hj+dFNf+dHpwKnfphHbvo7iUd++SKOeen3eeSmv1PrkZs+zJkAwN7O/PLfeeSmv5N45E8vZxFT+cCf/s4jN/2dxCNfPhY4lh/d9HceuenvJK58y1QAErCD377++Sw77vk8kWUv+yOrgdU/eSfLjns+j+e8P+8AYNLOP/+Ry5nKB15zOACJW264GTiW5x4JAM/ULV98Pqf/ZAcAq3/yVU5/2fNZdtzz2duyL94JwDEf/zuP3PR39uWRmz7MmQBzX86VN/2dR276O0/kq0fClJd+n0du+juP50enAhzLj276O4/c9HeeyFePBIDEMR//MGdyM2/74p1w+7dZdtzz2duyj94M7OAbL3s+y457PrWWHfdOfrsTAPYF7uTDL/sjqzmWH338cKa89MN8YO4OvvGpi9gJAOzLlJd+n0du+juJR/70chZxLD+66e/86FTg1A/zyE1/J/HIL1/EMS/9Po/c9HdqPXLThzkTANjbmV/+O4/c9HcSj/zp5SxiKh/409955Ka/k3jky8cCx/Kjm/7OIzf9ncSVb5kKwKRbvvh8lh33fPa27Lhvs+ml3+eRm/7OpEf+9HIWAYve8n0euenv7O2rRwIA7GDVhh1842XP58O3A0AtmMoH/vR3Hrnp70x65KYPcyYA8HjO/PLfeeSmv5N45E8vZxFT+cCf/s4jN/2dxCNfPhY4lh/d9HceuenvJK58y1QAngmYypQpU3n1L//OI1+ezTd+cycALnOZy/4XGIAnC3awagMsOvlwpgAAe4OpfOBPf+eRm/7OpEdu+jBnAgD/Dtz+bZYd93wSy477KpcDq3/yTpYd93yWHfdOfrsTAP4/gmP50U1/55Gb/s6T9chNH+ZMAKAWU17EBTd9mDPnvpx3HQkAzxZu/zbLPnozzH05V/7yRUwBADjyvVz5lqms/sk7+fDtAPBUwJ18+Ljns+y45zPp9J/sAG7mbcc9n2XHPZ9J5/15BwB7Y+dFfP9qgB1842XPZ9lxz2dvy477NrcAAE8E7uTSq4FTX86rpwDAk3HLF5/Ph28HgCkv/T6P3PR3Ele+ZSpwLD+66e88ctPfSXz1SAB4sm754vNZ9tGb4dQPc8FLpwKQYMqLuOBPL2fRhj/y3j/vACDBhj9y+nHvZNXr/84jN32fV08BgP8P4HDe9ZapcPUf+e1OAPhXmPIiLrjp7zxy09+Z9MiXjwXgzC//nUdu+jtP1iMfPxyAJ0LX4Xzss+/l2599L199yxmcuTDNmqt/wyte+W1uKQHAv9OUF3yTe6//NR87LADg/yOYyqt/+XceuenvJB656cOcCSx6y/d55Ka/83geuenDnAlw6od55Ka/M+mCl04FIAE7uPbaHTD3OE6eAgBwJ5deDZx6BMcAAP/KLV98Puf9eQcAtdh5Eecd93zetunlXHnT33nkpr+zt0du+j4fmAswlQ+85nAA/pPgTi69Gha95VyOAQCeLDicd71lKos27eCWI9/LIzf9nafikZu+z6unAMDeYAe/ff1XuZypfOBP7+UYAKby6l9+mDM3/JHTv3gnAP+Ljvn433nkpr/zyE0f5kxg0Vu+zyM3/Z1HbnovxwAAk9i6ndXArBlTAXg8cDhfven7fGAuXP7R5/Ph2wHgvwXs4Levfz7Ljns+j2fZcV/lcmD1T97JsuOez6RlH70Zrv4qy457Ph++HQBc5jKX/TczAE8EdvDb1z+fZcc9n2XHfZXLgdU/eSfLjns+k5a9/iJ2AgBPFezgGy97PsuOez613nY1sOGPnH7c81l23POZtOy4r3I5ADCJI9/LIzf9ncSVb5kKwKK3fJ9Hbvo7j9z0fV49BQBW/+SdLDvu+ext2cv+yGoAYBLcyYePez7Ljns+k5a97I+sBi7/6PNZdtzzSSz76M0AXP7R57PsuOczadlx7+S3OwHgfwkczld/+SKmAABc/VWWHfd8nsjpP9kBwOPZ+ed3suyjN8OpH+aRX76IKQDApCkv/T5XvmUql3/0+Zz35x0A1Nr553ey7Ljns+y4r3I5sPon72TZcc9n2XHf5hYO56s3/Z1Hbvo7k658y1TgWH5009955Ka/M+mCl04FYG+3/OaPrOZYfnTT33nkpr9T65Gbvs8H5gLAk7Hzz3/kcqbygdccDsCTsfPP7+RtV8Plv7yInQDA42HnRZx33PNZdtzzWfayP7IaWP2Td7LsuOezt2VfvBOAY17zchYBXP1Vlh33fGot+xR8+8vHsvon7+TDtwMAc1/OlTf9na8eCQAJuJMPH/d8Pnw7APwvm/LSl3MmO/jGb+4E4KmCHfz2lzcDx/LcIwFgErd/m2XHPZ8P3w4ATwd1czj2+GM5+fhjOfOlb+Kr3/wJN3zhcOqHbub7l+wBwGWJyz/6fJYd93wSy172R1azg2+87PksO+75JJZ99GbgZt523PNZdtzzSZz+kx0A7AtMZfFcWL1pBwCPh5072Awsmj0VgH3h9gv5xgY48/UvYgoAwO13cDnA1V9l2XHPJ7HsozcDO/jGy57PsuOez6Rlx32bW9gBTGX1T77Kb3cCQIKtF3Hey/7IrC//nUd++SI2ffH5fPh2AJgEd/Lh497JNzZM5QN/+j6vngIA/0ncfgeXM5XnHDsVgKdqyku/zwW/fBHHAAD/yi1ffD7LvngnAI8HdvDb17+Tb2yYygf+9H1ePQUAEnA4X/3Ty1l09VdZ9sU7AfhPuvyjz2fZcc8nsexlf2Q1O/jGy57PsuOeT2LZR28GbuZtxz2fZcc9n8TpP9kBwNOxc+sm4FieeyQAPBGYyqt/+WHO5FgWz9gBQOKWG26Gucdx8hQAeCou/+jzWXbc80kse9kfWc0OvvGy57PsuOeTWPbRm4Gbedtxz2fZcc8ncfpPdgCwL5z6YR656e/syyM3fZ8PzAVO/TCP3PR39uWrRwKAy1zmsv9mBuCJwFRe/cu/88hNf+fKt0wFjuVHN/2dR276O4kfnQoATxdM5QN/+juP3PR3av3oVGDuy7nypr/zyE1/Z9IjN32YMwGAvcEOrr12BwD7sugt3+eRm/7O3h7508tZBADsbdFbvs8jN/2dxCN/ejmLgDO//HceuenvJB758rEAnPnlv/PITX8n8ciXjwXgfwXcyYeP+za3AAC1OPXDPHLT33kiV75lKgB7gzv58HHP5/Sf7GDRW77PIx8/HIB9mfLS7/PIl49l9U/eybLXX8ROACAx5aXf55Gb/s4jN32YM4FFb/k+j9z0dx656b0cAwA8XTv//E7edjWc+eX3cgwAUAt2sGoDcOoRHAMAPB64k+/9ZAcwm9lTAOBf2fnnd3L6T3bAqR/mkV++iCkAwONhyou44Ka/88hNf+eRP72cRcCZX/47j9z0dyY9ctOHORMASDDlRVxw09955Ka/s7dHfvkiphz5Xn506lQ2b70TgH1h5w42AwD/Ljv//E6WHfd8Hs+y497Jb3cCwDMBh/Out0xlEbATAHgquP1CvrEBFr3lXI4BAP7d6o85jmOA1es3A/C/AO7kw8c9n2XHPZ9lL/sjq7mZtx33fN52NXD1V1l23PNJnPfnHQA8GUx5ERfc9Hceuenv7O2Rmz7MmcCit3yfR276O/vyyE3v5RgAoBZM5eSTp8LVd3ALALAvO2++idVM5TnHTgVgb7CD3/7yZgBq3XLDzXDqh3nkpr8z6ZEvHwtM5QN/+juP3PR3Jj1y03s5hqkc8/GXcyY7+MZv7gQgwYwXccFNf+erRwLsYPbsY7n8o89n2RfvBOCWLz6fZcd9lcvnvpwrb/o+r54CAP8uO//8TpYd93z2tuyjNwM7+MbLns+y457P41l23Dv57U4AeCI7//xtfrsTAPbGzov4/tXA1XdwCwCwN7iTDx/3Tr6x4Vh+dNP3efUUAKjFlBdxwZ9ezqKrv8qyL94JQC24kw8f93yWHfd8lr3sj6zmZt523PN529XA1V9l2XHPJ3Hen3cA8GQw5UVccNPfeeSmv7O3R276MGcCi97yfR656e/syyM3vZdjAIAnAnfy4eOez7Ljnk/i9J/sAG7mbcc9n2XHPZ9aH74dAGrB4Xz1pvfy6ilTAeD2b/O2q2HRyYczBQB4MpjyIi646e88ctPf2dsjN32YM4FFb/k+j9z0d/blkZveyzEAgAvYeRHnHfd8lh33Tn67EwBc5jIXGYAnA3Zw7bU7YO40ZgMAsINNm4DZU5kCAOxP3H4h39gAAKt/8k6WHfd8ln3xTgD+v4Kbedtxz2fZcc/nyVp23Fe5HABI7PzzH7mcm3nbcc/nvD/vAOCZ2vnnd7LsuK+y+S0f5gNzYfVP3smy457PE1n20Zvh1A/zyOu3c/pxz+fDtwPAvws7L+K9P9kBp36Yrx4JAHvb+ec/cjlw5gmHA/BEdv75j1wOADwZt3zx+Zz+kx0w9+Vc+fHDAdhfjvn497ngpYcze/ZU2LCdTQDAJLZuZzVTWTwDAP5d4Fh+dNPfeeSmv1PrkS8fC8CzZcpLv88FHz+cKQBAAnawagMsmj0VgH2BHfz2lzcDx/LOl04F4D+BGACmdHQAMImJtfz5i+/nyFOez7Ljns/BZ72fD/9zLeMAwCQI2Xnjz3jDK89j2XHPZ9mJ53HeF69lUxUAanH7t1l23Dv57U4ASBDv4doffoSzzzqPZcc9n2UnnsfZ7/8nqwGAJ3Lml//OI396OYs4lh/d9Hd+dCpw6od55Kbv84G5APBkcPu3WXbc83k8y477KpcDq3/yTpYd93yeyIdvB4BaU449jkXczPf/vAOAvcEOrr12B8w9jpOnAMDeuP1CvrEBACax8yK+fzWcecLhADxZcDhf/fKxcPUdXAsA1IKpTHnpe3nkTy9n0dVfZdlxz+dtVx/Lj276O4/88kVMAQCeCriJ9x73fJa9/iJ2AgD/ChzLj276O4/c9Hceuen7fGAucOqHeeSmvzPpkZs+zJkAp36YR276O4lHvnwsAJNu+eLzWXbc80ksO+6d/HYnAMCdfO8nN/ONlz2f8/68A4Bat/zmj6xmKh/403s5BgCoxe3fZtlxX+XyuS/nypveyzEAwL4w5UVccNOHOfPqr7Ls9RexEwCodeaX/84jf3o5iziWH930d350KnDqh3nkpu/zgbkA8GRw+7dZdtzzeTzLjvsqlwOrf/JOlh33fJ7Ih28HgH9l0Vu+zyM3/Z19eeRPL2cRAPBEbvni81n20Zth7sv59kunAlALDuddb5nK6p+8k2XHPZ/EeX/eAbd/m2XHPZ/Hs+y4r3I5sPon72TZcc/niXz4dgB4MmAqs2cDm3awEwBI7PzzO1l23Le5BQDYl8qNX2DZcc/nDZeOAFALNvH9lz2fZe/4JwMAAPEerv3hRzj7Oc9n2XHPZ9lz3sIbfngnAzEATKL/Tr7x/ndy5CnPZ9lxz2fZc97CG/62CQCXucxlj8cAPBnsvJPLNsCikw9nCgAAO1i1ARbNngrA/gQ7+O0vb2bRW17OmcCit3yfR758LFz9VT58OwCs/sk7WXbc89nbspf9kdUAwP8aOJYf3fR3Hrnp7zxZj9z0Yc4EABJTXvp9Hrnpw5wJrP7JO1n2+ovYCQBw9VdZdtzzeSKn/2QHAJNu+eLzOf0ns/nRTX/ngpcezqt/+XceuenvPBmPfPxwOPK9PHLTh+Gjz2fZF+8EYF/YeRHnHfd8lh33fGqd/pMdwM287bjns+y451Nr2esvYifAzos472V/ZPXcl3Plxw8HYG+wg2uv3QFzX867jgSAx8POi3jvT3YA8K/ADn77+ufztquBUz/MI798EVMAgKeCrdtZDQD8Kzv//E6WHfd8Hs+HbweAKS99OWdyM2877vksO+75TFr20Zvh1Jfz6ikA8P/ZrBlTAdgXbr+Qb2yAM7/8Xo4BAP4TNl1wIZfTyXNOmA1Agok7+fArP8KX7oUXvOO9fPuz7+X9x1e57lsf4azvPgLApE1//ginf/oKNraezMc++16+/amXc2j/Hznvff9gBwDweGCEv73/Lbz3HwUOe/07+PZn38tX33gQ6TWbGAAA/hW2bmc1ALAv7LyI8457PsuOez6Tlh33VS4HABIc+V4euenvPJ5HbvowZwKL3vJ9Hrnp7zyRrx4JALWY8iLeeSqsvvZOdgIAtbj9Qr6xAc58/YuYAgDUgh389pc3AzAJdvDbT/2R1XNfzruOBICngiPfyyM3vZeTAYBJsIPfvv75LDvu+Sx72R9ZfeqHeeSmv/PITe/lGADg6WDDbN5504c5c8MfOf245/Ph2wHgP+GYj/+dR276O1e+ZSoAk+BwvnrT37nyLVNZ/ZN3suz1F7ETAOD2b/O2q2HRWz7Mq6cAQK1bvvh8ln30Zha95fs88ssXMQUASMCdfPi457Psi3cCMAkO56s3/Z0fzf4jpx/3fD58OwDUYut2VgMA+8LOizjvuOez7LjnM2nZcV/lcgAgwZHv5ZGb/s7jeeSmD3MmsOgt3+eRm/7OE/nqkQDwVNzyxeez7PUXsRMA2NstX3w+y457PpM+fDvAnWzaNBVO/TCP/PJFTAEA9jblpd/nkZv+zqQLXjoVjnwvj9z0dx7PIzd9mDOBRW/5Po/c9HeeyFePBIBJXP1Vlh33fPb24dsBYG+wg2uv3QFzgZ0AsC/pY87mpXVw17V3MAAATOKRa/nzTjj5RWfSBhDv4LdvfQvv/esIC1/xdr792ffy1Rd2sPGvX+WE91/BAABA/xW84cVf5S+DC3nnx9/Ltz/7dj5wZMCqjX0A1GLKi7jgpr/zyE3f59VTAMBlLnORAXgy2Lqd1UzlOcdOBSDB7XdwOVN5zrFTAXg6YAffeNnzWXbc86n1tquBDX/k9OOez7Ljns+kZcd9lcsBgFo7//xVvsHL+fZLpwKQ4Mj38shNf+erRwLAord8n0du+jt7e+RPL2cRALC31T95J8uOez6JZS/7I6uByz/6fJYd93wSyz56MwCXf/T5LDvu+SSWffRmACbd8sXns+y451Pr9J/sAG7mbcc9n2XHPZ9ay457J9/YAFz9VZYd93xqLfvinQA8E3A4X73p71zw0qkAJOBwvnrT3/nRqVP5wOdexBQAgFM/zCM3/Z0ncuVbpgIw6ZiP/51HbnovxwAATwcczldv+juPfPxwAPaFKS/igpv+ziM3/Z0n65FfvogpAAAcy49++SKmAAB72/nnr/KNDXDm61/EFADg8dzymz+yeu7L+cCpAPBELv/oO/nGBuDUD/PIxw8H4OmCqSyeAQD/ChzLj276O4/c9HcmPfKnl7MIAEjA4Xz1pr/zyE1/Z2+PfPxwAP6/4vY7uJypLJ4BAHuDO/nwR28GjuW5RwLAvwMTG7n5xpu59sabufzPP+O9bzqPs38+xJmf+izvnAsAEHLLd3/A5dXD+fbvv8kHzj6Wk48/lpe+7/tc8MapDPztj/xtCADYeREf+ckm2k79MBd/50289PhjOfn4s/nAd37GD4+BcQDg8dB7E395AGa/+sN87OxjOfn4YznzpR/mgr+/g0MBgCeDudOYDQA8njO//HceuenvJB656cOcCQDUgjv58HHPZ9lxz6fWsuO+yuXA6p+8k2XHPZ+9LTvu29wCADyeY17zchZt+CPv/fMOACbBDn77y5th7st515EAsLedf/4q39hwLD/608tZBADAVE4+eSpnvv5FTAEAngnYwW9f/3yWHfdOvjH7wzxy099JPPLxwwFIwA5++/rns+yLdwLwVDB3GrM5nK/e9HeufMtULv/o81n2xTsB2N+mvPT7PPLlY2HDHzn9uG9zC3fy4Y/eDHNfzrdfOhWASbCD377++bxt08u58qa/c8FLpwLwVBzz8b/zyE0fho8+n2VfvBOAWsydxmwA4PGc+eW/88hNfyfxyE0f5kwAoBbcyYePez7Ljns+tZYd91UuB1b/5J0sO+757G3Zcd/mFgDg3+GYj/+dR276O4/86eUsAgDgcF79y+/zyMcPB+DpgDv58HHPZ9lxz6fWsuO+yuXA6p+8k2XHPZ+9LTvu29wCAOyNUz/MIzf9nUmP/OnlLAIAErNnT4UN29kEAOz881f5xgY48/Xv5ZgpALAveMt4/gs74YGbuKYfACbddc3NjNedzEuOCQDYecFX+cbaqbzzNz/hqy89mZOPP5YzX/c5Lv7s4dQ/8Ed+9ggA7LzhWu6Kp/Kmz72dlx5/LCcffzKv/vj3ueHdBwHgMpe57PEYgCfjlhtuhrnHcfIUAEjccsPNwGxmTwGApwOm8oE//Z1Hbvo7tX50KjD35Vx509955Ka/M+mRmz7MmQDAJG7/Nqf/BD7wuRcxBQB4tix6y/d55Ka/k3jkpu/zgbmw6C3f55Gb/s7jeeTLxwIw6ZiP/51Hbvo7ta58y1TgWH5009955Ka/U+uRm77PB+YCp36YR276O7Ue+fjhAPy7HPPx7/PqKQBTefUv/84jHz8cgCcy5aXf55Gb3ssxAMC/2+qfvJNlxz2fZV+8E4DHAzv47eufz7Iv3glALaa8iAtuei/HAAB7gzv53k92AFNZPAMAHg+3f5u3XT2VD3zuRcwGAPbG7d/m9J/sACBx5pf/ziMfPxyAp+uWG24GZjN7CgDsbdHsqQA8WbCD377++Sx7/UXsBAAmsfMizjvunfx2JwD8f7Rz6yZgNrOnAMDebvniV7kcAEhw+7dZdtzzqbXsozcDcPlHn8+y455PrfP+vAOAf4XeO/nSp7/Nez/9bT78kyu4pXQyP7r413z1pE4AEpRu4m9XF5hyzrmcXAcAk2YfezizWctdawBg0w03sZoFvOlNh1MPACQg4LAXncFsAODx0NjMFA823XwTm6oAkCAVkAYA/pVbbrgZZk9lCgDwZMDhfPWmv3PBS6cCsLdFb/k+j9z0d56MK98yFYB/hSkv4ttvmcrqn3yV3+4EgMTOP3+Vb2yYygc+9yKmAAC1YAfXXgsf+NN7OQYAmDTlpd/nq0cCwNMBd/K9n+wAAKby6l/+nUdu+juPfPxwAP5dprz0+zzyp5ez6Oqvsuy4b3MLAPBkcPVXWXbc85m07LivcjkA8Exw5Ht55E8vZxE387bjvsrlTOUDn3sRUwCASTCVV//y7zzyyxcxBQB4OuBwvnrT33nk44cDMOmWG26G2VOZAgA8GXA4X73p71zw0qkA7G3RW77PIzf9nSfjyrdMBWB/YOdFnHfc81l23PP5V8778w4A9mXRW77PIzf9nSfjyrdMBeDpmjJjNrCJTTsB7uR7P9kBc1/Ou44EgCey6LSTWcRaLrt9BIAE8Z387dICU154Bod5AJv42z92wDFn8+rpADCp/sjjOIYCDz66A4C2jmZgB9fevIkKAJBIpwIAXOYylz0eA/CvwA5gKmz4I6d/8U4A4E4uvRo49QiOAQCeKo58L4/c9H1ePQUAngw4nK/e9HcueOlUABI7t25i0Vs+zKunAMDjWf2Td7LsuOezt2Uv+yOrAYBJcDhfvenvXPDSqQAkuP1CvrEBVm/aAcDj4cj38shN3+fVUwDg8TB3GrMBgKdj06YdMHcas4Gdf34ny457Pk/Fh28HgMdzyxefz7LXX8ROAGDSzj+/k2XHfZtbAIAEt3+bZV+8E4BJsIPfvv75LDvu+TwVy15/ETsBgMQtX3w+y457PsuO+yqXA4ve8n0euenvPPLxwwF4tsEOfvv6r3I5ADv4xm/uBODx3HLDzZz55e/z6ikAsLdbvvh8ln30ZgASZ37573z1SAB4umAHmzYBpx7BMQDAJHbuYDMAUAtu5m3HPZ9lxz2fScte9kdWAwD7Ajv47eufz7KX3cRz/vRhTgYA/r+BHVx77Q449QiOAQBqcfu3edvVsGjuVAASHPleHrnp79R65MvHAnDml//OIzf9nVoXvHQqAP8Kc1/OlTf9nUduuoAbvnwGU3ZewXs/dy0DAECCoRF2Ajv/8H6WHfd8ai175UVsAjZv3QHAzq07oGshK9sBoBZemjQA8HjIHss737eMtg0Xcfbp53HeFy/ilm0hAE8GWy/i+1fDmSccDsAxJxwLV3+VZce9k29sAICnY/VP3smy457Pk3H6T3YA8GRMeemH+cDcHXzjZd/mFoDbv83pP9nBmV/+Pq+eAgB7g6m8+pff59VTAGASOy/ivOOez7Ljns/eln30ZmAH33jZ81l23POpteyLdwIAO/jt67/K5QAA3MmHj3s+y457Po9n2XHv5BsbgKu/yrLjnk9i2RfvBOCpYsqLuOCm7/OBuTfztuOez4dvB4B/hVM/zCM3/Z1Jj9z0Yc4EAJ4ppkxlFgAAO7js5h0A/Kew9SK+fzWcecLhABxzwrFw9VdZdtw7+cYGAHg6Vv/knSw77vk8Gaf/ZAcA+wNTXsQFf3o5i4Azv/x3Hrnp7+ztyrdMBabynGOnArAvq3/yTpYd93yejNN/sgOAvcEOVm2ARbOnAjCJrdtZzVQWzwAAZkxjETtYtRVu+eJXuZypfOBzL2IKAPBEmHIyz18GD118LTsBgMot13J5PJWXnjYbAOhjRy9wyw85+Ljns+y45zNp2Ylf5XJg9aYdAKSPeQ2fPbKJ1T9/Pwc/5518+M93sqkEAC5zmcueiAH4V2Aqx3z8+zxy04c58+qvsuy4b/PbP/+Ry5nKB15zOAD705SXfp8LXjoVgCey6C3f55Gb/s7eHvnTy1kEADyRW264GTiWH338cACeiU2bdgDwTDF7KlMAADiWH930dx656e88kUf+9HIWAQC1YAe/ff3z+fDtAJBgwx85/bjns+y455NY9vqL2AQATLrli89n2Udvhqvv4BYAoBanfphHbvo7/8ojN32fD8wFgFrHfPzvPHLT33nkpg9zJgCQYOdFnHfc81l23PPZl2XHvZNvbACu/irLjns+ifP+vAOAJ3LLF9/JNzbAmV/+O1e+ZSpc/Ud+uxMA9uWYj/+drx4JALXgTj583PN529Vw5pf/zpVvmQrA03XLF5/PsuOez4dvB26/kG9sgDNPOByAJwOO5Uc3/Z1Hbvo7kx7508tZBADs7ZYvPp9lx72TVa//O4/c9H1ePWUqU6YAwP8q2MFvX/9tbgEAJnH7hXxjA5x5wuEA1GLnRZz30ZtZ9Jbv8+2TAeA/AQLajnwTv3zfAip3/ZCPXDoCQK0V572Xb3/2vezL+4/qBCBBNiANADwds5/7OW647Pt8+xXL4fY/8rZXnscJX7+TcQDgiVz+kz+yeu7LedeRAMCR7+WRm/7OIzd9nw/MBYCnY9Fbvs8jN/2dJ+PKt0wF4MmAqbz6cy9nETfztuOez7KP3syZX/47Xz0SAJ4KpryIC276O4/c9Hf29siXjwWm8oE//Z1Hbvo7tR75+OEA3PLFd/KNDcfygbdMBQAO56s3/Z1Hbvo7V75lKmd++e88ctPfqfXITd/nA3OBUz/MIzf9ncQjHz8cgKcDpvLqX/6dK98ylcs/+k5+uxMA9gdu/zbLjvsqlzOVD/zp+3xgLqz+yTtZ9vqL2AkA/Ltd/pM/snruy3nXkQDAke/lkZv+ziM3fZ8PzAWAp2PRW77PIzf9nSfjyrdMBWB/YcrhPGcuXP7Li9gJAExi50W89yc74NSX8+opALAvi97yfR656e88GVe+ZSoAj2fWjKkAPB6mTGUWcPlHn8/broYzv/x9Xj0FAP4VaOIFLzoINlzL3zYAhFx37X2w7GSeMwUAJrUd/3K+/dn3si/fftFCAPCm8oIv/5p7f/9e3nQA3PLzr3L2c17Lp28vAOAyl7ns8RiAJwsO56s3/Z0fnXoz3/jJDjj15bx6CgA8Fdz+bZYd93yeyNuuBjb8kdOPez7Ljns+j+e8P+8AYBIczldv+jsXvHQqAImdf/4jl899Od9+6VQA9nbLb/7IrC//na8eCQC3fPH5LDvu+eztbVcD3Mzbjns+y457Pk/GstdfxE4AYBLsYNMmYPZUpgAATxXsYNMmWDR7KgDPBm6/kG9sgMtvuBOABHNfzpU3/Z1Hbvo7iUd++SJmAwBwJx8+7vm87eqpfOBPf+eRm97LMQDAfwJTXsQFN/2dR276O/vyyE3f5wNzgVM/zCM3/Z3EBS+dCsDjueWLz+dtV8Oit3yfrx4JU176YT4wdwff+NRF7AQAngx2XsR5x32Vy0/9MI/c9He+eiQAPB64kw8f93zO+/MOABI7//xOTv/JDuBm3nbc8/n+7O/zyE1/56tH7uC3v7wZ5r6cdx0JAM8mNvyR0497Ppee8HceuenvfPVIAPhPgJt523HPZ9lxz6fWso/eDMAzwe3fZtlx72TV69/LMQBAAnbw21/eDMDlH30+H74dACbd8ps/svrUD3PBS6cC8J/W9tx38IEFcNePf8q1EwBANk8DMJCaysnHH8u+HDY9AKChLg+bN7OmBAC1mJhgDAD4V8hO5eTXfYILLv41f3jpVAYu/SpfuB0AnsiZX/47j/zyRUwBAJ4K2MFvX/9OfrsTAGqt/sk7WXbc83kyTv/JDgCeLKa8iHeeCgCJy395ETsBgP+UnX9+J2+7eiof+NN7ORkA2NvlH30nv90JAP9uU176fR656fu8egoAPBGu/irLjns+k5Yd91UuBwCeDriTDx/3fJZ99GbgWH500/d59ZSpvPqXf+dHpwIb/sjpx32bWwCAf6czv/x3Hvnli5gCADwVsIPfvv6d/HYnANRa/ZN3suy45/NknP6THQD8Kzv//E6WHfd8Pnw7AEyCO7n0alh08uFMAQCeCpjKq19/LGz4I+/98w4AErCD337qj6zmWH708cMBeDyrf/JOlh33fJ6M03+yA4C9cfsdXM5UFs8AgEk7t24CZjN7CgDA4Tz3VADg1A/z1SMBAHbw29c/n/P+vAOAx5M+5mxeWreHy27eBP2X86db4OQXnUkbAAB5GutgIG7imOOP5eTjj2VvJy9oAmBSevqxvPML3+f2v3+OV88a4W+f+Bm3xADgMpe5bF8MwFPBzov4/tUAwNVf5bw/7wDgqeDI9/LITX9nX350KsCxnHkqMHcqi4Azv/x3Hrnp7+zLBS+dCgA7L+K8457PeX/eAcDOP7+TZcd9m1sAjn05H+CPnH7ct7kFAJgEO4CpXP7Rb3MLAHDMx//OIzf9nUmP/OnlLAIWveX7PHLT39nbIzd9nw/MBZjKB/70dx656e9MeuSXL2IKADCJnXdy2QY484TDAXg62Hknl22AWTOmAvBsuOWGm4GpfOA1hwPwROBm3nbcV+HLf+eRm77Pq6cAwP6w88/vZNkX7wTgmbjli8/nbVfDord8nwteOhUAmMqrP/dyFm34I6d/8U4AngymvIgLbvo7j3z8cAD+FXbuYDOwetMObvni81l23PN5Lx/mkZv+zqQLXjoVgJ1//irf2DCVD3zuRUwBAPZl1oypAEyCm3nbcc9n2XHPZ9Kyl/2R1QDAJOa+nCtv+jtfPRIAEnAnHz7u+Xz4dgD4d4Fj+dFNf+eRm/7O3h656fu8egoAPBWwg9++/vks++U0rrzp73z1SACYdMsX38k3NkzlA3/6Ph+YC5d/9Pmc9+cdACSO+fjfeeTjhwOwP8BUXv3+s5kycSdf/PF9VABajuCkZbDzHxdy7QQAPJ4VhxwE3Mdv/roDgEnEI/zt9/9kJwDweIhDKjEAJPCaWHHm4cwGBodGAHgil3/0+Sw77vnsbdlx7+QbGwDg8cAOVm3YwWU37wCg1qK3fJ9Hbvo7T8aVb5kKwJPBzos477jn87arj+VHN/2dR758LGz4I6cf93w+fDsA/LvBnXzvJzs488vf59VTAGBvU176fX506g6+8amL2AkA/Lfg1A/zyE1/Z9IjN32YMwGApwLu5MPHPZ9lx32Vy4FFb/k+j9z0Xo4BABLHfPzvXPmWqcDNvO24d/LbnQDw73L5R5/PsuOez96WHfdOvrEBAB4P7GDVhh1cdvMOAGotesv3eeSmv/NkXPmWqQDsDe7kw8d9lcuB1T95J6dvejmP3PR3vnokAEzi9ju4HFj9kwu5BQB4qjjyvfzoVFj9k3fy4dsB4JYvvpNvbJjKB/70Xo4BAB7Pord8n0du+jtPxpVvmQrA3nZu3QRzj+PkKQAwadOmHTB3GrMBAHZexPevBoBFs6cCkIAdrNoAAE8EbxknnZRn51U3c/m11/JQ3cm85JgAgAQs46ST8nDLP/ntNgB4PFRDACbRuIwXnDAV4j30jwKAy1zmsn0xAE8W3MmHX/ZHVnMsP7rp7zzy5WNZ/ZN3suz1F7ETAHi64E4+fNzzeduml3PlTe/luQAcx7dv+jB89Pmc9+cdADyenTffxGqm8pxjpwJQa8qUw3n1L//Oj069mbd98U4A2HkR5x33Tn67cyrHfPzlnMnNvO2LdwJQi50Xcd7L/shqYPWmHQDUgh389vXv5Bsb4Mwvf59XTwGAxwM7+O2n/sjquS/nXUcCwNPB1u2sZiqLZwDAMwV3cunVwKkv59VTAOCJwLH86Ka/89UjAQDu5MPHPZ8P3w4A/0kcexxnXv1Vlh33bW4BAJ4KuJMPH/d83nb1VD7wp79zwUunAjCJKS/igi8fC1d/lWVfvBOAZxtbt7MaWDR7Ksd8/O88ctPfueClUwGotfPP7+T0n+zgzC9/n1dPAYC9sXU7qwGAWnAsP7rp7zxy09+Z9MifXs4iAOCJsHMHmwGAWnAnHz7u+Sx7/UXsBACerikv/T6P3PRejgEAng3c8G2WHfdOLjv5+zzyyxcxBQBIwA5++/rn87arp/KBP32fV0+Zyqt/+X0+MBdW/+SdnPfnHQD8N2DBy/n4c/MMXPptvvkIQBMv/dDLWVS6k/c+/518+M/Xcu2NN3Ptjdfy2x9+gfPe8092AgAceS4fWACrf/5Ozv7cRVx+481ce/VFfPj1b+Iv2cOZDQA8Hnr/ySvPeicf/vO1XHvjzVx74z/50qf+ySbvIF5wfBMAT+TML/+dR276O3t75Kbv84G5APB0rP7JO1l23PN5Mk7/yQ4Angg7L+K8457Pspf9kVlf/juP3PRejgE48r08ctPf+dGpcPlHn8+y497Jb3cCwL8LHM5Xb/o7Xz0SAB7PMR//MGdu+CPv/fMOAP7XwZ187yc7AEhw+x1cDix6y/d55Ka/c8FLpwKwtykv/T6PfPlYOPU4TgYA/l3O/PLfeeSmv7O3R276Ph+YCwBPx+qfvJNlxz2fJ+P0n+wAYBLs4Levfz7Ljvsji//0dx656e8kHvn44QDA4Xz1pr9zwUunAnfy4Y/eDKcey5nczNuOez7n/XkHTHkRF9z0d756JADsC9zJh19/ETsBgGM+/n0+MBcu/+jzWXbc83nb1VP5wJ++z6unAMATWf2Td7LsuOfzZJz+kx0A1II7+d5PdrDo5MOZwg5++/rns+y455N429VT+cDnXsQUgJ0Xcd7L/sjquS/nA6fC6p9cyC0AADt3sBmYNWMqAE/ksLPOYErvtXz9gh1MeeEZHOYBwKTD3vQOzmzZwfdf81re8MN/cu2NN5P486++yhte9kNuAQB2/vUjHPmmr/Lbq2/m2htv5tp//pD3/nYHHHMyp7QAwCR2XsR5xz2fZce9k9/uBACXucxFBuDJgB389vVf5XKO5Uc3vZdjAI58L4/c9GHO3PBHTv/inQDADr7xsuez7LjnM2nZcV/lcgBgX2754vNZdtxX4ct/55FfvogpAEACDuerN/2dd256J8uOeye/3QkAtdh5Ee/9yQ4WveXDvHoKAOzLMR//O498/HAA2Lqd1exg1VaAw/nql4+Fq7/Kh28HgElwON++6e888uVj4eqvsuy451Nr2XHv5BsbpvKBP/2drx4JAI8HdvDb17+Tb2w4lh/98kVMAQCeKtjBb395M5z6cl49BQCeKW6/g8uBM084HIC9sfMizjvu+Sz74p0A7I2dO9gMAPynTZnyIr5604c5k5v5/p93APBk7fzzO1l23Fe5fO7LufKm7/PqKQCwN458L498+Vi4+qss++KdADxVU2bMBmBfbrnhZmAqzzl2KgB7gx389vXP5/Sf7ODML/+drx4JAPtyyw03A8fy3CMB4N+JnTvYDCw6+XCmAAD/Ddi6ndXA5VfDj276Oxe8dCoAk9h5Eecd906+sWEqH/jT93n1FACAqbz6l9/nA3Nh9U/eybIv3gnA/gYBx7z1NZzsFfjzl3/D6hiY/iJ+//v38urlIbf8/Ie899Pf5r1f/A1/fjTgOa84nCkAAEzl1T/+Cd8+bwHc9Uc+/Olv85Ef3AHP/zy/fM0c0gDA46FlAScvhFt+9UPe++lv894vXshdU8/mF+d/gjPrAODfhZ072AzMmjEVgFqL3vJ9Hrnp7zwZV75lKgD7cssXn8+y457PspfdxHP+9HceuenvfPVIAKh1zMf/ziM3/Z0fnbqDb7zs+Sw77vmc9+cdAOwvcDjvestUAP7XwZ18+LivcjlTWTR3B9/41EXsPPK9PHLT37ngpVMBeCIc+V4e+fiLmDIFAP4bsXMHm4FZM6YCUGvRW77PIzf9nSfjyrdMBWASTOXVv/w7j9z0fV49BQD2hdu/zbLjvsrlc1/OlR9/L1+96e888uVjWf2Td7LsuG9zCwBQi63bWQ1c/tHns+y4r3L5hu1sAgBgKq9+/bEAJGA2s6cAwL+y6C3f55Gb/s6TceVbpgJQa+ef/8jlHMs7XzoVmMqrf/l3Hrnp7yQeuen7vHoK7PzzO1n2sj+y+tQP88gvX8SrP/59PjD3Zt72+ovYCbB1O6uZyuIZAPBEmPscXr2swMBQJ885djYAtag7nK/+5nN87KQWVv3jN7z309/mvZ/7AT+7eZiFrzyDlQBA29IDWVx9hO9/8du899Pf5iO/XMPsl36CGz57MvUAgMtc5rJ9MQD/CtzJh497J9/YcCw/uum9HAMAJOBwvnrT33nk44cDAFP5wJ/+ziM3/Z1Jj9z0Yc4EACbBDn77+uez7Ljn8zY+zCM3/Z2vHgkA+3LMx//OIze9nFUvez7Ljns+H74dABI7b76J1RzLO186FYAn45Ybboa5L+ddRwIAR57LB+ZOZfPWOwGYxJSpTAE48r08ctPfSVz5lqkATIIdfONTF7ETANgXdl7Eece9k29sOJYf3fRejgEAng5uv5BvbIAzTzgcgElwM2877vksO+75PJFlL/sjqwGABOzgt7+8GTiW5x4JAJPY8EdOP+75LPsUfPumv/PIxw8HADaxaScAJHbefBOrOZbnHgkAtbj6qyw77vn8K8uOeyff2AAATxUczldv+jsXvHQqAAnYwaoNALA3dl7Eecc9n9N/soMzv/x3Hvnli5gCADwejnwvj/zp5Sy6+qssO+6d/HYnADxZHPlefnQqXP7R57PsuOdT621Xw6K3fJhXTwGAWrCD377+nXxjw7H86Ka/89UjASDB7d9m2XHPp9bbroYzv/xejgEAniyYyuzZwIbtbAIAJu28+SZWM5XFMwBgElu3s5qpPOfYqQD8J+28+SZWA7NmTAVgEuzgt7+8GU79MI/c9F6OAQASsIPfvv75LHvZH1l96od55Kbv8+opADAJpvLqX36fD8ydygdeczgAe+P2b7PsuOezt2UfvRmAyz/6fJYd93z2tuyLdwKwLzCVV//y7zzyyxcxBQCoRd3JfPv6v/PIn17DIg8A0lOO5QPf/Am3X/93Hrnp7zxyzR+48scf5tUHdwIwCa+Tk9/+Ff552d955Ka/c+/F3+SrZy+gfsqLuOCmv3PBS6cCkODI9/LITd/n1VMAgOwy3vTN73P7NX/nkZv+ziPX/IF/fuHlHNYOAP/K5R99PsuOez57W3bcO/nGBgBgylRmAZffcCcAk3befBOrOZbnHrmD377++Sw77vksO+6rXA6s/sk7WXbc83kyTv/JDuBm3nbc81l23PNZ9sXL+O3rn8+y457P2/gwj9z0dx656fu8egoAPJFjPv53Hrnp7zzyp5fDT97JsuOez3l/3gHA/jDlpd/ngpdOBSABO1i1ARbNngrAvxvczNuOez7Ljns+y457J9/YAFz9VZYd93wmLTvuq1wOcPVXWXbc80ks++jNACRgB799/Ve5nKl84E/f54JffpgzN/yR0497Ph++HQD+W1z+0eez7Ljns7dlx72Tb2wAAKZMZRZw+Q13AjBp5803sZpjee6RO/jt65/PsuOez7LjvsrlwOqfvJNlxz2fJ+P0n+wAbuZtxz2fZcc9n2VfvBOAxwN38uHjns+yj97MmV/+O4/88kVMAQA48r08ctPf+dGpN/O2457PeX/eAcCkW264GYAEp36YR256L8cA7LyI8457Pss+ejOL3vJ9HvnTy1nEzbztuOdz3p93ADAJdvDb1z+fZcc9n2XHfZXLgdU/eSfLjns+T8bpP9kB3Mzbjns+y457Psu+eBnXXruDRW85l2MAgL1x+7c5/Sc7OPPLf+eRjx8OAEzl1b/8O1eefBOnH/d8ln30Zha95cO8egoAPBksO4OXzgWAvdG4jJd+/Jvcfs3feeSmv/PI9Rdww2++wgfOmE09AJBe9nJ+8Zs/cO9Nf+eRm/7OvRd/n2+/7iDaPACoxZQXccFNf+eRm77Pq6cAgMtc5iID8ERgB799/Ve5/NQP88hN7+UYAGBfOPK9PHLT93n1FACYBIfz1Zv+zgUvnQrALV98PsuOeyffmP1hHrnp7zzy8cMB+FfgcL5609955Kbvs/iXz2fZcc9n2RfvZMpLv88jN72XYwCAxJSXvpwzuZm3Hfd8lh33fPb2tqun8oHPvYgpAABM5dW//D4XvPRwAPZ2yxefz7Ljnk/i9J/sYNFbvs8jN/2dxJVvmQob/sjpxz2fZcc9n/P+vAOASdz+bZa97I/wlu/zyE3v5RgA4Om65Yab4dQP89UjAWASHMuPbvo7j9z0d57II396OYsAgAQ77+SyDcCpR3AMAAB3cunVsOgt3+eRm/7OI798EVMAgCkvfTlnsoNvvOz5LDvu+SRO/8kOFr3lXI4BAGpx6od55Ka/8688ctP3+cBcAKjF7d9m2XHPZ9lxX+VyjuWdL50KwL5w+7dZdtzzSSw77qtczlQ+8JrDAZi088/vZNnL/ghv+T6P3PR3vnokADwZTHkRF9z0d658C3zjZc9n2RfvBODJOubjf+eRm/7Ovlzw0qkA7A2m8upf/p1HbnovxwAAkzjyvTxy09/Z21ePBIB9gR389vXPZ9lxz2fZy/7I6rkv511HAsAxr3k5i7iZtx33fJYd93wmnf6THSx6y4d59RQAmHTLDTfD3OM4eQoA/LvADn77+uez7LjnM+n0n+yAUz/MV48EgEkwlVf/8u888vHDAZjEzos477h38g1ezpU3/Z1HPn44APsCU3n1L7/Pq6cAwN448r08ctPfeaoe+fjhALjkzC//nUdu+jt7e+Sm7/OBuQAAh/PVLx8LV3+VZcc9n0mn/2QHZ375vRzDVF79y7/zyE1/59nwyMefw6t/+XceuenvPPLxwwF4qpjyIi646e88ctPfueClUwHYX3b++Z0sO+75JJYd91Uu51je+dKpAPy7wbH86Ka/88hNf+epeOTLxwKQgKm8+vXHcuaXv8+rpwAczldv+juPfPlYLv/o81l23PN5Kj58OwD8O5z55b/zyE1/Z2+P3PR9PjAXAOBwvvrlY+Hqr7LsuOcz6fSf7ODML7+XY5jKq3/5dx656e88Gx75+OEA7A128NvXP59lx30Vvvx3Hrnp73z1SADY2zEf/zuPfPlYVv/knXz4dgCAHcyefSzMfTlX3vR3Hvn44dzyxeez7Ljns+xlf2T1qR/mkZv+zgUvnQpTXsQFN/2dR758LKt/8k6WHfd8lr3+InYCMJVX//LvPHLT33k2PPLx5/DqX/6dC146FYB94cj38shNf+erRwJArSkv/T6P3PR3Ehe8dCoA/wobLuO3j8DJLzqTNgDAZS5z2X+SAXgiMJVX//LvPPLxwwF4Nhzz8b/zyE1/55GPHw7AUwVTefUv/84jN/2dRz5+OAB7g8P56k1/55Gb/s6+PHLT93n1FADYG9zJh497PsuOez6Tvj/7+zxy09+ZdMFLpwKQmPLS7/PITX8n8cifXg4/eSfLjnsnv90JABz5Xh656e9c8NKpAPwrMJVX//LvPPLxwwHY2zEf/zuPfPxwACZNeen3eeSm93IMAPBEmPIiLrjp73z1SABgyou44Ka/88jHDwcgAYfz1Zv+zgUvnQpALTicr970dx656e/UuuClUwGYBFN59S//ziMfPxyAfwWm8upf/p1HfvkipgAACY58L4/c9HcSj9z0Xo4BAPaFI9/LIzf9nUmP3PR9Xj0FACZNeen3eeSmv3PBS6cC8HRMeen3eeSmv/PIxw8HYNIxH/87j9z0Xo4BAP5bTHnp93nkpvdyDABTefUv/84jN/2dxCO/fBFTAACmvIgLbvo7j9z0d/Z2wUunAjAJdrBpEyw6+XCmAAD/LjCVV//y7zxy09+p9cjHDwfgyWDKi7jgpr/zyC9fxBQA4Kma8tLv88hN7+UYAMBl/woczldv+jtfPRIA9gZTefUv/84FL50KAEe+l0du+jt7++qRAPC/gikv4oKb/s5XjwSAx8OR7+WRm77Pq6cAwBOZ8tLv88hN3+fVUwBgb1Ne+n0euenvTHrkpvdyDADwZMDhfPWmv/PIL1/EFADgyZjy0u/zyE3v5RgA4KngyPfyyE3f59VTAIAj38tXjwSASRz5Xh656e88VV89EgCeCBzOV2/6O498/HAA/hU4nK/e9He+eiQA7A2m8upf/p0LXjoVAI58L4/c9Hf29tUjAeA/Aaby6l/+nUdu+jtfPRIAnghHvpdHbvo7Xz0SAGAqU176Xh755YuYsvMizjvu+bzt6ql84E9/55Gb/s4jHz8cgFoc+V4euenvPPKnl7Nowx85/bjnc96fdwDwv+yui69gZ93JvOSYAACXucxl/2kG4L/RMR//O4/88kVMAQD+k+BwvnrT33nkpr8z6YKXTgXgX2HKi7jgpr/zyE3f59VTAMBlLvv/Dqby6l/+nQteOhUAl7nMZS5zmYuY8iIuuOnvPHLT93n1FAB4Ikx5ERfc9HceuenvXPDSqQD8r2HntXz/zzfz52+9k7f/E878yGs4zAMAl7nMZf9pBsBlLnOZy1zmMpe5zGUuc9mzBa/ALT/5Nl+6IuSYD36Frx6TB8BlLnPZ/mAAXOYyl7nMZS5zmctc5jKXPVvoOpsLbvo7j1zzE7793KkAuMxlLttfDIDLXOYyl7nMZS5zmctc5jKXucxl/x8ZAJe5zGUuc5nLXOYyl7nMZS5zmcv+PzIALnOZy1zmMpe5zGUuc5nLXOYyl/1/ZABc5jKXucxlLnOZy1zmMpe5zGUu+//IALjMZS5zmctc5jKXucxlLnOZy1z2/5EBcJnLXOYyl7nMZS5zmctc5jKXuez/IwPgMpe5zGUuc5nLXOYyl7nMZS5z2f9HBsBlLnOZy1zmMpe5zGUuc5nLXOay/48MgMtc5jKXucxlLnOZy1zmMpe5zGX/HxkAl7nMZS5zmctc5jKXucxlLnOZy/4/MgAuc5nLXOYyl7nMZS5zmctc5jKX/X9kAFzmMpe5zGUuc5nLXOYyl7nMZS77/8gAuMxlLnOZy1zmMpe5zGUuc5nLXPb/kQFwmctc5jKXucxlLnOZy1zmMpe57P8jA+Ayl7nMZS5zmctc5jKXucxlLnPZ/0cGwGUuc5nLXOYyl7nMZS5zmctc5rL/jwyAy1zmMpe5zGUuc5nLXOYyl7nMZf8fGQCXucxlLnOZy1zmMpe5zGUuc5nL/j8yAC5zmctc5jKXucxlLnOZy1zmMpf9f2QAXOYyl7nMZS5zmctc5jKXucxlLvv/yAC4zGUuc5nLXOYyl7nMZS5zmctc9v+RAXCZy1zmMpe5zGUuc5nLXOYyl7ns/yMD4DKXucxlLnOZy1zmMpe5zGUuc9n/Rwbgqfrr3y/mjW95J4cffRKLlh2Cy1zmMpe5zGUuc5nLXOYyl7nMZf9phx99Em98yzv5698vBmBfDMCTtWbNOl78stfwiU99nltvu5PR0TEAXOYyl7nMZS5zmctc5jKXucxlLvtPGx0d49bb7uQTn/o8L37Za1izZh0AtQzAk7FmzTpe84a38vAjjwHgMpe5zGUuc5nLXOYyl7nMZS5z2X+Lhx95jNe84a2sWbMOgEkG4Mn49Oe+xOjoGAAuc5nLXOYyl7nMZS5zmctc5jKX/bcZHR3j05/7EgCTDMC/8te/X8zDjzwGgMtc5jKXucxlLnOZy1zmMpe5zGX/rR5+5DH++veLAUgYgH/lyquuAcBlLnOZy1zmMpe5zGUuc5nLXOay/3ZXXnUNAAkD8K888ugqAFzmMpe5zGUuc5nLXOYyl7nMZS77b/fIo6sASBiAf2V0dAwAl7nMZS5zmctc5jKXucxlLnOZy/7bjY6OAZAwAC5zmctc5jKXucxlLnOZy1zmMpf9f2QAXOYyl7nMZS5zmctc5jKXucxlLvv/yAC4zGUuc5nLXOYyl7nMZS5zmctc9v+RAXCZy1zmMpe5zGUuc5nLXOYyl7ns/yMD4DKXucxlLnOZy1zmMpe5zGUuc9n/RwbAZS5zmctc5jKXucxlLnOZy1zmsv+PDIDLXOYyl7nMZS5zmctc5jKXucxl/x8ZAJe5zGUuc5nLXOYyl7nMZS5zmcv+PzIALnOZy1zmMpe5zGUuc5nLXOYyl/1/ZABc5jKXucxlLnOZy1zmMpe5zGUu+//IALjMZS5zmctc5jKXucxlLnOZy1z2/5EBcJnLXOYyl7nMZS5zmctc5jKXuez/IwPgMpe5zGUuc5nLXOYyl7nMZS5z2f9HBsBlLnOZy1zmMpe5zGUuc5nLXOay/48MgMtc5jKXucxlLnOZy1zmMpe5zGX/HxkAl7nMZS5zmctc5jKXucxlLnOZy/4/MgAuc5nLXOYyl7nMZS5zmctc5jKX/X9kAFzmMpe5zGUuc5nLXOYyl7nMZS77/8gA/H/E5y9g9SP3MGn17T/itQCAa+ATXPrIPdz9y1cAAK/g17ffw+qLPwGAq/j8Bax+5Hp+/SoA2Bd4Bb++/R5WP3IPidWPXM+vXwUALnOZy1zmMpe5zGUuc5nL/tsYgP9veNWPuPucWWz8xyEsWnYIiUVHvo1fAwAuc9nTAX/gtUcewqJlh7DoH5sBcJnLXOYyl7nMZS5zmctc9t/KAPx/89rjFlI/fg9//SQAuMxlLnOZy1zmMpe5zGUuc5nLXGMA/r+Z014PgMtc5jKXucxlLnOZy1zmMpe5zFUGYH+DV/Dr2+9h9SP3MOnuX74CgFqv/eX1rH7kHiatvvgTADzb4BX8+vZ7WH3xJwCY9IWL72H17T/itQBAgs9fwOpH7qHWpZ8HgFpfuPgeVj9yD5Mu/TwAPBXwCS595B4u/Ty89pfXs/qRe0isfuQCvgAATPrCxfew+pF7SKx+5GzmAAC1xvu38NpfXs/qR+4hsfqRC/gCAPBk8aofcfcj1/PrV72CX99+D6sfuYfE6os/AcAkPn8Bqx+5gC/wCn59+z2sfuQeEqsv/gQAk+AV/Pr2e1j9yD0kVj9yPb9+FQBMglfw69vvYfUj9zDp7l++AoAEn7+A1Y9cwBc+fwGrH7mH1Y9cwBf4BJc+cg+rH7meX78KABIwwM7ffYJLH7mH1Y/cQ+LuX74CgKeKV/2Iux+5h9WP3ENi9e0/4rUAwJP12l9ez+pHrufXrwKASbzqR9z9yD1c+nkASPCqH3H3I/ew+pF7SKy+/Ue8FgCYBJ/g0kfuYfUj9zBp9cWfAMBlLnOZy1zmMpe5zGUu+//EAOxvX7j4dfCTQ1i07BASi/6xmfpD382lnweAxBcuvocPHTrAX5cdwqJlh7Bo2T/ZOOtsVt/+I14L8PkLWP3IPSReOAuoP4QPPXIPqx+5h8SlnweAZxOv+hF3nzOLjf84hEXLDmHScz8JAAl4Bb++/R5eyD9ZtOwQEou+fg8d59zDpZ8HgKdqzjn38KFFa/jaskNYtOy73Dk+ixde/AkA4BX8+vZ7eGHbPXxt2SEsWnYIi5b9k40AQK36Q9/Nh9qvZ9GyQ1i07LvcOT6LF178CQCeCqjn8A++myWrv8uiZYew6Ov3MD7rbO7+5SsAmASzeOEj72bJ6u+yaNkhLPr6PYzPOptLPw8A8AkufeTdLFn9XRYtO4TEon8McPgHr+fXrwKAxBcufh385BAWLTuExKJ/bKb+0Hdz6ecBIAGzeOFJA3xt2T/ZSBun3n4i/V//LneO13P4iz4BQAJm8cJHTqT/64ewaNkhLPrHZuoPfR2/fhUAPFl8/gJWf3Ahj339EBYtO4TEXwcO4UO3/4jXAgBPxq9ffz0bqWfJca8AYNJrj1tI/fg9/PWTAMDnL2D1Bxfy2NcPYdGyQ0j8deAQPnT7j3gtAACv4Ne3n82czf9k0bJDmLTorC8A4DKXucxlLnOZy1zmMpf9f2IA9rdPnHUir/0dACT45MNsBDp6XgEAr/oRp86Cjf84j08AAPAFnvuPzVC/kGNfBXzyPBYtO4TEXzcD4/fwtWWHsGjZISSe+0kAeDYxr416xulfDwD7wufP4vD6zfz1rC8AkOB3b+PqzTBnxScAeKrY/E8WHfk2fg3AH9g5ALT18FqAz5/F4fXj3PmTt/FrAODxsPmfLDrrCwDAH3jtdZth1nK+AAA8FeN3f5dDX/8HAPjd27h6M9QvOpLXAgCTNv7jEA59/R8A4He76AM6el4BwGt/eSJzxu/hx6//AwAJPnkxd47Xs+S4VwCQ+MRZJ/La3wFAgk8+zEago+cVAEzaeN3b+DUA9dQPXM9rfwcAtWCcO79+Iq/9HQDwyYu5c7yeJce9AoAnA17Br0+axfjdv+K1vwOAxCcuuofx+oUc+yoAeDLgCzy4GeoPPYsvAADwCV54aD3jq2/n1wC8gl+fNIvxu3/Fa38HAIlPXHQP4/ULOfZVAAAzaa+H8f4tALjMZS5zmctc5jKXucxl/58ZgP2NV/2Iux+5h9WP3ENi9SNnMwcASDCvjXo28+AnAWASn3yYjdTTPg8Aniw+fwGrH7mHWqsv/gQATwWfvJg7x+s5/IP3sPqRe7j08wBQ67U9bcAsXvjIPax+5B4mvXAW0NbDawEA+ASXPnIPqx+5h0mrH7mALwAAtcb7twAw6RNnHcKiI9/Gr4HX9rTB+Bpu/h0APBWsH2CcNqa8CgASr/3l9ax+5B5q3f3LVwBQq2/XHwCYtLF/HOrbmAMAJGCc/vUAkIAv8Nxlh3Do6/8AwJz2eqg/hA89cg+rH7mHxOpH3s3h9VDfPhOABK/6EXc/cg+rH7mHxOpHzmYOADAJxulfDwCJ8f4tAPwr8Ad2DkB9+0wAngyYSXs91B/6blY/cg+TVn/wEOqpp30eADxZn7joHsaZxcrPAwCfX84cNnP16/8AAMykvR7qD303qx+5h0mrP3gI9dTTPg8A4Av89e5x6g99N6sfuYfVF38CAJe5zGUuc5nLXOYyl7ns/yMDsD/xqh9x9wcPoX7zP1m07BASi5b9k40AwL8DnzyPRcsOodais74AwFMBf+C1Rx7ComWH8NfNMOece1j9yD3c/ctXADAJNvPXZYewaNkh1Fp05Nv4NQAAX+C5yw5h0bJDmLRo2Xl8AgD4T2BeG/UAwKRfv/5EFi07hFqHvv4PAPwrjA+wEQB4shi/h68tO4RFyw6h1qKzvgAAr/oRd3/wEOo3/5NFyw4hsWjZP9kIADxT8AqmtAHAUzV+93dZtOwQ9vbcTwLAk8XvbuexcZiz4hMAfGHFLMbvvphPAACTxu/+LouWHcLenvtJAEj8+vUnsmjZISz6x2aYdTarH7mH1bf/iNcCAC5zmctc5jKXucxlLnPZ/xcGYH9iXhv1jHPnRV8AYF9YP8A4s1j5eQCYxOeXM4dx+tcDwP70ibMOYdGyQ/jrZqhfdCSvBQB+vWsAaGPKqwDgP4H6NuYAAAle1UMHAPBEXtvTBgyw83cA8EzMaa+HgV38GgB4Mjb2j0N9G3MAgH1hXhv1jHPnRV8A4NkGM2mvh/H+LQA8GbCF/nGob58JwDMFf+C1122GWcv5Ap9g5azNXP36PwCQgC30j0N9+0wAngw+eR6Llh3Con9shvqFHPsqAHCZy1zmMpe5zGUuc5nL/r8wAPsT6wcYp572eQAAn+DSR85mDgCQ4He389g4zDnnAr4AAMAnuPScWbD5el77OwB4tsAf2DkAtPXwWgDgCxffwwtnAcDjgVcwpQ0Y2MWvAQA+eTF3jtdz+Acv4AsAwL/Tr29awzizOPWXrwCAV/2Iuz94CPUAwOPhVT/irYfWM373xXwCAHi6XvvL63nhrHHuvOgLADxZv3799WxkFi+8/Ue8FgDYG+sHGKee9nkAAJ/g0kfOZg4A8Ex94eKzmcNmrn79HwB4MuAPvPa6zTDrbO7+5SsAeKb45MNsZBYvfORs5mx+mE8AAAn4A6+9bjPMOpu7f/kKAJ6s1/a0AQPs/B0AuMxlLnOZy1zmMpe5zGX/XxiA/YnfvY0f3z3OnHPuYfUj97D6kbPhH9/lznEASMAfeO2Rh/DXzbN44SP3sPqRe1j9yNl03P1dFp31BQCebZ84659srD+EDz1yD6sfuYdT+7/L1+4eB2DSa395PasfuYdJqx95N4cP/JNFZ30BgAT8gdce+V3uHJ/FCx+5h9WP3MOkSz8PAM8mfvc2Dv3HZuoPfTerH7mH1R9s4+pl3+XOcQBIwB/YOQDMOpvVj9xDYvUHD6HvH4dw6Ov/AMBTNeece1j9yD0kPnToAH9ddiKv/R0APFnwBZ677J9srD+EDz1yD6sfuYfE6keu59evAgB+9zZ+fPc4c865h9WP3MPqR86Gf3yXO8cB4Klg/QDj1HP4B+9h9SP3kHhh2z18bdl5fAIAgE9w6SP3sPqRe1h9ziygnsM/eA+rH7mH1Rd/AoAEnzyPRf/YTP2h72b1I/cwafXtP+K1AMBTAV/gr3ePA+PcedEXAKjFJ89j0T82U3/ou1n9yD1MWn37j3gtAMCrfsTdj9zD6kfuYdKHDh3gr8vO4xMAgMtc5jKXucxlLnOZy1z2/4UB2N9+/foTWbTsECY995N/4LVHHsKhr/8DAJM+cdYhLFp2CJMOff0fANjbJ846hEVHvo1fAwBPB3yB5y47hEXLDiFx6Ov/wK9ffyKLjnwbvwYAfv36E1m07BBqLTrrCwDUgj/w2iMPYdGyQ6j13E8CwJMFX+C5yw7h0Nf/AYDHwyfPY9GyQ0gsWnYen+APvPbIQzj09X8AIPGJsw5h0bJDqPXcTwLA07HxH4ewaNkhJBYtO49PAACT+OR5LFp2Iq/9HQA8HvgCz112CIuWHcKkRctO5LW/A4DEr19/IouWHcKk537yD7z2yEM49PV/AIBPnseiZSfy2t8BfIHnLjuEQ1//B+APvPbIQ1h01hcA4Hdv49Blh7Bo2SFMWnTk2/g1AJCAL/DcZYewaNkh7G3RWV8AYBKfPI9Fyw6h1qIj38avAYCng/E13Pw7ANgbnzyPRcsOodaiI9/GrwEAfvc2Dl12CIuWHcKkRcvO4xMAgMtc5jKXucxlLnOZy1z2/4kBcJnLXPbfjs9fwIcOhTt/8jZ+DQC4zGUuc5nLXOYyl7nMZS77VwyAy1zmsv9WX7j4HlY/cg+rz2njzq+fyGt/BwAuc5nLXOYyl7nMZS5zmcueDAPgMpc9G/jd2zh02SE895MA4LJnwyfOOoRFyw5h0bITee3vAMBlLnOZy1zmMpe5zGUuc9mTZQBc5jKXucxlLnOZy1zmMpe5zGUu+//IALjMZS5zmctc5jKXucxlLnOZy1z2/5EBcJnLXOYyl7nMZS5zmctc5jKXuez/IwPgMpe5zGUuc5nLXOYyl7nMZS5z2f9HBsBlLnOZy1zmMpe5zGUuc5nLXOay/48MgMtc5jKXucxlLnOZy1zmMpe5zGX/HxkAl7nMZS5zmctc5jKXucxlLnOZy/4/MgAuc5nLXOYyl7nMZS5zmctc5jKX/X9kAFzmMpe5zGUuc5nLXOYyl7nMZS77/8gAuMxlLnOZy1zmMpe5zGUuc5nLXPb/kQFwmctc5jKXucxlLnOZy1zmMpe57P8jA+Ayl7nMZS5zmctc5jKXucxlLnPZ/0cGwGUuc5nLXOYyl7nMZS5zmctc5rL/jwyAy1zmMpe5zGUuc5nLXOYyl7nMZf8fGQCXucxlLnOZy1zmMpe5zGUuc5nL/j/6P9ao88A9uF+NAAAAAElFTkSuQmCC;" vertex="1" parent="1">
          <mxGeometry width="610.45" height="300" as="geometry" />
        </mxCell>
        <mxCell id="T5b1u3j-7DbVB4yrpI8X-5" value="当开启了混合持久化时&#xa;在AOF重写日志时，fork出来的重写子进程会先将与主线程共享的内存数据以RDB方式写入到AOF文件&#xa;&#xa;然后主线程处理的操作命令会被记录在重写缓冲区里，重写缓冲区里的增&#xa;量命令会以AOF方式写入到AOF 文件，写入完成后通知主进程将新的含有RDB 格式和AOF 格式的AOF&#xa;&#xa;文件替换旧的的 AOF 文件" style="text;whiteSpace=wrap;fontSize=18;" vertex="1" parent="1">
          <mxGeometry x="10" y="320" width="640" height="220" as="geometry" />
        </mxCell>
        <mxCell id="T5b1u3j-7DbVB4yrpI8X-6" value="" style="shape=image;verticalLabelPosition=bottom;labelBackgroundColor=default;verticalAlign=top;aspect=fixed;imageAspect=0;image=https://cdn.xiaolincoding.com//mysql/other/f67379b60d151262753fec3b817b8617.png;" vertex="1" parent="1">
          <mxGeometry x="10" y="530" width="224.58" height="246" as="geometry" />
        </mxCell>
        <mxCell id="T5b1u3j-7DbVB4yrpI8X-8" value="Redis 加载数据的优势&#xa;这样的好处在于，重启 Redis 加载数据的时候，由于前半部分是 RDB 内容，这样加载的时候速度会很快。&#xa;加载完 RDB 的内容后，才会加载后半部分的 AOF 内容，这里的内容是 Redis 后台子进程重写 AOF 期间，主线程处理的操作命令，可以使得数据更少的丢失。" style="text;whiteSpace=wrap;fontSize=16;" vertex="1" parent="1">
          <mxGeometry x="660" y="100" width="570" height="130" as="geometry" />
        </mxCell>
        <mxCell id="T5b1u3j-7DbVB4yrpI8X-9" style="edgeStyle=orthogonalEdgeStyle;rounded=0;orthogonalLoop=1;jettySize=auto;html=1;entryX=0.006;entryY=0.408;entryDx=0;entryDy=0;entryPerimeter=0;" edge="1" parent="1" source="T5b1u3j-7DbVB4yrpI8X-2" target="T5b1u3j-7DbVB4yrpI8X-8">
          <mxGeometry relative="1" as="geometry" />
        </mxCell>
      </root>
    </mxGraphModel>
  </diagram>
</mxfile>
